
<svg width="800px" height="600px" viewBox="0 0 800 600" version="1.1" xmlns="http://www.w3.org/2000/svg" xmlns:xlink="http://www.w3.org/1999/xlink">
    <defs>
        <linearGradient x1="3.02355422e-07%" y1="67.3952595%" x2="100%" y2="32.604726%" id="linearGradient-37b2mfg8ua-1">
            <stop stop-color="#813D9C" offset="0%"></stop>
            <stop stop-color="#33D17A" offset="100%"></stop>
        </linearGradient>
        <linearGradient x1="18.1818182%" y1="100%" x2="18.1818182%" y2="0%" id="linearGradient-37b2mfg8ua-2">
            <stop stop-color="#46311F" offset="0%"></stop>
            <stop stop-color="#553D20" offset="3.2258%"></stop>
            <stop stop-color="#63452C" offset="6.45161%"></stop>
            <stop stop-color="#63452C" offset="93.5484%"></stop>
            <stop stop-color="#845E3B" offset="96.7742%"></stop>
            <stop stop-color="#B7865D" offset="100%"></stop>
        </linearGradient>
        <path d="M11.0144578,0 C4.91301205,0 0,4.29944 0,9.64 L0,120.5 L308.433735,120.5 L308.433735,9.64 C308.433735,4.29944 303.520482,0 297.419277,0 L11.0144578,0 Z" id="path-37b2mfg8ua-3"></path>
        <path d="M0,0 L0,110.86 C0,116.20056 5.06650602,120.5 11.3590361,120.5 L306.713253,120.5 C313.004819,120.5 318.072289,116.20056 318.072289,110.86 L318.072289,0 L0,0 Z" id="path-37b2mfg8ua-5"></path>
    </defs>
    <g id="Page-1" stroke="none" stroke-width="1" fill="none" fill-rule="evenodd">
        <g id="Group" transform="translate(-0.2275, 59)">
            <path d="M134.939759,30.067883 L134.939759,30.182117 C134.939759,38.156566 138.107229,45.80446 143.74506,51.443378 C149.383133,57.082055 157.02988,60.25 165.003133,60.25 L268.73253,60.25 C272.679518,60.25 276.587952,61.027707 280.236145,62.538777 C283.884337,64.049847 287.19759,66.264637 289.990361,69.056622 C292.780723,71.848848 294.995181,75.163321 296.506024,78.811338 C298.016867,82.459355 298.795181,86.369339 298.795181,90.317883 L298.795181,90.432117 C298.795181,98.406566 295.628916,106.05446 289.990361,111.693378 C284.351807,117.332055 276.706024,120.5 268.73253,120.5 L174.641687,120.5 C166.668434,120.5 159.021687,123.667945 153.383614,129.306622 C147.745783,134.94554 144.578313,142.593434 144.578313,150.567883 L144.578313,150.682117 C144.578313,158.656566 141.410843,166.30446 135.773012,171.943378 C130.13494,177.582055 122.488193,180.75 114.51494,180.75 L30.0633735,180.75 C26.1154217,180.75 22.2060964,181.527707 18.5586506,183.038777 C14.9111807,184.549847 11.597012,186.764637 8.80537349,189.556622 C6.01373494,192.348848 3.79927711,195.663321 2.28844096,199.311338 C0.777614458,202.959355 0,206.869339 0,210.817883 L0,210.932117 C0,218.906566 3.16739759,226.55446 8.80537349,232.193378 C14.4433494,237.832055 22.0900964,241 30.0633735,241 L37.406506,241 C41.3544578,241 45.2638554,241.77843 48.9113253,243.2895 C52.5587952,244.80057 55.8727711,247.01536 58.6645783,249.80614 C61.4561446,252.59933 63.6706024,255.91308 65.1814458,259.56182 C66.6922892,263.21056 67.4698795,267.11958 67.4698795,271.06716 L67.4698795,271.18284 C67.4698795,279.15753 64.3024096,286.80446 58.6645783,292.44386 C53.026506,298.08326 45.379759,301.25 37.406506,301.25 C33.6091566,301.40183 29.8787952,302.29835 26.4281928,303.89136 C22.977759,305.48437 19.8746506,307.74013 17.2961687,310.53332 C14.7176867,313.3241 12.7142892,316.59688 11.4004096,320.16368 C10.086506,323.73048 9.48783133,327.519 9.63855422,331.31716 L9.63855422,331.43284 C9.63857831,339.40753 12.8059759,347.05446 18.4439518,352.69386 C24.0819277,358.33326 31.7286747,361.5 39.7019277,361.5 L85.5992771,361.5 C89.5472289,361.5 93.4566265,362.27843 97.1040964,363.7895 C100.751566,365.30057 104.065542,367.51536 106.857349,370.30614 C109.648916,373.09933 111.863373,376.41308 113.374217,380.06182 C114.88506,383.71056 115.662651,387.61958 115.662651,391.56716 L115.662651,391.68284 C115.662651,399.65753 112.495181,407.30446 106.857349,412.94386 C101.219277,418.58326 93.5725301,421.75 85.5992771,421.75 L78.2561446,421.75 C74.3081928,421.75 70.3987952,422.52843 66.7513253,424.0395 C63.1038554,425.55057 59.7898795,427.76536 56.9980723,430.55614 C54.206506,433.34933 51.9920482,436.66308 50.4812048,440.31182 C48.9703614,443.96056 48.1927711,447.86958 48.1927711,451.81716 L48.1927711,451.93284 C48.1927711,459.90753 51.360241,467.55446 56.9980723,473.19386 C62.6361446,478.83326 70.2828916,482 78.2561446,482 L451.86506,482 C455.812048,482 459.720482,481.22157 463.368675,479.7105 C467.016867,478.19943 470.33012,475.98464 473.122892,473.19386 C475.913253,470.40067 478.127711,467.08692 479.638554,463.43818 C481.149398,459.78944 481.927711,455.88042 481.927711,451.93284 L481.927711,451.81716 C481.927711,443.84247 485.093976,436.19554 490.73253,430.55614 C496.371084,424.91674 504.016867,421.75 511.990361,421.75 L654.274699,421.75 C658.221687,421.75 662.13012,420.97157 665.778313,419.4605 C669.426506,417.94943 672.739759,415.73464 675.53253,412.94386 C678.322892,410.15067 680.537349,406.83692 682.048193,403.18818 C683.559036,399.53944 684.337349,395.63042 684.337349,391.68284 L684.337349,391.56716 C684.337349,383.59247 687.503614,375.94554 693.142169,370.30614 C698.780723,364.66674 706.426506,361.5 714.4,361.5 L731.383133,361.5 C735.33012,361.5 739.238554,360.72157 742.886747,359.2105 C746.53494,357.69943 749.848193,355.48464 752.640964,352.69386 C755.431325,349.90067 757.645783,346.58692 759.156627,342.93818 C760.66747,339.28944 761.445783,335.38042 761.445783,331.43284 L761.445783,331.31716 C761.445783,323.34247 758.279518,315.69554 752.640964,310.05614 C747.00241,304.41674 739.356627,301.25 731.383133,301.25 L685.484337,301.25 C681.537349,301.25 677.628916,300.47157 673.980723,298.9605 C670.33253,297.44943 667.019277,295.23464 664.226506,292.44386 C661.436145,289.65067 659.221687,286.33692 657.710843,282.68818 C656.2,279.03944 655.421687,275.13042 655.421687,271.18284 L655.421687,271.06716 C655.421687,263.09247 658.587952,255.44554 664.226506,249.80614 C669.86506,244.16674 677.510843,241 685.484337,241 L769.937349,241 C773.884337,241 777.792771,240.222293 781.440964,238.711223 C785.089157,237.200153 788.40241,234.985363 791.195181,232.193378 C793.985542,229.401152 796.2,226.086679 797.710843,222.438662 C799.221687,218.790645 800,214.880661 800,210.932117 L800,210.817883 C800,202.843434 796.833735,195.19554 791.195181,189.556622 C785.556627,183.917945 777.910843,180.75 769.937349,180.75 L743.315663,180.75 C739.368675,180.75 735.460241,179.972293 731.812048,178.461223 C728.163855,176.950153 724.850602,174.735363 722.057831,171.943378 C719.26747,169.151152 717.053012,165.836679 715.542169,162.188662 C714.031325,158.540645 713.253012,154.630661 713.253012,150.682117 L713.253012,150.567883 C713.253012,142.593434 716.419277,134.94554 722.057831,129.306622 C727.696386,123.667945 735.342169,120.5 743.315663,120.5 L760.298795,120.5 C764.245783,120.5 768.154217,119.722293 771.80241,118.211223 C775.450602,116.700153 778.763855,114.485363 781.556627,111.693378 C784.346988,108.901152 786.561446,105.586679 788.072289,101.938662 C789.583133,98.290645 790.361446,94.380661 790.361446,90.432117 L790.361446,90.317883 C790.361446,82.343434 787.195181,74.69554 781.556627,69.056622 C775.918072,63.417945 768.272289,60.25 760.298795,60.25 L560.183133,60.25 C556.236145,60.25 552.327711,59.472293 548.679518,57.961223 C545.031325,56.450153 541.718072,54.235363 538.925301,51.443378 C536.13494,48.651152 533.920482,45.336679 532.409639,41.688662 C530.898795,38.040645 530.120482,34.130661 530.120482,30.182117 L530.120482,30.067883 C530.120482,22.0934099 526.954217,14.4455159 521.315663,8.8066943 C515.677108,3.1678486 508.031325,0 500.057831,0 L165.003133,0 C157.02988,0 149.383133,3.1678727 143.74506,8.8066943 C138.107229,14.4455159 134.939759,22.0934099 134.939759,30.067883 Z" id="Path" fill="url(#linearGradient-37b2mfg8ua-1)" fill-rule="nonzero" opacity="0.5"></path>
            <path d="M462.650602,115.68 L96.3855422,115.68 C80.4159036,115.68 67.4698795,128.627966 67.4698795,144.6 L67.4698795,385.6 C67.4698795,401.57107 80.4159036,414.52 96.3855422,414.52 L462.650602,414.52 C478.619277,414.52 491.566265,401.57107 491.566265,385.6 L491.566265,144.6 C491.566265,128.627966 478.619277,115.68 462.650602,115.68 Z" id="Path" fill="url(#linearGradient-37b2mfg8ua-2)" fill-rule="nonzero"></path>
            <polygon id="Path" fill="#9A9996" fill-rule="nonzero" points="621.939759 267.68352 530.120482 320.70352 539.759036 337.4 631.578313 284.38"></polygon>
            <path d="M520.481928,356.68 C533.790361,356.68 544.578313,345.89043 544.578313,332.58 C544.578313,319.26957 533.790361,308.48 520.481928,308.48 C507.173494,308.48 496.385542,319.26957 496.385542,332.58 C496.385542,345.89043 507.173494,356.68 520.481928,356.68 Z" id="Path" fill="#77767B" fill-rule="nonzero"></path>
            <path d="M491.566265,115.68 L240.963855,115.68 C224.994217,115.68 212.048193,128.627966 212.048193,144.6 L212.048193,385.6 C212.048193,401.57107 224.994217,414.52 240.963855,414.52 L491.566265,414.52 C507.53494,414.52 520.481928,401.57107 520.481928,385.6 L520.481928,144.6 C520.481928,128.627966 507.53494,115.68 491.566265,115.68 Z" id="Path" fill="#986A44" fill-rule="nonzero"></path>
            <path d="M231.325301,274.74 L231.325301,385.6 C231.325301,390.94056 235.624096,395.24 240.963855,395.24 L491.566265,395.24 C496.906024,395.24 501.204819,390.94056 501.204819,385.6 L501.204819,274.74 L231.325301,274.74 Z" id="Path" fill="#63452C" fill-rule="nonzero"></path>
            <path d="M240.963855,134.96 C235.624096,134.96 231.325301,139.25944 231.325301,144.6 L231.325301,255.46 L501.204819,255.46 L501.204819,144.6 C501.204819,139.25944 496.906024,134.96 491.566265,134.96 L240.963855,134.96 Z" id="Path" fill="#63452C" fill-rule="nonzero"></path>
            <g id="Clipped" transform="translate(231.3253, 134.96)">
                <mask id="mask-37b2mfg8ua-4" fill="white">
                    <use xlink:href="#path-37b2mfg8ua-3"></use>
                </mask>
                <g id="Path"></g>
                <g id="Group" mask="url(#mask-37b2mfg8ua-4)">
                    <g transform="translate(-24.0964, 0)" id="Path">
                        <path d="M308.433735,19.28 L202.409639,19.28 C194.424096,19.28 187.951807,25.753983 187.951807,33.74 L187.951807,106.04 C187.951807,114.02674 194.424096,120.5 202.409639,120.5 L308.433735,120.5 C316.419277,120.5 322.891566,114.02674 322.891566,106.04 L322.891566,33.74 C322.891566,25.753983 316.419277,19.28 308.433735,19.28 Z" stroke="none" fill="#DEDDDA" fill-rule="nonzero"></path>
                        <path d="M303.614458,19.28 L197.590361,19.28 C189.604819,19.28 183.13253,25.753983 183.13253,33.74 L183.13253,106.04 C183.13253,114.02674 189.604819,120.5 197.590361,120.5 L303.614458,120.5 C311.6,120.5 318.072289,114.02674 318.072289,106.04 L318.072289,33.74 C318.072289,25.753983 311.6,19.28 303.614458,19.28 Z" stroke="none" fill="#F6F5F4" fill-rule="nonzero"></path>
                        <path d="M260.240964,38.56 L183.13253,38.56 C175.146988,38.56 168.674699,45.033983 168.674699,53.02 L168.674699,106.04 C168.674699,114.02674 175.146988,120.5 183.13253,120.5 L260.240964,120.5 C268.226506,120.5 274.698795,114.02674 274.698795,106.04 L274.698795,53.02 C274.698795,45.033983 268.226506,38.56 260.240964,38.56 Z" stroke="none" fill="#241F31" fill-rule="nonzero"></path>
                        <path d="M255.421687,38.56 L178.313253,38.56 C170.327711,38.56 163.855422,45.033983 163.855422,53.02 L163.855422,106.04 C163.855422,114.02674 170.327711,120.5 178.313253,120.5 L255.421687,120.5 C263.407229,120.5 269.879518,114.02674 269.879518,106.04 L269.879518,53.02 C269.879518,45.033983 263.407229,38.56 255.421687,38.56 Z" stroke="none" fill="#3D3846" fill-rule="nonzero"></path>
                        <path d="M219.277108,72.3 L194.583133,72.3 C190.590361,72.3 187.354217,75.536871 187.354217,79.53 C187.354217,83.523129 190.590361,86.76 194.583133,86.76 L219.277108,86.76 C223.26988,86.76 226.506024,83.523129 226.506024,79.53 C226.506024,75.536871 223.26988,72.3 219.277108,72.3 Z" stroke="none" fill="#5E5C64" fill-rule="nonzero"></path>
                        <path d="M219.277108,93.99 L194.583133,93.99 C190.590361,93.99 187.354217,97.226871 187.354217,101.22 C187.354217,105.213129 190.590361,108.45 194.583133,108.45 L219.277108,108.45 C223.26988,108.45 226.506024,105.213129 226.506024,101.22 C226.506024,97.226871 223.26988,93.99 219.277108,93.99 Z" stroke="none" fill="#5E5C64" fill-rule="nonzero"></path>
                        <path d="M231.325301,53.02 L192.173494,53.02 C189.510843,53.02 187.354217,55.177914 187.354217,57.84 C187.354217,60.502086 189.510843,62.66 192.173494,62.66 L231.325301,62.66 C233.985542,62.66 236.144578,60.502086 236.144578,57.84 C236.144578,55.177914 233.985542,53.02 231.325301,53.02 Z" stroke="none" fill="#5E5C64" fill-rule="nonzero"></path>
                        <path d="M192.771084,9.64 L106.024096,9.64 C98.0385542,9.64 91.5662651,16.113983 91.5662651,24.1 L91.5662651,106.04 C91.5662651,114.02674 98.0385542,120.5 106.024096,120.5 L192.771084,120.5 C200.756627,120.5 207.228916,114.02674 207.228916,106.04 L207.228916,24.1 C207.228916,16.113983 200.756627,9.64 192.771084,9.64 Z" stroke="none" fill="#DEDDDA" fill-rule="nonzero"></path>
                        <path d="M187.951807,9.64 L101.204819,9.64 C93.2192771,9.64 86.746988,16.113983 86.746988,24.1 L86.746988,106.04 C86.746988,114.02674 93.2192771,120.5 101.204819,120.5 L187.951807,120.5 C195.937349,120.5 202.409639,114.02674 202.409639,106.04 L202.409639,24.1 C202.409639,16.113983 195.937349,9.64 187.951807,9.64 Z" stroke="none" fill="#F6F5F4" fill-rule="nonzero"></path>
                        <path d="M144.578313,101.22 C159.216867,101.22 171.084337,89.350991 171.084337,74.71 C171.084337,60.069009 159.216867,48.2 144.578313,48.2 C129.939759,48.2 118.072289,60.069009 118.072289,74.71 C118.072289,89.350991 129.939759,101.22 144.578313,101.22 Z" stroke="#C0BFBC" stroke-width="4" fill="none" stroke-linecap="round" stroke-linejoin="round"></path>
                        <path d="M134.939759,38.56 L67.4698795,38.56 C59.4843373,38.56 53.0120482,45.033983 53.0120482,53.02 L53.0120482,106.04 C53.0120482,114.02674 59.4843373,120.5 67.4698795,120.5 L134.939759,120.5 C142.925301,120.5 149.39759,114.02674 149.39759,106.04 L149.39759,53.02 C149.39759,45.033983 142.925301,38.56 134.939759,38.56 Z" stroke="none" fill="#241F31" fill-rule="nonzero"></path>
                        <path d="M130.120482,38.56 L62.6506024,38.56 C54.6650602,38.56 48.1927711,45.033983 48.1927711,53.02 L48.1927711,106.04 C48.1927711,114.02674 54.6650602,120.5 62.6506024,120.5 L130.120482,120.5 C138.106024,120.5 144.578313,114.02674 144.578313,106.04 L144.578313,53.02 C144.578313,45.033983 138.106024,38.56 130.120482,38.56 Z" stroke="none" fill="#3D3846" fill-rule="nonzero"></path>
                        <path d="M96.3855422,24.1 L19.2771084,24.1 C11.2922892,24.1 4.81927711,30.573983 4.81927711,38.56 L4.81927711,106.04 C4.81927711,114.02674 11.2922892,120.5 19.2771084,120.5 L96.3855422,120.5 C104.371084,120.5 110.843373,114.02674 110.843373,106.04 L110.843373,38.56 C110.843373,30.573983 104.371084,24.1 96.3855422,24.1 Z" stroke="none" fill="#DEDDDA" fill-rule="nonzero"></path>
                        <path d="M91.5662651,24.1 L14.4578313,24.1 C6.47301205,24.1 0,30.573983 0,38.56 L0,106.04 C0,114.02674 6.47301205,120.5 14.4578313,120.5 L91.5662651,120.5 C99.5518072,120.5 106.024096,114.02674 106.024096,106.04 L106.024096,38.56 C106.024096,30.573983 99.5518072,24.1 91.5662651,24.1 Z" stroke="none" fill="#F6F5F4" fill-rule="nonzero"></path>
                        <path d="M67.4698795,57.84 L9.63855422,57.84 C6.97686747,57.84 4.81927711,59.997914 4.81927711,62.66 C4.81927711,65.322086 6.97686747,67.48 9.63855422,67.48 L67.4698795,67.48 C70.1325301,67.48 72.2891566,65.322086 72.2891566,62.66 C72.2891566,59.997914 70.1325301,57.84 67.4698795,57.84 Z" stroke="none" fill="#C0BFBC" fill-rule="nonzero"></path>
                        <path d="M53.0120482,77.12 L24.0963855,77.12 C20.1038554,77.12 16.8674699,80.356871 16.8674699,84.35 C16.8674699,88.343129 20.1038554,91.58 24.0963855,91.58 L53.0120482,91.58 C57.0048193,91.58 60.2409639,88.343129 60.2409639,84.35 C60.2409639,80.356871 57.0048193,77.12 53.0120482,77.12 Z" stroke="none" fill="#3584E4" fill-rule="nonzero"></path>
                        <polygon stroke="none" fill-opacity="0.1" fill="#000000" fill-rule="nonzero" points="28.9156627 0 9.63855422 0 9.63855422 120.5 28.9156627 120.5"></polygon>
                        <path d="M132.53012,55.43 C135.192771,55.43 137.349398,53.272086 137.349398,50.61 C137.349398,47.947914 135.192771,45.79 132.53012,45.79 C129.86747,45.79 127.710843,47.947914 127.710843,50.61 C127.710843,53.272086 129.86747,55.43 132.53012,55.43 Z" stroke="none" fill-opacity="0.2" fill="#DEDDDA" fill-rule="nonzero"></path>
                        <path d="M173.493976,24.1 L115.662651,24.1 C113,24.1 110.843373,26.257914 110.843373,28.92 C110.843373,31.582086 113,33.74 115.662651,33.74 L173.493976,33.74 C176.156627,33.74 178.313253,31.582086 178.313253,28.92 C178.313253,26.257914 176.156627,24.1 173.493976,24.1 Z" stroke="none" fill="#C0BFBC" fill-rule="nonzero"></path>
                    </g>
                </g>
            </g>
            <g id="Clipped" transform="translate(231.3253, 274.74)">
                <mask id="mask-37b2mfg8ua-6" fill="white">
                    <use xlink:href="#path-37b2mfg8ua-5"></use>
                </mask>
                <g id="Path"></g>
                <g id="Group" mask="url(#mask-37b2mfg8ua-6)" fill-rule="nonzero">
                    <g transform="translate(-24.0964, 0)" id="Path">
                        <path d="M308.433735,43.38 L202.409639,43.38 C194.424096,43.38 187.951807,49.85326 187.951807,57.84 L187.951807,106.04 C187.951807,114.02674 194.424096,120.5 202.409639,120.5 L308.433735,120.5 C316.419277,120.5 322.891566,114.02674 322.891566,106.04 L322.891566,57.84 C322.891566,49.85326 316.419277,43.38 308.433735,43.38 Z" fill="#DEDDDA"></path>
                        <path d="M303.614458,43.38 L197.590361,43.38 C189.604819,43.38 183.13253,49.85326 183.13253,57.84 L183.13253,106.04 C183.13253,114.02674 189.604819,120.5 197.590361,120.5 L303.614458,120.5 C311.6,120.5 318.072289,114.02674 318.072289,106.04 L318.072289,57.84 C318.072289,49.85326 311.6,43.38 303.614458,43.38 Z" fill="#F6F5F4"></path>
                        <path d="M293.975904,60.25 L274.698795,60.25 C269.375904,60.25 265.060241,64.56631 265.060241,69.89 C265.060241,75.21369 269.375904,79.53 274.698795,79.53 L293.975904,79.53 C299.298795,79.53 303.614458,75.21369 303.614458,69.89 C303.614458,64.56631 299.298795,60.25 293.975904,60.25 Z" fill="#77767B"></path>
                        <path d="M293.975904,84.35 L274.698795,84.35 C269.375904,84.35 265.060241,88.66631 265.060241,93.99 C265.060241,99.31369 269.375904,103.63 274.698795,103.63 L293.975904,103.63 C299.298795,103.63 303.614458,99.31369 303.614458,93.99 C303.614458,88.66631 299.298795,84.35 293.975904,84.35 Z" fill="#3584E4"></path>
                        <path d="M274.698795,77.12 C278.691566,77.12 281.927711,73.88337 281.927711,69.89 C281.927711,65.89663 278.691566,62.66 274.698795,62.66 C270.706024,62.66 267.46988,65.89663 267.46988,69.89 C267.46988,73.88337 270.706024,77.12 274.698795,77.12 Z" fill="#FFFFFF"></path>
                        <path d="M293.975904,101.22 C297.968675,101.22 301.204819,97.98337 301.204819,93.99 C301.204819,89.99663 297.968675,86.76 293.975904,86.76 C289.983133,86.76 286.746988,89.99663 286.746988,93.99 C286.746988,97.98337 289.983133,101.22 293.975904,101.22 Z" fill="#FFFFFF"></path>
                        <path d="M260.240964,14.46 L183.13253,14.46 C175.146988,14.46 168.674699,20.93326 168.674699,28.92 L168.674699,106.04 C168.674699,114.02674 175.146988,120.5 183.13253,120.5 L260.240964,120.5 C268.226506,120.5 274.698795,114.02674 274.698795,106.04 L274.698795,28.92 C274.698795,20.93326 268.226506,14.46 260.240964,14.46 Z" fill="#DEDDDA"></path>
                        <path d="M255.421687,14.46 L178.313253,14.46 C170.327711,14.46 163.855422,20.93326 163.855422,28.92 L163.855422,106.04 C163.855422,114.02674 170.327711,120.5 178.313253,120.5 L255.421687,120.5 C263.407229,120.5 269.879518,114.02674 269.879518,106.04 L269.879518,28.92 C269.879518,20.93326 263.407229,14.46 255.421687,14.46 Z" fill="#F6F5F4"></path>
                        <path d="M250.60241,28.92 L183.13253,28.92 C180.46988,28.92 178.313253,31.07695 178.313253,33.74 L178.313253,77.12 C178.313253,79.78305 180.46988,81.94 183.13253,81.94 L250.60241,81.94 C253.26506,81.94 255.421687,79.78305 255.421687,77.12 L255.421687,33.74 C255.421687,31.07695 253.26506,28.92 250.60241,28.92 Z" fill="#9A9996"></path>
                        <path d="M231.325301,91.58 L190.361446,91.58 C187.698795,91.58 185.542169,93.73695 185.542169,96.4 C185.542169,99.06305 187.698795,101.22 190.361446,101.22 L231.325301,101.22 C233.987952,101.22 236.144578,99.06305 236.144578,96.4 C236.144578,93.73695 233.987952,91.58 231.325301,91.58 Z" fill="#C0BFBC"></path>
                        <path d="M192.771084,24.1 L120.481928,24.1 C112.496386,24.1 106.024096,30.57326 106.024096,38.56 L106.024096,106.04 C106.024096,114.02674 112.496386,120.5 120.481928,120.5 L192.771084,120.5 C200.756627,120.5 207.228916,114.02674 207.228916,106.04 L207.228916,38.56 C207.228916,30.57326 200.756627,24.1 192.771084,24.1 Z" fill="#DEDDDA"></path>
                        <path d="M187.951807,24.1 L115.662651,24.1 C107.677108,24.1 101.204819,30.57326 101.204819,38.56 L101.204819,106.04 C101.204819,114.02674 107.677108,120.5 115.662651,120.5 L187.951807,120.5 C195.937349,120.5 202.409639,114.02674 202.409639,106.04 L202.409639,38.56 C202.409639,30.57326 195.937349,24.1 187.951807,24.1 Z" fill="#F6F5F4"></path>
                        <path d="M183.13253,38.56 L163.855422,38.56 C161.192771,38.56 159.036145,40.71695 159.036145,43.38 L159.036145,62.66 C159.036145,65.32305 161.192771,67.48 163.855422,67.48 L183.13253,67.48 C185.795181,67.48 187.951807,65.32305 187.951807,62.66 L187.951807,43.38 C187.951807,40.71695 185.795181,38.56 183.13253,38.56 Z" fill="#C0BFBC"></path>
                        <path d="M139.759036,4.82 L62.6506024,4.82 C54.6650602,4.82 48.1927711,11.29326 48.1927711,19.28 L48.1927711,106.04 C48.1927711,114.02674 54.6650602,120.5 62.6506024,120.5 L139.759036,120.5 C147.744578,120.5 154.216867,114.02674 154.216867,106.04 L154.216867,19.28 C154.216867,11.29326 147.744578,4.82 139.759036,4.82 Z" fill="#DEDDDA"></path>
                        <path d="M134.939759,4.82 L57.8313253,4.82 C49.8457831,4.82 43.373494,11.29326 43.373494,19.28 L43.373494,106.04 C43.373494,114.02674 49.8457831,120.5 57.8313253,120.5 L134.939759,120.5 C142.925301,120.5 149.39759,114.02674 149.39759,106.04 L149.39759,19.28 C149.39759,11.29326 142.925301,4.82 134.939759,4.82 Z" fill="#F6F5F4"></path>
                        <path d="M125.301205,43.38 L67.4698795,43.38 C64.8072289,43.38 62.6506024,45.53695 62.6506024,48.2 L62.6506024,96.4 C62.6506024,99.06305 64.8072289,101.22 67.4698795,101.22 L125.301205,101.22 C127.963855,101.22 130.120482,99.06305 130.120482,96.4 L130.120482,48.2 C130.120482,45.53695 127.963855,43.38 125.301205,43.38 Z" fill="#C0BFBC"></path>
                        <path d="M120.481928,53.02 L19.2771084,53.02 C11.2922892,53.02 4.81927711,59.49326 4.81927711,67.48 L4.81927711,106.04 C4.81927711,114.02674 11.2922892,120.5 19.2771084,120.5 L120.481928,120.5 C128.46747,120.5 134.939759,114.02674 134.939759,106.04 L134.939759,67.48 C134.939759,59.49326 128.46747,53.02 120.481928,53.02 Z" fill="#241F31"></path>
                        <path d="M115.662651,53.02 L14.4578313,53.02 C6.47301205,53.02 0,59.49326 0,67.48 L0,106.04 C0,114.02674 6.47301205,120.5 14.4578313,120.5 L115.662651,120.5 C123.648193,120.5 130.120482,114.02674 130.120482,106.04 L130.120482,67.48 C130.120482,59.49326 123.648193,53.02 115.662651,53.02 Z" fill="#3D3846"></path>
                        <path d="M57.8313253,72.3 L48.1927711,72.3 C45.5301205,72.3 43.373494,74.45695 43.373494,77.12 L43.373494,96.4 C43.373494,99.06305 45.5301205,101.22 48.1927711,101.22 L57.8313253,101.22 C60.4939759,101.22 62.6506024,99.06305 62.6506024,96.4 L62.6506024,77.12 C62.6506024,74.45695 60.4939759,72.3 57.8313253,72.3 Z" fill="#5E5C64"></path>
                        <path d="M33.7349398,72.3 L21.9949398,72.3 C19.333494,72.3 17.1756627,74.45695 17.1756627,77.12 L17.1756627,96.4 C17.1756627,99.06305 19.333494,101.22 21.9949398,101.22 L33.7349398,101.22 C36.3975904,101.22 38.5542169,99.06305 38.5542169,96.4 L38.5542169,77.12 C38.5542169,74.45695 36.3975904,72.3 33.7349398,72.3 Z" fill="#5E5C64"></path>
                        <polygon fill-opacity="0.1" fill="#000000" points="28.9156627 0 12.0481928 0 12.0481928 120.5 28.9156627 120.5"></polygon>
                        <path d="M91.5662651,72.3 L72.2891566,72.3 C69.626506,72.3 67.4698795,74.45695 67.4698795,77.12 L67.4698795,96.4 C67.4698795,99.06305 69.626506,101.22 72.2891566,101.22 L91.5662651,101.22 C94.2289157,101.22 96.3855422,99.06305 96.3855422,96.4 L96.3855422,77.12 C96.3855422,74.45695 94.2289157,72.3 91.5662651,72.3 Z" fill="#5E5C64"></path>
                        <path d="M125.301205,24.1 L67.4698795,24.1 C64.8072289,24.1 62.6506024,26.25695 62.6506024,28.92 C62.6506024,31.58305 64.8072289,33.74 67.4698795,33.74 L125.301205,33.74 C127.963855,33.74 130.120482,31.58305 130.120482,28.92 C130.120482,26.25695 127.963855,24.1 125.301205,24.1 Z" fill="#C0BFBC"></path>
                        <path d="M115.662651,72.3 L106.024096,72.3 C103.361446,72.3 101.204819,74.45695 101.204819,77.12 L101.204819,96.4 C101.204819,99.06305 103.361446,101.22 106.024096,101.22 L115.662651,101.22 C118.325301,101.22 120.481928,99.06305 120.481928,96.4 L120.481928,77.12 C120.481928,74.45695 118.325301,72.3 115.662651,72.3 Z" fill="#5E5C64"></path>
                        <path d="M183.13253,77.12 L163.855422,77.12 C161.192771,77.12 159.036145,79.27695 159.036145,81.94 L159.036145,101.22 C159.036145,103.88305 161.192771,106.04 163.855422,106.04 L183.13253,106.04 C185.795181,106.04 187.951807,103.88305 187.951807,101.22 L187.951807,81.94 C187.951807,79.27695 185.795181,77.12 183.13253,77.12 Z" fill="#C0BFBC"></path>
                    </g>
                </g>
            </g>
            <polygon id="Path" fill="#9A9996" fill-rule="nonzero" points="616.86747 207.26 616.86747 265.1 636.144578 265.1 636.144578 207.26"></polygon>
            <path d="M615.46988,182.825974 C614.522892,182.853448 613.498795,183.324121 612.527711,184.346202 C609.195181,187.857813 607.231325,192.577557 607.228916,197.62 C607.245783,204.49091 610.918072,210.833548 616.86747,214.269003 L616.86747,231.36 L626.506024,231.36 L628.915663,231.36 L628.915663,204.299315 L626.506024,204.299315 C622.501205,204.299315 619.277108,201.074735 619.277108,197.069315 L619.277108,187.98 C619.277108,184.855917 617.554217,182.765242 615.46988,182.825974 Z" id="Path" fill="#F26600" fill-rule="nonzero"></path>
            <path d="M626.506024,294.02 C637.151807,294.02 645.783133,285.38738 645.783133,274.74 C645.783133,264.09262 637.151807,255.46 626.506024,255.46 C615.860241,255.46 607.228916,264.09262 607.228916,274.74 C607.228916,285.38738 615.860241,294.02 626.506024,294.02 Z" id="Path" fill="#77767B" fill-rule="nonzero"></path>
            <path d="M571.084337,101.22 L677.108434,101.22 C685.093976,101.22 691.566265,107.693983 691.566265,115.68 L691.566265,187.98 C691.566265,195.966017 685.093976,202.44 677.108434,202.44 L571.084337,202.44 C563.098795,202.44 556.626506,195.966017 556.626506,187.98 L556.626506,115.68 C556.626506,107.693983 563.098795,101.22 571.084337,101.22 Z" id="Path" fill="#DEDDDA" fill-rule="nonzero"></path>
            <path d="M575.903614,101.22 L681.927711,101.22 C689.913253,101.22 696.385542,107.693983 696.385542,115.68 L696.385542,187.98 C696.385542,195.966017 689.913253,202.44 681.927711,202.44 L575.903614,202.44 C567.918072,202.44 561.445783,195.966017 561.445783,187.98 L561.445783,115.68 C561.445783,107.693983 567.918072,101.22 575.903614,101.22 Z" id="Path" fill="#F6F5F4" fill-rule="nonzero"></path>
            <path d="M653.012048,168.7 L616.86747,168.7 C614.204819,168.7 612.048193,170.857914 612.048193,173.52 C612.048193,176.182086 614.204819,178.34 616.86747,178.34 L653.012048,178.34 C655.674699,178.34 657.831325,176.182086 657.831325,173.52 C657.831325,170.857914 655.674699,168.7 653.012048,168.7 Z" id="Path" fill="#C0BFBC" fill-rule="nonzero"></path>
            <path d="M653.012048,183.16 L616.86747,183.16 C614.204819,183.16 612.048193,185.317914 612.048193,187.98 C612.048193,190.642086 614.204819,192.8 616.86747,192.8 L653.012048,192.8 C655.674699,192.8 657.831325,190.642086 657.831325,187.98 C657.831325,185.317914 655.674699,183.16 653.012048,183.16 Z" id="Path" fill="#C0BFBC" fill-rule="nonzero"></path>
            <path d="M633.73494,187.980482 L633.73494,197.069797 C633.73494,201.075217 630.510843,204.299797 626.506024,204.299797 L626.506024,214.490482 L626.506024,231.360482 L636.144578,231.360482 L636.144578,214.269244 C642.093976,210.83403 645.766265,204.491392 645.783133,197.620482 C645.780723,192.577798 643.816867,187.8595 640.484337,184.347889 C637.378313,181.077278 633.73494,183.436427 633.73494,187.980482 Z" id="Path" fill="#FF7800" fill-rule="nonzero"></path>
            <path d="M643.373494,113.27 L614.457831,113.27 C611.795181,113.27 609.638554,115.427914 609.638554,118.09 L609.638554,139.78 C609.638554,142.442086 611.795181,144.6 614.457831,144.6 L643.373494,144.6 C646.036145,144.6 648.192771,142.442086 648.192771,139.78 L648.192771,118.09 C648.192771,115.427914 646.036145,113.27 643.373494,113.27 Z" id="Path" fill="#986A44" fill-rule="nonzero"></path>
            <path d="M641.007229,122.91 L640.920482,122.91 C639.614458,122.91 638.554217,123.969677 638.554217,125.276861 L638.554217,137.413139 C638.554217,138.720323 639.614458,139.78 640.920482,139.78 L641.007229,139.78 C642.313253,139.78 643.373494,138.720323 643.373494,137.413139 L643.373494,125.276861 C643.373494,123.969677 642.313253,122.91 641.007229,122.91 Z" id="Path" fill="#FF7800" fill-rule="nonzero"></path>
            <path d="M616.910843,118.09 L616.824096,118.09 C615.518072,118.09 614.457831,119.149677 614.457831,120.456861 L614.457831,132.593139 C614.457831,133.900323 615.518072,134.96 616.824096,134.96 L616.910843,134.96 C618.216867,134.96 619.277108,133.900323 619.277108,132.593139 L619.277108,120.456861 C619.277108,119.149677 618.216867,118.09 616.910843,118.09 Z" id="Path" fill="#33D17A" fill-rule="nonzero"></path>
            <path d="M628.959036,120.5 L628.872289,120.5 C627.566265,120.5 626.506024,121.559677 626.506024,122.866861 L626.506024,135.003139 C626.506024,136.310323 627.566265,137.37 628.872289,137.37 L628.959036,137.37 C630.26506,137.37 631.325301,136.310323 631.325301,135.003139 L631.325301,122.866861 C631.325301,121.559677 630.26506,120.5 628.959036,120.5 Z" id="Path" fill="#DEDDDA" fill-rule="nonzero"></path>
            <path d="M657.831325,149.42 L600,149.42 C597.337349,149.42 595.180723,151.577914 595.180723,154.24 C595.180723,156.902086 597.337349,159.06 600,159.06 L657.831325,159.06 C660.493976,159.06 662.650602,156.902086 662.650602,154.24 C662.650602,151.577914 660.493976,149.42 657.831325,149.42 Z" id="Path" fill="#C0BFBC" fill-rule="nonzero"></path>
            <path d="M602.409639,178.34 C605.072289,178.34 607.228916,176.182086 607.228916,173.52 C607.228916,170.857914 605.072289,168.7 602.409639,168.7 C599.746988,168.7 597.590361,170.857914 597.590361,173.52 C597.590361,176.182086 599.746988,178.34 602.409639,178.34 Z" id="Path" fill="#C0BFBC" fill-rule="nonzero"></path>
            <path d="M602.409639,192.8 C605.072289,192.8 607.228916,190.642086 607.228916,187.98 C607.228916,185.317914 605.072289,183.16 602.409639,183.16 C599.746988,183.16 597.590361,185.317914 597.590361,187.98 C597.590361,190.642086 599.746988,192.8 602.409639,192.8 Z" id="Path" fill="#C0BFBC" fill-rule="nonzero"></path>
        </g>
    </g>
</svg>
