<svg width="800" height="600" viewBox="0 0 800 600" fill="none" xmlns="http://www.w3.org/2000/svg">
<g clip-path="url(#clip0_275_155391)">
<path d="M137.415 171.533V172.38C137.415 186.436 142.999 199.916 152.938 209.855C162.877 219.794 176.357 225.378 190.413 225.378H217.529C220.735 225.378 223.809 226.651 226.076 228.918C228.342 231.185 229.616 234.259 229.616 237.464V242.419C229.616 244.006 229.303 245.578 228.696 247.044C228.088 248.511 227.198 249.843 226.076 250.965C224.953 252.088 223.621 252.978 222.155 253.585C220.688 254.193 219.117 254.505 217.529 254.505H90.7015C76.6455 254.505 63.1651 260.089 53.226 270.028C43.2869 279.967 37.7031 293.448 37.7031 307.504V308.35C37.7031 315.31 39.074 322.202 41.7374 328.632C44.4008 335.062 48.3046 340.905 53.226 345.826C58.1473 350.747 63.9898 354.651 70.4199 357.314C76.8499 359.978 83.7416 361.349 90.7015 361.349H124.422C127.628 361.349 130.702 362.622 132.969 364.889C135.235 367.155 136.509 370.23 136.509 373.435V376.457C136.509 378.044 136.196 379.615 135.589 381.082C134.981 382.548 134.091 383.881 132.969 385.003C131.846 386.125 130.514 387.015 129.048 387.623C127.581 388.23 126.009 388.543 124.422 388.543H117.896C110.936 388.543 104.044 389.914 97.614 392.577C91.184 395.241 85.3415 399.144 80.4201 404.066C75.4988 408.987 71.595 414.83 68.9315 421.26C66.2681 427.69 64.8973 434.581 64.8973 441.541V442.388C64.8973 449.348 66.2681 456.239 68.9315 462.669C71.595 469.099 75.4988 474.942 80.4201 479.863C85.3415 484.785 91.184 488.689 97.614 491.352C104.044 494.015 110.936 495.386 117.896 495.386H718.947C733.003 495.386 746.483 489.802 756.422 479.863C766.362 469.924 771.945 456.444 771.945 442.388V441.541C771.945 427.485 766.362 414.005 756.422 404.066C746.483 394.127 733.003 388.543 718.947 388.543H378.234C376.647 388.543 375.076 388.23 373.609 387.623C372.143 387.015 370.81 386.125 369.688 385.003C368.566 383.881 367.675 382.548 367.068 381.082C366.461 379.615 366.148 378.044 366.148 376.457V373.435C366.148 370.23 367.421 367.155 369.688 364.889C371.955 362.622 375.029 361.349 378.234 361.349H468.156C482.212 361.349 495.693 355.765 505.632 345.826C515.571 335.887 521.155 322.406 521.155 308.35V307.504C521.155 293.448 515.571 279.967 505.632 270.028C495.693 260.089 482.212 254.505 468.156 254.505H435.972C434.064 254.505 432.175 254.13 430.412 253.399C428.649 252.669 427.048 251.599 425.698 250.25C424.349 248.901 423.279 247.299 422.549 245.536C421.819 243.773 421.443 241.884 421.443 239.976V239.907C421.443 237.999 421.819 236.11 422.549 234.347C423.279 232.584 424.349 230.983 425.698 229.633C427.048 228.284 428.649 227.214 430.412 226.484C432.175 225.754 434.064 225.378 435.972 225.378H447.005C461.061 225.378 474.542 219.794 484.481 209.855C494.42 199.916 500.004 186.436 500.004 172.38V171.533C500.004 157.477 494.42 143.997 484.481 134.058C474.542 124.118 461.061 118.535 447.005 118.535H190.413C176.357 118.535 162.877 124.118 152.938 134.058C142.999 143.997 137.415 157.477 137.415 171.533Z" fill="url(#paint0_linear_275_155391)"/>
<path d="M400.764 539.542C468.933 539.542 524.195 484.28 524.195 416.111C524.195 347.941 468.933 292.679 400.764 292.679C332.594 292.679 277.332 347.941 277.332 416.111C277.332 484.28 332.594 539.542 400.764 539.542Z" fill="white"/>
<path d="M400.01 291.009C331.011 291.009 275 346.998 275 415.998C275 484.998 331.01 541.009 400.01 541.009C469.01 541.009 525 484.999 525 415.998C525 346.998 469.01 291.009 400.01 291.009ZM398.979 313.373C405.399 313.373 411.85 313.706 416.274 314.383C450.674 320.034 480.906 344.497 493.806 377.178C502.652 399.415 503.271 424.223 495.653 447.321C492.337 457.395 484.343 472.263 482.377 472.263C480.411 472.14 467.258 451.874 465.169 445.731C464.063 442.536 462.711 431.834 462.097 420.531C459.64 380.233 457.95 367.936 440.485 350.023C422.519 332.315 395.834 326.562 373.027 338.229C364.059 342.652 351.784 354.564 347.484 363.042C340.85 376.189 340.226 381.231 340.717 424.356L341.082 463.906L337.773 468.697C335.93 471.277 332.232 475.953 329.653 478.901L324.862 484.422L319.105 477.054C311.364 467.348 303.117 450.031 300.414 437.868C297.834 426.197 297.602 404.323 299.813 393.634C308.413 353.705 342.195 321.14 381.878 314.383C386.179 313.706 392.56 313.373 398.979 313.373ZM412.6 389.445C416.285 389.322 418.603 390.198 421.429 392.409C429.046 398.922 430.886 413.173 425.725 426.073L423.771 431.101L427.574 435.398C431.996 440.558 431.878 439.831 429.421 448.309C426.718 457.4 427.711 461.325 436.188 476.559C444.174 490.689 448.966 501.865 447.982 503.585C446.754 505.551 428.812 512.312 419.474 514.155C407.68 516.612 382.983 515.873 371.803 512.802C363.694 510.467 352.886 505.434 343.918 499.783L338.139 496.088L340.845 490.33C342.32 487.136 345.147 481.961 346.99 478.643C351.29 471.394 353.258 471.272 366.282 477.784C376.97 483.19 382.487 483.937 388.754 480.62C395.879 476.933 421.559 459.354 421.559 458.127C421.559 455.547 416.162 457.145 400.805 464.271C381.025 473.363 378.057 473.615 367.614 466.612C363.559 463.909 360.138 461.082 360.138 460.468C360.138 458.994 360.367 459.002 368.967 461.951C374.127 463.67 377.936 464.161 380.761 463.67C386.044 462.686 418.978 448.544 421.559 446.332C425.244 442.77 417.378 444.621 401.407 450.887C377.204 460.47 374.619 460.355 358.032 449.297C350.292 444.137 349.074 442.766 349.074 439.694C349.074 437.359 350.186 435.399 352.275 433.679L355.583 431.102L353.006 425.214C345.388 407.646 350.423 391.787 363.446 391.787C371.186 391.787 375.24 397.449 376.099 409.489L376.723 417.953H393.91L394.275 413.786C395.011 402.973 396.116 398.916 399.066 395.353C402.996 390.807 405.842 389.445 412.599 389.445L412.6 389.445ZM410.709 404.311C409.898 404.366 408.947 404.589 407.68 404.935C404.731 405.671 401.901 411.56 401.901 416.965C401.901 421.019 402.264 421.529 408.776 424.356C412.584 426.075 416.147 427.173 416.638 426.804C418.727 425.576 420.577 417.346 419.84 413.291C419.348 410.957 417.622 407.999 415.779 406.524C413.583 404.835 412.495 404.189 410.709 404.311ZM361.663 405.901C360.304 405.995 358.963 406.619 357.796 407.877C354.11 411.809 354.223 420.04 358.032 424.463L360.997 427.792L365.423 424.462C369.23 421.514 369.955 420.296 369.955 416.363C369.955 410.098 365.741 405.619 361.663 405.901Z" fill="#241F31"/>
<path d="M465.942 184.511V228.899C465.942 236.481 468.668 243.81 473.623 249.55C478.577 255.289 485.43 259.056 492.931 260.162L550.396 268.641V184.511H465.942ZM558.587 269.852L647.898 283.029C651.246 283.523 654.66 283.289 657.909 282.345C661.158 281.401 664.165 279.768 666.726 277.557C669.287 275.346 671.342 272.609 672.75 269.533C674.159 266.456 674.888 263.113 674.888 259.729V184.511H558.588L558.587 269.852Z" fill="url(#paint1_linear_275_155391)"/>
<path d="M674.888 176.319V102.35C674.888 98.9641 674.159 95.6181 672.751 92.539C671.343 89.46 669.288 86.7201 666.727 84.5055C664.166 82.2909 661.158 80.6536 657.908 79.7047C654.658 78.7558 651.242 78.5176 647.892 79.0063L558.588 92.0326V176.319H674.888ZM550.396 93.2278L492.937 101.61C485.438 102.704 478.583 106.461 473.626 112.193C468.669 117.926 465.941 125.251 465.941 132.829V176.319H550.396V93.2278Z" fill="#1862BB"/>
<path d="M674.888 168.127V94.158C674.888 90.7722 674.159 87.4262 672.751 84.3471C671.343 81.2681 669.288 78.5282 666.727 76.3136C664.166 74.0991 661.158 72.4617 657.908 71.5128C654.658 70.5639 651.242 70.3257 647.892 70.8144L558.588 83.8407V168.127H674.888ZM550.396 85.0359L492.937 93.4179C485.438 94.5119 478.583 98.2686 473.626 104.001C468.669 109.734 465.941 117.059 465.941 124.637V168.127H550.396V85.0359ZM465.942 176.319V220.707C465.942 228.289 468.668 235.618 473.623 241.358C478.577 247.097 485.43 250.864 492.931 251.97L550.396 260.449V176.319H465.942ZM558.587 261.66L647.898 274.837C651.246 275.331 654.66 275.097 657.909 274.153C661.158 273.209 664.165 271.576 666.726 269.365C669.287 267.154 671.342 264.417 672.75 261.341C674.159 258.264 674.888 254.921 674.888 251.537V176.319H558.588L558.587 261.66Z" fill="#99C1F1"/>
<path d="M287.26 85.5151H135.365C124.037 85.5151 114.854 94.6985 114.854 106.027V257.922C114.854 269.25 124.037 278.434 135.365 278.434H287.26C298.589 278.434 307.772 269.25 307.772 257.922V106.027C307.772 94.6985 298.589 85.5151 287.26 85.5151Z" fill="url(#paint2_linear_275_155391)"/>
<mask id="mask0_275_155391" style="mask-type:luminance" maskUnits="userSpaceOnUse" x="114" y="76" width="194" height="194">
<path d="M284.085 76.9292H138.541C125.459 76.9292 114.854 87.5344 114.854 100.616V246.16C114.854 259.243 125.459 269.848 138.541 269.848H284.085C297.167 269.848 307.772 259.243 307.772 246.16V100.616C307.772 87.5344 297.167 76.9292 284.085 76.9292Z" fill="white"/>
</mask>
<g mask="url(#mask0_275_155391)">
<path d="M307.772 76.9292H114.854V269.848H307.772V76.9292Z" fill="#3584E4"/>
<path d="M355.104 186.742C354.821 302.537 385.929 370.815 309.363 370.815C237.273 370.815 215.066 260.136 215.066 174.679L197.844 174.66C198.473 127.477 219.312 -48.5171 295.879 -48.5171C372.445 -48.5171 355.449 45.3538 355.167 161.149L355.104 186.742Z" fill="#99C1F1"/>
<path d="M166.537 204.379C191.154 234.038 241.304 232.289 261.188 204.379" stroke="black" stroke-width="6" stroke-linecap="round"/>
<path d="M172.621 140.741V154.226" stroke="black" stroke-width="8" stroke-linecap="round"/>
<path d="M250.621 140.741V154.226" stroke="black" stroke-width="8" stroke-linecap="round"/>
</g>
</g>
<defs>
<linearGradient id="paint0_linear_275_155391" x1="403.101" y1="232.449" x2="341.082" y2="463.906" gradientUnits="userSpaceOnUse">
<stop stop-color="#8FF0A4"/>
<stop offset="1" stop-color="#99C1F1"/>
</linearGradient>
<linearGradient id="paint1_linear_275_155391" x1="470.516" y1="262.426" x2="675.594" y2="262.426" gradientUnits="userSpaceOnUse">
<stop stop-color="#C5DBF7"/>
<stop offset="0.0804952" stop-color="#1B6FD4"/>
<stop offset="0.797733" stop-color="#175FB6"/>
<stop offset="0.93219" stop-color="#438DE7"/>
<stop offset="1" stop-color="#175CAF"/>
</linearGradient>
<linearGradient id="paint2_linear_275_155391" x1="117.866" y1="267.859" x2="308.441" y2="267.859" gradientUnits="userSpaceOnUse">
<stop stop-color="#C5DBF7"/>
<stop offset="0.0804952" stop-color="#1B6FD4"/>
<stop offset="0.797733" stop-color="#175FB6"/>
<stop offset="0.93219" stop-color="#438DE7"/>
<stop offset="1" stop-color="#175CAF"/>
</linearGradient>
<clipPath id="clip0_275_155391">
<rect width="800" height="600" fill="white"/>
</clipPath>
</defs>
</svg>
