
<svg width="800px" height="600px" viewBox="0 0 800 600" version="1.1" xmlns="http://www.w3.org/2000/svg" xmlns:xlink="http://www.w3.org/1999/xlink">
    <defs>
        <linearGradient x1="-629.155274%" y1="50.0012153%" x2="-729.155274%" y2="50.0012153%" id="linearGradient-1ff5hg41f6-1">
            <stop stop-color="#A51D2D" offset="0%"></stop>
            <stop stop-color="#ED333B" offset="100%"></stop>
        </linearGradient>
        <linearGradient x1="0%" y1="71.1179191%" x2="99.999995%" y2="71.1179191%" id="linearGradient-1ff5hg41f6-2">
            <stop stop-color="#26A269" offset="0%"></stop>
            <stop stop-color="#57E389" offset="4.54546%"></stop>
            <stop stop-color="#33D17A" offset="9.09091%"></stop>
            <stop stop-color="#33D17A" offset="92.1824%"></stop>
            <stop stop-color="#8FF0A4" offset="95.4545%"></stop>
            <stop stop-color="#26A269" offset="100%"></stop>
        </linearGradient>
        <linearGradient x1="0%" y1="33.3325232%" x2="100%" y2="33.3325232%" id="linearGradient-1ff5hg41f6-3">
            <stop stop-color="#1A724B" offset="0%"></stop>
            <stop stop-color="#2EC27E" offset="77.3247%"></stop>
            <stop stop-color="#1C764E" offset="100%"></stop>
        </linearGradient>
        <linearGradient x1="100%" y1="50.0012153%" x2="0%" y2="50.0012153%" id="linearGradient-1ff5hg41f6-4">
            <stop stop-color="#1A724B" offset="0%"></stop>
            <stop stop-color="#2EC27E" offset="77.3247%"></stop>
            <stop stop-color="#1C764E" offset="100%"></stop>
        </linearGradient>
        <linearGradient x1="0%" y1="49.9987847%" x2="100%" y2="49.9987847%" id="linearGradient-1ff5hg41f6-5">
            <stop stop-color="#26A269" offset="0%"></stop>
            <stop stop-color="#33D17A" offset="100%"></stop>
        </linearGradient>
        <linearGradient x1="-8.82168023%" y1="75.5534849%" x2="110.945696%" y2="104.353503%" id="linearGradient-1ff5hg41f6-6">
            <stop stop-color="#DFDEDB" offset="0%"></stop>
            <stop stop-color="#C5C4C2" offset="7.41744%"></stop>
            <stop stop-color="#AEADAB" offset="49.1585%"></stop>
            <stop stop-color="#E3E2DF" offset="58.0254%"></stop>
            <stop stop-color="#A0A09D" offset="68.2263%"></stop>
            <stop stop-color="#F4F3F1" offset="90.959%"></stop>
            <stop stop-color="#C0BFBC" offset="100%"></stop>
        </linearGradient>
        <radialGradient cx="58.7198361%" cy="84.4420731%" fx="58.7198361%" fy="84.4420731%" r="50.7869319%" gradientTransform="translate(0.5872, 0.8444), scale(1, 0.9993), rotate(-96.6306), translate(-0.5872, -0.8444)" id="radialGradient-1ff5hg41f6-7">
            <stop stop-color="#FFFEFB" offset="0%"></stop>
            <stop stop-color="#EFEDEA" offset="100%"></stop>
        </radialGradient>
        <radialGradient cx="55.9519195%" cy="72.9362324%" fx="55.9519195%" fy="72.9362324%" r="50.7610103%" gradientTransform="translate(0.5595, 0.7294), scale(1, 0.9993), rotate(-147.422), translate(-0.5595, -0.7294)" id="radialGradient-1ff5hg41f6-8">
            <stop stop-color="#FFFEFB" offset="0%"></stop>
            <stop stop-color="#EFEDEA" offset="100%"></stop>
        </radialGradient>
        <radialGradient cx="33.314401%" cy="12.5492455%" fx="33.314401%" fy="12.5492455%" r="209.031545%" gradientTransform="translate(0.3331, 0.1255), scale(1, 0.6995), rotate(90.3561), translate(-0.3331, -0.1255)" id="radialGradient-1ff5hg41f6-9">
            <stop stop-color="#F6E79D" offset="0%"></stop>
            <stop stop-color="#F6D32D" offset="43.4563%"></stop>
            <stop stop-color="#E5A50A" offset="78.2924%"></stop>
            <stop stop-color="#CFB227" offset="100%"></stop>
        </radialGradient>
        <radialGradient cx="47.1751126%" cy="24.3570597%" fx="47.1751126%" fy="24.3570597%" r="106.714676%" gradientTransform="translate(0.4718, 0.2436), scale(1, 0.9993), translate(-0.4718, -0.2436)" id="radialGradient-1ff5hg41f6-10">
            <stop stop-color="#F9F06B" offset="0%"></stop>
            <stop stop-color="#F9F06B" stop-opacity="0" offset="100%"></stop>
        </radialGradient>
        <linearGradient x1="5.69786868%" y1="49.2122933%" x2="82.1305624%" y2="49.1814838%" id="linearGradient-1ff5hg41f6-11">
            <stop stop-color="#F6D32D" offset="0%"></stop>
            <stop stop-color="#F6E8A8" offset="39.372%"></stop>
            <stop stop-color="#F6D32D" offset="100%"></stop>
        </linearGradient>
        <linearGradient x1="-4.11546775%" y1="54.9043887%" x2="106.628028%" y2="54.9043887%" id="linearGradient-1ff5hg41f6-12">
            <stop stop-color="#DFDEDB" offset="0%"></stop>
            <stop stop-color="#AEADAB" offset="19.3078%"></stop>
            <stop stop-color="#E3E2DF" offset="26.0985%"></stop>
            <stop stop-color="#C0BFBC" offset="33.0077%"></stop>
            <stop stop-color="#9C9B99" offset="87.5448%"></stop>
            <stop stop-color="#C0BFBC" offset="100%"></stop>
        </linearGradient>
        <radialGradient cx="44.7394107%" cy="78.0135816%" fx="44.7394107%" fy="78.0135816%" r="51.4153267%" gradientTransform="translate(0.4474, 0.7801), scale(1, 0.9993), rotate(82.857), translate(-0.4474, -0.7801)" id="radialGradient-1ff5hg41f6-13">
            <stop stop-color="#FFFEFB" offset="0%"></stop>
            <stop stop-color="#EFEDEA" offset="100%"></stop>
        </radialGradient>
    </defs>
    <g id="Page-1" stroke="none" stroke-width="1" fill="none" fill-rule="evenodd">
        <g id="Group" transform="translate(16, 80.5)">
            <path d="M768,148.697341 L637.714286,148.697341 L637.714286,415.142027 C637.714286,438.668901 661.224,438.668901 661.224,438.668901 L768,438.668901 L713.633143,281.819068 L768,148.697341 Z" id="Path" fill="#33D17A"></path>
            <path d="M661.224,238.196393 C674.208,238.196393 684.735429,248.72979 684.735429,261.723267 C684.735429,274.71846 674.208,285.251857 661.224,285.251857 C648.24,285.251857 637.714286,295.785255 637.714286,308.778732 L637.714286,261.723267 L637.714286,238.196393 L661.224,238.196393 Z" id="Path" fill="url(#linearGradient-1ff5hg41f6-1)" fill-rule="nonzero"></path>
            <path d="M0,148.697341 L130.285714,148.697341 L130.285714,415.142027 C130.285714,438.668901 106.775486,438.668901 106.775486,438.668901 L0,438.668901 L50.9388,281.819068 L0,148.697341 Z" id="Path" fill="#33D17A"></path>
            <path d="M106.777029,52.4279234 C93.7522286,52.4279234 83.2668,62.9210056 83.2668,75.9551411 L83.2668,368.086562 C83.2668,355.051912 93.7522286,344.559687 106.777029,344.559687 L661.225714,344.559687 C674.250857,344.559687 684.270857,355.051912 684.270857,368.086562 L684.735459,75.9551411 C684.756,62.9211771 674.250857,52.4279234 661.225714,52.4279234 L106.777029,52.4279234 Z" id="Path" fill="url(#linearGradient-1ff5hg41f6-2)" fill-rule="nonzero"></path>
            <path d="M106.777029,344.559687 C93.7926857,344.559687 83.2668,355.093085 83.2668,368.086562 C83.2668,381.081755 93.7926857,391.615152 106.777029,391.615152 C119.761714,391.615152 130.287429,402.148549 130.287429,415.142027 L130.287429,368.086562 L130.287429,344.559687 L106.777029,344.559687 Z" id="Path" fill="url(#linearGradient-1ff5hg41f6-3)" fill-rule="nonzero"></path>
            <path d="M660.809143,344.559687 C673.793143,344.559687 684.318857,355.093085 684.318857,368.086562 C684.318857,381.081755 673.793143,391.615152 660.809143,391.615152 C647.825143,391.615152 637.299429,402.148549 637.299429,415.142027 L637.299429,368.086562 L637.299429,344.559687 L660.809143,344.559687 Z" id="Path" fill="url(#linearGradient-1ff5hg41f6-4)" fill-rule="nonzero"></path>
            <path d="M660.809143,438.668901 C647.825143,438.668901 637.299429,428.135504 637.299429,415.142027 C637.299429,402.146834 647.825143,391.613437 660.809143,391.613437 C673.793143,391.613437 684.318857,381.080039 684.318857,368.086562 L684.318857,415.142027 L684.318857,438.668901 L660.809143,438.668901 Z" id="Path" fill="url(#linearGradient-1ff5hg41f6-5)" fill-rule="nonzero"></path>
            <path d="M508.350857,32.3518515 L464.245714,6.8692133 C456.937714,2.64712231 447.594857,5.15269843 443.376,12.4655867 L417.912,56.6026827 C413.691429,63.9156739 416.196,73.2665515 423.504,77.4886596 L467.609143,102.971246 C474.915429,107.193355 484.26,104.687813 488.478857,97.3748216 L513.942857,53.2376569 C518.161714,45.9248373 515.658857,36.5739597 508.350857,32.3518515 Z" id="Path" fill="url(#linearGradient-1ff5hg41f6-6)" fill-rule="nonzero"></path>
            <path d="M508.350857,27.5335943 L464.245714,2.0509732 C456.937714,-2.17113494 447.594857,0.334449754 443.376,7.64732942 L417.912,51.7844255 C413.691429,59.0974167 416.196,68.4482943 423.504,72.6704024 L467.609143,98.1529892 C474.915429,102.375097 484.26,99.8695555 488.478857,92.5567359 L513.942857,48.4195712 C518.161714,41.10658 515.658857,31.7557024 508.350857,27.5335943 Z" id="Path" fill="url(#radialGradient-1ff5hg41f6-7)" fill-rule="nonzero"></path>
            <polygon id="Path" fill="#000000" fill-rule="nonzero" points="442.143429 59.1953738 451.268571 64.4680768 460.028571 49.2842018 475.035429 57.9546975 479.324571 50.51956 464.317714 41.8490644 468.788571 34.1001553 485.436 43.7188282 489.714857 36.3020471 463.942286 21.4108427"></polygon>
            <path d="M417.229714,89.6173348 L373.124571,115.099922 C365.816571,119.32203 363.313714,128.673079 367.532571,135.985898 L392.996571,180.123749 C397.215429,187.435368 406.56,189.941768 413.866286,185.719831 L457.971429,160.236901 C465.279429,156.014793 467.782286,146.663744 463.563429,139.350924 L438.099429,95.2137596 C433.880571,87.90094 424.537714,85.3952266 417.229714,89.6173348 Z" id="Path" fill="#C0BFBC" fill-rule="nonzero"></path>
            <path d="M420.402857,86.9301176 L376.297714,112.412704 C368.991429,116.634813 366.486857,125.985862 370.705714,133.298681 L396.169714,177.435503 C400.388571,184.748837 409.733143,187.253521 417.041143,183.031585 L461.146286,157.549684 C468.452571,153.327576 470.957143,143.976527 466.738286,136.663707 L441.274286,92.5265424 C437.055429,85.2137228 427.710857,82.7080095 420.402857,86.9301176 Z" id="Path" fill="url(#radialGradient-1ff5hg41f6-8)" fill-rule="nonzero"></path>
            <polygon id="Path" fill="#000000" fill-rule="nonzero" points="403.066286 120.071719 392.778857 126.01554 415.090286 138.314225 414.282857 163.970596 424.681714 157.962957 424.8 141.806544 425.094857 141.636191 439.134857 149.611894 449.607429 143.561538 426.944571 131.465115 427.44 105.990077 417.226286 111.891181 417.144 127.854425 416.849143 128.024777"></polygon>
            <path d="M489.36,218.606676 L410.394857,297.629457 C400.404,307.627607 400.404,323.839431 410.394857,333.839297 C420.387429,343.839162 436.587429,343.839162 446.58,333.839297 L525.543429,254.818231 C535.536,244.818366 535.536,228.606541 525.543429,218.606676 C515.552571,208.608526 499.350857,208.608526 489.36,218.606676 Z" id="Path" stroke="#F8E45C" stroke-width="9.99998" stroke-linecap="round" stroke-linejoin="round"></path>
            <path d="M275.151429,218.606676 L354.114857,297.629457 C364.107429,307.627607 364.107429,323.839431 354.114857,333.839297 C344.124,343.839162 327.924,343.839162 317.931429,333.839297 L238.968,254.818231 C228.975429,244.818366 228.975429,228.606541 238.968,218.606676 C248.958857,208.608526 265.158857,208.608526 275.151429,218.606676 Z" id="Path" stroke="#F8E45C" stroke-width="9.99998" stroke-linecap="round" stroke-linejoin="round"></path>
            <path d="M282.411429,148.377394 L282.411429,269.566703 C282.411429,289.573295 288.402857,309.120124 299.610857,325.687065 C310.818857,342.254006 326.730857,355.07936 345.293143,362.511067 L351.346286,364.933405 C355.986857,366.791332 359.965714,369.99767 362.766857,374.138977 C365.569714,378.281999 367.068,383.167848 367.068,388.170354 L367.068,405.032367 L350.136,405.032367 C341.154857,405.032367 332.542286,408.6024 326.192571,414.958464 C319.841143,421.312813 316.273714,429.931671 316.273714,438.91937 L316.273714,439 L451.722857,439 L451.722857,438.91937 C451.722857,429.931671 448.155429,421.312813 441.804,414.958464 C435.454286,408.6024 426.841714,405.032367 417.860571,405.032367 L400.928571,405.032367 L400.928571,388.170354 C400.928571,383.167848 402.426857,378.281999 405.229714,374.138977 C408.030857,369.99767 412.009714,366.791332 416.650286,364.933405 C438.039429,355.250914 456.039429,339.375335 468.325714,319.356733 C480.613714,299.338132 486.625714,276.092605 485.585143,252.622343 L485.585143,148.377394 L282.411429,148.377394 Z" id="Path" fill="url(#radialGradient-1ff5hg41f6-9)" fill-rule="nonzero"></path>
            <path d="M384,327.510681 C421.402286,327.510681 451.724571,297.166262 451.724571,259.736675 C451.724571,222.305373 421.402286,191.96267 384,191.96267 C346.597714,191.96267 316.275429,222.305373 316.275429,259.736675 C316.275429,297.166262 346.597714,327.510681 384,327.510681 Z" id="Path" fill="url(#radialGradient-1ff5hg41f6-10)" fill-rule="nonzero"></path>
            <path d="M411.428571,299.103103 C406.167429,302.896156 389.88,286.33093 383.396571,286.303482 C376.908,286.276033 360.48,302.707447 355.246286,298.871506 C350.014286,295.035565 360.725143,274.416526 358.746857,268.235446 C356.768571,262.05265 336.077143,251.49352 338.105143,245.32788 C340.133143,239.163956 363.039429,242.986172 368.300571,239.19312 C373.565143,235.398352 377.206286,212.442751 383.693143,212.468463 C390.178286,212.492502 393.624,235.475551 398.854286,239.311492 C404.086286,243.149148 427.028571,239.520787 429.010286,245.701867 C430.990286,251.882947 410.213143,262.263661 408.183429,268.427586 C406.153714,274.593226 416.691429,295.30662 411.428571,299.103103 Z" id="Path" fill="#FFFFFF" fill-rule="nonzero"></path>
            <path d="M493.059429,134.018006 L273.948,134.018006 C269.273143,134.018006 265.482857,137.811058 265.482857,142.489842 C265.482857,147.168626 269.273143,150.961507 273.948,150.961507 L493.059429,150.961507 C497.734286,150.961507 501.524571,147.168626 501.524571,142.489842 C501.524571,137.811058 497.734286,134.018006 493.059429,134.018006 Z" id="Path" fill="#F9F06B" fill-rule="nonzero"></path>
            <path d="M282.411429,158.306236 L282.411429,148.377394 L485.585143,148.377394 L485.585143,158.383607 C485.585143,158.383607 414.546857,153.392766 378.970286,153.392766 C294.462857,153.392766 282.411429,158.306236 282.411429,158.306236 Z" id="Path" fill-opacity="0.101325" fill="#000000" fill-rule="nonzero"></path>
            <path d="M265.482857,142.490185 C265.482857,147.183552 269.259429,150.96185 273.948,150.96185 L493.059429,150.96185 C497.748,150.96185 501.524571,147.183552 501.524571,142.490185 L265.482857,142.490185 Z" id="Path" fill="#F5C211" fill-rule="nonzero"></path>
            <path d="M367.069714,405.032367 L350.137714,405.032367 C341.156571,405.032367 332.544,408.6024 326.194286,414.958464 C319.842857,421.312813 316.275429,429.931671 316.275429,438.91937 L316.275429,439 L451.724571,439 L451.724571,438.91937 C451.724571,429.931671 448.157143,421.312813 441.805714,414.958464 C435.456,408.6024 426.843429,405.032367 417.862286,405.032367 L400.930286,405.032367 L367.069714,405.032367 Z" id="Path" fill="url(#linearGradient-1ff5hg41f6-11)" fill-rule="nonzero"></path>
            <path d="M291.037714,48.0486721 L351.442286,32.0111459 C359.622857,29.8391045 367.517143,34.7735036 370.153714,42.8224601 L383.802857,84.4949128 C386.441143,92.5476435 384.982286,107.438333 372.531429,110.77694 L323.34,123.967704 C315.162857,126.159989 306.817714,121.338129 304.626857,113.15639 L291.445714,63.9276827 C289.254857,55.7459436 291.037714,48.0486721 291.037714,48.0486721 Z" id="Path" fill="url(#linearGradient-1ff5hg41f6-12)" fill-rule="nonzero"></path>
            <path d="M351.442286,23.2006625 L302.249143,36.3914265 C294.097714,38.5770207 289.261714,46.9608501 291.445714,55.1173708 L304.626857,104.345906 C306.810857,112.502427 315.188571,117.342815 323.338286,115.15722 L372.531429,101.966456 C380.681143,99.7810338 385.518857,91.3972044 383.334857,83.2406837 L370.153714,34.0121483 C367.969714,25.8556275 359.592,21.0152399 351.442286,23.2006625 Z" id="Path" fill="url(#radialGradient-1ff5hg41f6-13)" fill-rule="nonzero"></path>
            <path d="M327.617143,93.0549278 L346.513714,87.9877462 C355.829143,85.4900958 359.842286,79.0765607 358.018286,72.2653641 C356.386286,66.1743499 350.941714,63.5324229 345.781714,64.6734266 L345.670286,64.2618693 C350.038286,62.0541447 352.388571,57.828777 351.099429,53.0136078 C349.397143,46.6549698 343.352571,43.6665043 333.893143,46.2029258 L316.332,50.9117318 L327.617143,93.0549278 Z M335.597143,82.1151199 L332.907429,72.073224 L339.385714,70.3362427 C343.272,69.2942256 346.208571,70.7122884 347.072571,73.9431593 C347.871429,76.9268213 346.289143,79.2479429 341.888571,80.4278892 L335.597143,82.1151199 Z M331.150286,65.5088931 L328.676571,56.2693539 L334.476,54.7145627 C337.868571,53.8048134 340.494857,54.9749812 341.244,57.7735368 C342.037714,60.7366123 340.116,63.1047396 336.785143,63.9980197 L331.150286,65.5088931 Z" id="Shape" fill="#000000" fill-rule="nonzero"></path>
        </g>
    </g>
</svg>
