
<svg width="800px" height="600px" viewBox="0 0 800 600" version="1.1" xmlns="http://www.w3.org/2000/svg" xmlns:xlink="http://www.w3.org/1999/xlink">
    <defs>
        <linearGradient x1="34.8078261%" y1="18.9211538%" x2="34.8078261%" y2="95.1480769%" id="linearGradient-8b56xcpkkv-1">
            <stop stop-color="#F66151" offset="0%"></stop>
            <stop stop-color="#F6D32D" offset="100%"></stop>
        </linearGradient>
        <radialGradient cx="20.1328571%" cy="87.9982456%" fx="20.1328571%" fy="87.9982456%" r="122.161627%" gradientTransform="translate(0.2013, 0.88), scale(0.813, 1), rotate(180), translate(-0.2013, -0.88)" id="radialGradient-8b56xcpkkv-2">
            <stop stop-color="#3584E4" offset="0%"></stop>
            <stop stop-color="#C061CB" offset="100%"></stop>
        </radialGradient>
        <linearGradient x1="32.8148333%" y1="100%" x2="32.8148333%" y2="0%" id="linearGradient-8b56xcpkkv-3">
            <stop stop-color="#ED333B" offset="0%"></stop>
            <stop stop-color="#F66151" offset="100%"></stop>
        </linearGradient>
        <linearGradient x1="50%" y1="100%" x2="50%" y2="0%" id="linearGradient-8b56xcpkkv-4">
            <stop stop-color="#ED333B" offset="0%"></stop>
            <stop stop-color="#F76D5F" offset="100%"></stop>
        </linearGradient>
        <linearGradient x1="50%" y1="100%" x2="50%" y2="0%" id="linearGradient-8b56xcpkkv-5">
            <stop stop-color="#33D17A" offset="0%"></stop>
            <stop stop-color="#8FF0A4" offset="100%"></stop>
        </linearGradient>
        <radialGradient cx="50%" cy="30%" fx="50%" fy="30%" r="50.0794913%" gradientTransform="translate(0.5, 0.3), scale(0.9984, 1), translate(-0.5, -0.3)" id="radialGradient-8b56xcpkkv-6">
            <stop stop-color="#F8E45C" offset="0%"></stop>
            <stop stop-color="#F5C211" offset="100%"></stop>
        </radialGradient>
        <radialGradient cx="25%" cy="75%" fx="25%" fy="75%" r="66.772655%" gradientTransform="translate(0.25, 0.75), scale(0.7488, 1), translate(-0.25, -0.75)" id="radialGradient-8b56xcpkkv-7">
            <stop stop-color="#5E5C64" offset="0%"></stop>
            <stop stop-color="#241F31" offset="100%"></stop>
        </radialGradient>
        <radialGradient cx="50%" cy="30%" fx="50%" fy="30%" r="50.0794913%" gradientTransform="translate(0.5, 0.3), scale(0.9984, 1), translate(-0.5, -0.3)" id="radialGradient-8b56xcpkkv-8">
            <stop stop-color="#F8E45C" offset="0%"></stop>
            <stop stop-color="#F5C211" offset="100%"></stop>
        </radialGradient>
        <radialGradient cx="74.7023232%" cy="27.8094481%" fx="74.7023232%" fy="27.8094481%" r="48.6233838%" gradientTransform="translate(0.747, 0.2781), scale(0.799, 1), translate(-0.747, -0.2781)" id="radialGradient-8b56xcpkkv-9">
            <stop stop-color="#F66151" offset="0%"></stop>
            <stop stop-color="#E6272F" offset="60%"></stop>
            <stop stop-color="#E01B24" offset="100%"></stop>
        </radialGradient>
    </defs>
    <g id="Page-1" stroke="none" stroke-width="1" fill="none" fill-rule="evenodd">
        <g id="Group" transform="translate(-13, 41)">
            <g transform="translate(64.8529, 28.49)">
                <path d="M241.252941,108.78 L31.1294118,108.78 C13.9371565,108.78 0,122.695034 0,139.86 L0,259 C0,276.16393 13.9371565,290.08 31.1294118,290.08 L241.252941,290.08 C258.444159,290.08 272.382353,276.16393 272.382353,259 L272.382353,139.86 C272.382353,122.695034 258.444159,108.78 241.252941,108.78 Z" id="Path" fill="#C01C28" fill-rule="nonzero"></path>
                <path d="M241.252941,101.01 L31.1294118,101.01 C13.9371565,101.01 0,114.925034 0,132.09 L0,251.23 C0,268.39393 13.9371565,282.31 31.1294118,282.31 L241.252941,282.31 C258.444159,282.31 272.382353,268.39393 272.382353,251.23 L272.382353,132.09 C272.382353,114.925034 258.444159,101.01 241.252941,101.01 Z" id="Path" fill="#F66151" fill-rule="nonzero"></path>
                <path d="M500.664706,28.49 L199.747059,28.49 C182.554285,28.49 168.617647,42.405034 168.617647,59.57 L168.617647,178.71 C168.617647,195.874966 182.554285,209.79 199.747059,209.79 L500.664706,209.79 C517.855924,209.79 531.794118,195.874966 531.794118,178.71 L531.794118,59.57 C531.794118,42.405034 517.855924,28.49 500.664706,28.49 Z" id="Path" fill="#1C71D8" fill-rule="nonzero"></path>
                <path d="M251.629412,380.73 L487.694118,380.73 C504.885335,380.73 518.823529,393.48575 518.823529,409.22 C518.823529,424.95425 504.885335,437.71 487.694118,437.71 L251.629412,437.71 C234.4356,437.71 220.5,424.95425 220.5,409.22 C220.5,393.48575 234.4356,380.73 251.629412,380.73 Z" id="Path" fill="#E5A50A" fill-rule="nonzero"></path>
                <path d="M251.629412,295.26 L487.694118,295.26 C504.885335,295.26 518.823529,309.17607 518.823529,326.34 L518.823529,398.86 C518.823529,416.02393 504.885335,429.94 487.694118,429.94 L251.629412,429.94 C234.4356,429.94 220.5,416.02393 220.5,398.86 L220.5,326.34 C220.5,309.17607 234.4356,295.26 251.629412,295.26 Z" id="Path" fill="url(#linearGradient-8b56xcpkkv-1)" fill-rule="nonzero"></path>
                <path d="M394.305882,223.134457 C377.060188,223.134457 363.176471,236.99536 363.176471,254.21368 L363.176471,362.6 C363.176471,379.81832 377.060188,393.68 394.305882,393.68 L535.685294,393.68 L584.973529,442.89 L584.973529,393.68 L617.4,393.68 C634.645694,393.68 648.529412,379.81832 648.529412,362.6 L648.529412,254.21368 C648.529412,236.99536 634.645694,223.134457 617.4,223.134457 L394.305882,223.134457 Z" id="Path" fill="#62A0EA"></path>
                <path d="M363.176471,354.83 L363.176471,362.6 C363.176471,379.81832 377.060188,393.68 394.305882,393.68 L535.685294,393.68 L584.973529,442.89 L584.973529,435.12 L535.685294,385.91 L394.305882,385.91 C377.060188,385.91 363.176471,372.04832 363.176471,354.83 Z M648.529412,354.83 C648.529412,372.04832 634.645694,385.91 617.4,385.91 L584.973529,385.91 L584.973529,393.68 L617.4,393.68 C634.645694,393.68 648.529412,379.81832 648.529412,362.6 L648.529412,354.83 Z" id="Shape" fill="#3584E4"></path>
                <path d="M543.034429,222.74 L676.200865,222.74 C689.570947,222.74 700.411765,232.01738 700.411765,243.46 L700.411765,261.59 C700.411765,273.03262 689.570947,282.31 676.200865,282.31 L543.034429,282.31 C529.664347,282.31 518.823529,273.03262 518.823529,261.59 L518.823529,243.46 C518.823529,232.01738 529.664347,222.74 543.034429,222.74 Z" id="Path" fill="#1C71D8" fill-rule="nonzero"></path>
                <path d="M543.034429,126.91 L676.200865,126.91 C689.570947,126.91 700.411765,136.186603 700.411765,147.63 L700.411765,253.82 C700.411765,265.26262 689.570947,274.54 676.200865,274.54 L543.034429,274.54 C529.664347,274.54 518.823529,265.26262 518.823529,253.82 L518.823529,147.63 C518.823529,136.186603 529.664347,126.91 543.034429,126.91 Z" id="Path" fill="url(#radialGradient-8b56xcpkkv-2)" fill-rule="nonzero"></path>
                <path d="M95.9823529,204.61 C78.7369182,204.61 64.8529412,218.47168 64.8529412,235.69 L64.8529412,328.93 C64.8529412,346.14832 78.7369182,360.01 95.9823529,360.01 L155.646799,360.01 L155.646799,409.22 L204.935294,360.01 L383.929412,360.01 C401.175106,360.01 415.058824,346.14832 415.058824,328.93 L415.058824,235.69 C415.058824,218.47168 401.175106,204.61 383.929412,204.61 L95.9823529,204.61 Z" id="Path" fill="#3D3846"></path>
                <path d="M64.8529412,321.16 L64.8529412,328.93 C64.8529412,346.14832 78.7369182,360.01 95.9823529,360.01 L155.646799,360.01 L155.646799,352.24 L95.9823529,352.24 C78.7369182,352.24 64.8529412,338.37832 64.8529412,321.16 Z M415.058824,321.16 C415.058824,338.37832 401.175106,352.24 383.929412,352.24 L204.935294,352.24 L155.646799,401.45 L155.646799,409.22 L204.935294,360.01 L383.929412,360.01 C401.175106,360.01 415.058824,346.14832 415.058824,328.93 L415.058824,321.16 Z" id="Shape" fill="#241F31"></path>
                <polygon id="Path" fill="#77767B" fill-rule="nonzero" points="350.205882 243.46 129.705882 243.46 129.705882 256.41 350.205882 256.41"></polygon>
                <polygon id="Path" fill="#77767B" fill-rule="nonzero" points="350.205882 269.36 129.705882 269.36 129.705882 282.31 350.205882 282.31"></polygon>
                <polygon id="Path" fill="#77767B" fill-rule="nonzero" points="259.411765 295.26 129.705882 295.26 129.705882 308.21 259.411765 308.21"></polygon>
                <path d="M433.217647,305.62 L329.452941,305.62 C309.395224,305.62 293.135294,321.85412 293.135294,341.88 C293.135294,361.90588 309.395224,378.14 329.452941,378.14 L433.217647,378.14 C453.275365,378.14 469.535294,361.90588 469.535294,341.88 C469.535294,321.85412 453.275365,305.62 433.217647,305.62 Z" id="Path" fill="#DEDDDA" fill-rule="nonzero"></path>
                <path d="M433.217647,297.85 L329.452941,297.85 C309.395224,297.85 293.135294,314.08412 293.135294,334.11 C293.135294,354.13588 309.395224,370.37 329.452941,370.37 L433.217647,370.37 C453.275365,370.37 469.535294,354.13588 469.535294,334.11 C469.535294,314.08412 453.275365,297.85 433.217647,297.85 Z" id="Path" fill="#FFFFFF" fill-rule="nonzero"></path>
                <path d="M381.335294,344.47 C387.0657,344.47 391.711765,339.83131 391.711765,334.11 C391.711765,328.38869 387.0657,323.75 381.335294,323.75 C375.604888,323.75 370.958824,328.38869 370.958824,334.11 C370.958824,339.83131 375.604888,344.47 381.335294,344.47 Z" id="Path" fill="#5E5C64" fill-rule="nonzero"></path>
                <path d="M350.205882,344.47 C355.936288,344.47 360.582353,339.83131 360.582353,334.11 C360.582353,328.38869 355.936288,323.75 350.205882,323.75 C344.475476,323.75 339.829412,328.38869 339.829412,334.11 C339.829412,339.83131 344.475476,344.47 350.205882,344.47 Z" id="Path" fill="#5E5C64" fill-rule="nonzero"></path>
                <path d="M412.464706,344.47 C418.195112,344.47 422.841176,339.83131 422.841176,334.11 C422.841176,328.38869 418.195112,323.75 412.464706,323.75 C406.7343,323.75 402.088235,328.38869 402.088235,334.11 C402.088235,339.83131 406.7343,344.47 412.464706,344.47 Z" id="Path" fill="#5E5C64" fill-rule="nonzero"></path>
                <path d="M230.876471,7.77 L137.488235,7.77 C120.29598,7.77 106.358824,21.685034 106.358824,38.85 C106.358824,56.014966 120.29598,69.93 137.488235,69.93 L230.876471,69.93 C248.067688,69.93 262.005882,56.014966 262.005882,38.85 C262.005882,21.685034 248.067688,7.77 230.876471,7.77 Z" id="Path" fill="#C01C28" fill-rule="nonzero"></path>
                <path d="M230.876471,0 L137.488235,0 C120.29598,0 106.358824,13.915034 106.358824,31.08 C106.358824,48.244966 120.29598,62.16 137.488235,62.16 L230.876471,62.16 C248.067688,62.16 262.005882,48.244966 262.005882,31.08 C262.005882,13.915034 248.067688,0 230.876471,0 Z" id="Path" fill="url(#linearGradient-8b56xcpkkv-3)" fill-rule="nonzero"></path>
                <path d="M140.386384,22.642298 C141.116109,22.642298 141.811851,22.689436 142.47387,22.783971 C143.149378,22.878247 143.85861,23.046856 144.601825,23.289798 C145.358529,23.532481 146.054271,23.856231 146.689311,24.261048 C147.324351,24.652138 147.939157,25.171692 148.533469,25.819192 C149.128041,26.466692 149.627928,27.208468 150.033129,28.044779 C150.452079,28.88109 150.783088,29.899737 151.026416,31.100202 C151.269485,32.287458 151.391149,33.60266 151.391149,35.046067 C151.391149,36.9075 151.229017,38.614051 150.904752,40.165202 C150.593977,41.716612 150.154793,43.072218 149.587459,44.232279 C149.019866,45.39234 148.317379,46.424455 147.479739,47.328106 C146.642098,48.232016 145.736751,48.980785 144.763957,49.574154 C143.791163,50.167782 142.710194,50.660141 141.52131,51.051231 C140.332426,51.429112 139.123048,51.698731 137.893696,51.860606 C136.677574,52.022481 135.380515,52.103548 134.002519,52.103548 C133.097172,52.103548 132.219064,52.063144 131.367674,51.982077 L130.557012,51.901269 L130.942239,47.247298 L131.793369,47.328106 C132.360962,47.395705 133.070194,47.429375 133.921324,47.429375 C135.583115,47.429375 137.056055,47.30117 138.339365,47.045019 C139.622935,46.775141 140.663435,46.437923 141.460608,46.033106 C142.271269,45.628548 142.953522,45.109253 143.507366,44.475221 C144.074959,43.841189 144.49365,43.220625 144.763957,42.613529 C145.047754,42.006692 145.277333,41.311795 145.452955,40.529356 C143.615541,41.527801 141.548289,42.026894 139.251457,42.026894 C136.116985,42.026894 133.563335,41.163388 131.590768,39.436894 C129.631691,37.696673 128.652152,35.484295 128.652152,32.800019 C128.652152,31.423952 128.935689,30.122218 129.503282,28.894817 C130.070615,27.653689 130.854298,26.574436 131.854071,25.657317 C132.854104,24.739939 134.090201,24.011372 135.562881,23.471875 C137.049051,22.91891 138.656885,22.642298 140.386384,22.642298 Z M139.879752,27.134394 C138.244939,27.134394 136.792493,27.687359 135.522413,28.793548 C134.265822,29.899737 133.637527,31.127138 133.637527,32.476269 C133.637527,33.879013 134.286056,35.073003 135.583115,36.057721 C136.880174,37.042439 138.393582,37.534798 140.122821,37.534798 C141.83883,37.534798 143.304766,37.062641 144.520888,36.118327 C145.736751,35.160545 146.344812,34.020686 146.344812,32.69875 C146.344812,31.349878 145.696283,30.088548 144.399224,28.915019 C143.115655,27.727763 141.609251,27.134394 139.879752,27.134394 Z M170.056604,22.642298 C170.78607,22.642298 171.482072,22.689436 172.144091,22.783971 C172.819599,22.878247 173.528831,23.046856 174.272045,23.289798 C175.028749,23.532481 175.724492,23.856231 176.359532,24.261048 C176.994572,24.652138 177.609118,25.171692 178.20369,25.819192 C178.798262,26.466692 179.298148,27.208468 179.703349,28.044779 C180.122299,28.88109 180.453309,29.899737 180.696637,31.100202 C180.939706,32.287458 181.06137,33.60266 181.06137,35.046067 C181.06137,36.9075 180.899238,38.614051 180.574973,40.165202 C180.264198,41.716612 179.825014,43.072218 179.25768,44.232279 C178.690087,45.39234 177.9876,46.424455 177.149959,47.328106 C176.312059,48.232016 175.406972,48.980785 174.434178,49.574154 C173.461384,50.167782 172.380415,50.660141 171.191531,51.051231 C170.002646,51.429112 168.793269,51.698731 167.563916,51.860606 C166.347794,52.022481 165.050735,52.103548 163.67274,52.103548 C162.767393,52.103548 161.889284,52.063144 161.037895,51.982077 L160.227233,51.901269 L160.612459,47.247298 L161.463589,47.328106 C162.030923,47.395705 162.740414,47.429375 163.591544,47.429375 C165.253336,47.429375 166.726016,47.30117 168.009586,47.045019 C169.293155,46.775141 170.333656,46.437923 171.130828,46.033106 C171.94149,45.628548 172.623743,45.109253 173.177587,44.475221 C173.74518,43.841189 174.163871,43.220625 174.434178,42.613529 C174.717974,42.006692 174.947554,41.311795 175.123175,40.529356 C173.285762,41.527801 171.218509,42.026894 168.921678,42.026894 C165.787205,42.026894 163.233556,41.163388 161.260989,39.436894 C159.301911,37.696673 158.322372,35.484295 158.322372,32.800019 C158.322372,31.423952 158.605909,30.122218 159.173502,28.894817 C159.740836,27.653689 160.524519,26.574436 161.524292,25.657317 C162.524065,24.739939 163.760421,24.011372 165.233102,23.471875 C166.719272,22.91891 168.327106,22.642298 170.056604,22.642298 Z M169.549973,27.134394 C167.91516,27.134394 166.462714,27.687359 165.192634,28.793548 C163.936043,29.899737 163.307748,31.127138 163.307748,32.476269 C163.307748,33.879013 163.956277,35.073003 165.253336,36.057721 C166.550395,37.042439 168.063803,37.534798 169.793042,37.534798 C171.509051,37.534798 172.974986,37.062641 174.190849,36.118327 C175.406972,35.160545 176.015033,34.020686 176.015033,32.69875 C176.015033,31.349878 175.366504,30.088548 174.069445,28.915019 C172.785875,27.727763 171.279212,27.134394 169.549973,27.134394 Z M199.726306,22.642298 C200.455253,22.642298 201.153071,22.689436 201.814571,22.783971 C202.489041,22.878247 203.199829,23.046856 203.941747,23.289798 C204.699229,23.532481 205.394453,23.856231 206.030012,24.261048 C206.665571,24.652138 207.280376,25.171692 207.874429,25.819192 C208.468482,26.466692 208.969147,27.208468 209.373829,28.044779 C209.791482,28.88109 210.123529,29.899737 210.367376,31.100202 C210.608629,32.287458 210.730553,33.60266 210.730553,35.046067 C210.730553,36.9075 210.569718,38.614051 210.245453,40.165202 C209.934159,41.716612 209.495753,43.072218 208.927641,44.232279 C208.359529,45.39234 207.656524,46.424455 206.821218,47.328106 C205.983318,48.232016 205.077971,48.980785 204.105176,49.574154 C203.132382,50.167782 202.050635,50.660141 200.862529,51.051231 C199.671829,51.429112 198.462971,51.698731 197.233359,51.860606 C196.016718,52.022481 194.719659,52.103548 193.342701,52.103548 C192.437614,52.103548 191.559245,52.063144 190.708115,51.982077 L189.897454,51.901269 L190.28268,47.247298 L191.13381,47.328106 C191.701144,47.395705 192.410635,47.429375 193.261765,47.429375 C194.924594,47.429375 196.395459,47.30117 197.679547,47.045019 C198.963635,46.775141 200.003876,46.437923 200.800271,46.033106 C201.612229,45.628548 202.294482,45.109253 202.847029,44.475221 C203.415141,43.841189 203.835388,43.220625 204.105176,42.613529 C204.387935,42.006692 204.618812,41.311795 204.792618,40.529356 C202.955982,41.527801 200.888471,42.026894 198.592676,42.026894 C195.456388,42.026894 192.903776,41.163388 190.931209,39.436894 C188.972132,37.696673 187.992334,35.484295 187.992334,32.800019 C187.992334,31.423952 188.27613,30.122218 188.843723,28.894817 C189.411056,27.653689 190.194739,26.574436 191.194512,25.657317 C192.194285,24.739939 193.430642,24.011372 194.903841,23.471875 C196.390271,22.91891 197.998624,22.642298 199.726306,22.642298 Z M199.220453,27.134394 C197.586159,27.134394 196.133453,27.687359 194.862335,28.793548 C193.606264,29.899737 192.977968,31.127138 192.977968,32.476269 C192.977968,33.879013 193.626498,35.073003 194.924594,36.057721 C196.221653,37.042439 197.734024,37.534798 199.4643,37.534798 C201.179012,37.534798 202.644688,37.062641 203.861329,36.118327 C205.077971,35.160545 205.684994,34.020686 205.684994,32.69875 C205.684994,31.349878 205.036465,30.088548 203.739406,28.915019 C202.455318,27.727763 200.950729,27.134394 199.220453,27.134394 Z M226.054006,26.021471 L230.713041,26.021471 L230.713041,36.26 L240.869012,36.26 L240.869012,40.711692 L230.713041,40.711692 L230.713041,50.950221 L226.054006,50.950221 L226.054006,40.711692 L215.900629,40.711692 L215.900629,36.26 L226.054006,36.26 L226.054006,26.021471 Z" id="Shape" fill="#FFFFFF" fill-rule="nonzero"></path>
                <path d="M700.411765,295.26 C712.588553,295.26 722.461765,285.40246 722.461765,273.245 C722.461765,261.08754 712.588553,251.23 700.411765,251.23 C688.234976,251.23 678.361765,261.08754 678.361765,273.245 C678.361765,285.40246 688.234976,295.26 700.411765,295.26 Z" id="Path" fill="#C01C28" fill-rule="nonzero"></path>
                <path d="M722.461765,265.475 C722.461765,253.31754 712.588553,243.46 700.411765,243.46 C688.234976,243.46 678.361765,253.31754 678.361765,265.475 C678.361765,277.63246 688.234976,287.49 700.411765,287.49 C712.588553,287.49 722.461765,277.63246 722.461765,265.475 Z" id="Path" fill="url(#linearGradient-8b56xcpkkv-4)" fill-rule="nonzero"></path>
                <path d="M71.3382353,243.46 C87.8142547,243.46 101.170588,230.124867 101.170588,213.675 C101.170588,197.225133 87.8142547,183.89 71.3382353,183.89 C54.8622159,183.89 41.5058824,197.225133 41.5058824,213.675 C41.5058824,230.124867 54.8622159,243.46 71.3382353,243.46 Z" id="Path" fill="#26A269" fill-rule="nonzero"></path>
                <path d="M101.170588,205.905 C101.170588,189.455133 87.8142547,176.12 71.3382353,176.12 C54.8622159,176.12 41.5058824,189.455133 41.5058824,205.905 C41.5058824,222.354867 54.8622159,235.69 71.3382353,235.69 C87.8142547,235.69 101.170588,222.354867 101.170588,205.905 Z" id="Path" fill="url(#linearGradient-8b56xcpkkv-5)" fill-rule="nonzero"></path>
                <path d="M290.655318,385.87892 C287.921118,385.87892 285.352941,388.10891 285.352941,391.05892 L285.352941,406.59892 L259.411765,406.59892 C256.773547,406.59892 254.223529,409.00244 254.223529,411.40337 L259.276871,447.28005 C259.697118,450.64705 262.005882,453.21892 264.6,453.21892 L295.729412,453.21892 L295.729412,453.27849 L321.670588,453.27849 L321.670588,422.13892 L306.105882,422.13892 L296.468735,385.87892 L290.655318,385.87892 Z" id="Path" fill="#1A5FB4" fill-rule="nonzero"></path>
                <path d="M290.655318,380.69892 C287.921118,380.69892 285.352941,382.92891 285.352941,385.87892 L285.352941,401.41892 L259.411765,401.41892 C256.773547,401.41892 254.223529,403.82244 254.223529,406.22337 L259.276871,442.10005 C259.697118,445.46705 262.005882,448.03892 264.6,448.03892 L295.729412,448.03892 L295.729412,448.09849 L321.670588,448.09849 L321.670588,416.95892 L306.105882,416.95892 L296.468735,380.69892 L290.655318,380.69892 Z" id="Path" fill="#62A0EA" fill-rule="nonzero"></path>
                <path d="M228.282353,277.13 C271.264288,277.13 306.105882,242.34371 306.105882,199.43 C306.105882,156.517585 271.264288,121.73 228.282353,121.73 C185.301715,121.73 150.458824,156.517585 150.458824,199.43 C150.458824,242.34371 185.301715,277.13 228.282353,277.13 Z" id="Path" fill="url(#radialGradient-8b56xcpkkv-6)" fill-rule="nonzero"></path>
                <path d="M256.817647,160.58 L282.758824,160.58 C284.190776,160.58 285.352941,161.739543 285.352941,163.17 C285.352941,164.600457 284.190776,165.76 282.758824,165.76 L256.817647,165.76 C255.385694,165.76 254.223529,164.600457 254.223529,163.17 C254.223529,161.739543 255.385694,160.58 256.817647,160.58 Z" id="Path" fill="#241F31" fill-rule="nonzero"></path>
                <path d="M305.8776,193.653005 C304.707653,213.416518 296.027735,231.98889 281.604441,245.57862 C267.183741,259.16576 248.111788,266.74669 228.282353,266.77 C208.644882,266.76741 189.736878,259.35224 175.34601,246.01374 C160.955142,232.67524 152.146816,214.397869 150.686846,194.846995 C150.565701,196.371987 150.489694,197.900346 150.458824,199.43 C150.458824,209.633823 152.471859,219.737413 156.382751,229.164495 C160.293902,238.5908 166.026124,247.15593 173.252816,254.37167 C187.847582,268.94301 207.643553,277.13 228.282353,277.13 C238.503176,277.13 248.622829,275.12016 258.062824,271.21444 C267.505412,267.31131 276.084159,261.58741 283.311371,254.37167 C290.538582,247.15593 296.271582,238.5908 300.180918,229.164495 C304.092847,219.737413 306.105882,209.633823 306.105882,199.43 C306.100694,197.502263 306.025465,195.575303 305.8776,193.653005 Z" id="Path" fill="#E5A50A" fill-rule="nonzero"></path>
                <path d="M238.178912,200.712309 C238.178912,202.305159 237.719753,203.869778 236.850724,205.249212 C235.984288,206.628646 234.733924,207.774203 233.229335,208.570628 C231.724747,209.366794 230.017818,209.786115 228.279759,209.786115 C226.5417,209.786115 224.834771,209.366794 223.330182,208.570628 C221.825594,207.774203 220.577824,206.628646 219.708794,205.249212 C218.839765,203.869778 218.3832,202.305159 218.3832,200.712309" id="Path" stroke="#3D3846" stroke-width="2" stroke-linecap="round" stroke-linejoin="round"></path>
                <path d="M212.717647,160.58 L191.964706,160.58 C186.234041,160.58 181.588235,165.218431 181.588235,170.94 L181.588235,181.3 C181.588235,187.021569 186.234041,191.66 191.964706,191.66 L212.717647,191.66 C218.448053,191.66 223.094118,187.021569 223.094118,181.3 L223.094118,170.94 C223.094118,165.218431 218.448053,160.58 212.717647,160.58 Z" id="Path" fill="#241F31" fill-rule="nonzero"></path>
                <path d="M238.658824,173.53 C238.658824,171.711561 238.178912,169.924979 237.268376,168.35 C236.357841,166.775021 235.047812,165.46733 233.470588,164.557981 C231.893365,163.648632 230.103424,163.17 228.282353,163.17 C226.461282,163.17 224.671341,163.648632 223.094118,164.557981 C221.516894,165.46733 220.206865,166.775021 219.296329,168.35 C218.385794,169.924979 217.905882,171.711561 217.905882,173.53" id="Path" stroke="#241F31" stroke-width="2" stroke-linecap="round" stroke-linejoin="round"></path>
                <path d="M264.6,160.58 L243.847059,160.58 C238.116653,160.58 233.470588,165.218431 233.470588,170.94 L233.470588,181.3 C233.470588,187.021569 238.116653,191.66 243.847059,191.66 L264.6,191.66 C270.330406,191.66 274.976471,187.021569 274.976471,181.3 L274.976471,170.94 C274.976471,165.218431 270.330406,160.58 264.6,160.58 Z" id="Path" fill="#241F31" fill-rule="nonzero"></path>
                <path d="M212.717647,157.99 L191.964706,157.99 C186.234041,157.99 181.588235,162.628431 181.588235,168.35 L181.588235,178.71 C181.588235,184.431569 186.234041,189.07 191.964706,189.07 L212.717647,189.07 C218.448053,189.07 223.094118,184.431569 223.094118,178.71 L223.094118,168.35 C223.094118,162.628431 218.448053,157.99 212.717647,157.99 Z" id="Path" fill="url(#radialGradient-8b56xcpkkv-7)" fill-rule="nonzero"></path>
                <path d="M264.6,157.99 L243.847059,157.99 C238.116653,157.99 233.470588,162.628431 233.470588,168.35 L233.470588,178.71 C233.470588,184.431569 238.116653,189.07 243.847059,189.07 L264.6,189.07 C270.330406,189.07 274.976471,184.431569 274.976471,178.71 L274.976471,168.35 C274.976471,162.628431 270.330406,157.99 264.6,157.99 Z" id="Path" fill="url(#radialGradient-8b56xcpkkv-7)" fill-rule="nonzero"></path>
                <path d="M173.805882,160.58 L199.747059,160.58 C201.179012,160.58 202.341176,161.739543 202.341176,163.17 C202.341176,164.600457 201.179012,165.76 199.747059,165.76 L173.805882,165.76 C172.373151,165.76 171.211765,164.600457 171.211765,163.17 C171.211765,161.739543 172.373151,160.58 173.805882,160.58 Z" id="Path" fill="#241F31" fill-rule="nonzero"></path>
                <path d="M316.482353,69.93 C299.236659,69.93 285.352941,83.79168 285.352941,101.01 L285.352941,207.2 C285.352941,224.41832 299.236659,238.28 316.482353,238.28 L539.576471,238.28 C556.822165,238.28 570.705882,224.41832 570.705882,207.2 L570.705882,101.01 C570.705882,83.79168 556.822165,69.93 539.576471,69.93 L316.482353,69.93 Z" id="Path" fill="#FFFFFF"></path>
                <path d="M285.352941,199.43 L285.352941,207.2 C285.352941,224.41832 299.236659,238.28 316.482353,238.28 L390.414706,238.28 L439.702941,287.49 L439.702941,279.72 L390.414706,230.51 L316.482353,230.51 C299.236659,230.51 285.352941,216.64832 285.352941,199.43 Z M570.705882,199.43 C570.705882,216.64832 556.822165,230.51 539.576471,230.51 L439.702941,230.51 L439.702941,238.28 L539.576471,238.28 C556.822165,238.28 570.705882,224.41832 570.705882,207.2 L570.705882,199.43 Z" id="Shape" fill="#DEDDDA"></path>
                <polygon id="Path" fill="#DEDDDA" fill-rule="nonzero" points="518.823529 108.78 337.235294 108.78 337.235294 121.73 518.823529 121.73"></polygon>
                <polygon id="Path" fill="#DEDDDA" fill-rule="nonzero" points="518.823529 134.68 337.235294 134.68 337.235294 147.63 518.823529 147.63"></polygon>
                <polygon id="Path" fill="#DEDDDA" fill-rule="nonzero" points="490.288235 160.58 337.235294 160.58 337.235294 173.53 490.288235 173.53"></polygon>
                <polygon id="Path" fill="#FFFFFF" fill-rule="nonzero" points="439.702941 230.51 439.702941 279.72 390.414706 230.51"></polygon>
                <path d="M541.729588,376.68442 C563.219259,376.68442 580.641353,359.29257 580.641353,337.83442 C580.641353,316.37886 563.219259,298.98442 541.729588,298.98442 C520.239918,298.98442 502.817824,316.37886 502.817824,337.83442 C502.817824,359.29257 520.239918,376.68442 541.729588,376.68442 Z" id="Path" fill="url(#radialGradient-8b56xcpkkv-8)" fill-rule="nonzero"></path>
                <path d="M580.527212,334.94657 C579.943535,344.83001 575.600982,354.11516 568.391929,360.90873 C561.180282,367.70489 551.644306,371.49406 541.729588,371.50442 C531.910853,371.50442 522.457888,367.79813 515.261806,361.12629 C508.065724,354.45704 503.660912,345.31952 502.931965,335.54486 C502.8723,336.30632 502.833388,337.07037 502.817824,337.83442 C502.817824,342.93672 503.824341,347.98981 505.780306,352.70361 C507.736271,357.41741 510.602771,361.69868 514.213782,365.30655 C517.827388,368.91442 522.118059,371.77637 526.839353,373.72923 C531.560647,375.6795 536.619176,376.68442 541.729588,376.68442 C546.84,376.68442 551.898529,375.6795 556.619824,373.72923 C561.341118,371.77637 565.631788,368.91442 569.245394,365.30655 C572.859,361.69868 575.722906,357.41741 577.678871,352.70361 C579.634835,347.98981 580.641353,342.93672 580.641353,337.83442 C580.638759,336.87094 580.602441,335.90746 580.527212,334.94657 Z" id="Path" fill="#E5A50A" fill-rule="nonzero"></path>
                <path d="M546.676571,338.47933 C546.676571,339.27446 546.448288,340.05664 546.015071,340.74558 C545.579259,341.43711 544.956671,342.0095 544.201782,342.40836 C543.449488,342.80463 542.598618,343.01442 541.729588,343.01442 C540.860559,343.01442 540.007094,342.80463 539.2548,342.40836 C538.502506,342.0095 537.877324,341.43711 537.441512,340.74558 C537.008294,340.05664 536.780012,339.27446 536.780012,338.47933" id="Path" stroke="#3D3846" stroke-width="0.999997" stroke-linecap="round" stroke-linejoin="round"></path>
                <path d="M533.890165,317.11183 C532.536035,317.15068 531.251947,317.7153 530.310282,318.68396 L528.790129,320.2017 L527.272571,318.68396 C526.787471,318.18668 526.208982,317.793 525.568235,317.52364 C524.930082,317.25428 524.242641,317.11442 523.547418,317.11442 C522.517553,317.11701 521.508441,317.42263 520.652382,318.0002 C519.796324,318.57518 519.132229,319.39362 518.743112,320.34933 C518.353994,321.30504 518.260606,322.35399 518.473324,323.3615 C518.686041,324.36901 519.194488,325.29364 519.933812,326.01107 L526.958682,333.02479 L526.958682,333.01961 C527.446376,333.50394 528.105282,333.77848 528.792724,333.77848 C529.482759,333.77848 530.141665,333.50394 530.626765,333.01961 L537.649041,326.01107 C538.398741,325.28328 538.912376,324.34829 539.119906,323.32524 C539.330029,322.30219 539.223671,321.24029 538.816394,320.2794 C538.411712,319.31592 537.724271,318.50007 536.844865,317.93545 C535.965459,317.37083 534.935594,317.08334 533.890165,317.11183 Z" id="Path" fill="url(#radialGradient-8b56xcpkkv-9)" fill-rule="nonzero"></path>
                <path d="M559.831341,317.11183 C558.477212,317.15068 557.193124,317.7153 556.251459,318.68396 L554.731306,320.2017 L553.213747,318.68396 C552.728647,318.18668 552.150159,317.793 551.509412,317.52364 C550.871259,317.25428 550.183818,317.11442 549.488594,317.11442 C548.458729,317.11701 547.449618,317.42263 546.593559,318.0002 C545.7375,318.57518 545.073406,319.39362 544.684288,320.34933 C544.295171,321.30504 544.201782,322.35399 544.4145,323.3615 C544.627218,324.36901 545.135665,325.29364 545.874988,326.01107 L552.899859,333.02479 L552.899859,333.01961 C553.387553,333.50394 554.046459,333.77848 554.7339,333.77848 C555.423935,333.77848 556.082841,333.50394 556.567941,333.01961 L563.590218,326.01107 C564.339918,325.28328 564.853553,324.34829 565.061082,323.32524 C565.271206,322.30219 565.164847,321.24029 564.757571,320.2794 C564.352888,319.31592 563.665447,318.50007 562.786041,317.93545 C561.906635,317.37083 560.876771,317.08334 559.831341,317.11183 Z" id="Path" fill="url(#radialGradient-8b56xcpkkv-9)" fill-rule="nonzero"></path>
                <path d="M518.460353,321.32058 C518.299518,322.16233 518.348806,323.03257 518.605624,323.85101 C518.862441,324.66945 519.3216,325.41278 519.936406,326.01107 L526.961276,333.02479 L526.961276,333.01961 C527.448971,333.50653 528.107876,333.77848 528.795318,333.77848 C529.482759,333.77848 530.144259,333.50653 530.629359,333.01961 L537.649041,326.01107 C538.266441,325.41278 538.7256,324.67204 538.985012,323.8536 C539.241829,323.03257 539.293712,322.16492 539.132876,321.32058 C538.933129,322.36694 538.414306,323.32524 537.649041,324.06857 L530.629359,331.07711 C530.144259,331.56403 529.482759,331.83598 528.795318,331.83598 C528.107876,331.83598 527.448971,331.56403 526.961276,331.07711 L526.961276,331.08229 L519.936406,324.06857 C519.173735,323.32524 518.657506,322.36435 518.460353,321.32058 Z" id="Path" fill="#C01C28" fill-rule="nonzero"></path>
                <path d="M544.401529,321.32058 C544.240694,322.16233 544.289982,323.03257 544.5468,323.85101 C544.803618,324.66945 545.262776,325.41278 545.877582,326.01107 L552.902453,333.02479 L552.902453,333.01961 C553.390147,333.50653 554.049053,333.77848 554.736494,333.77848 C555.423935,333.77848 556.085435,333.50653 556.570535,333.01961 L563.590218,326.01107 C564.207618,325.41278 564.666776,324.67204 564.926188,323.8536 C565.183006,323.03257 565.234888,322.16492 565.074053,321.32058 C564.874306,322.36694 564.355482,323.32524 563.590218,324.06857 L556.570535,331.07711 C556.085435,331.56403 555.423935,331.83598 554.736494,331.83598 C554.049053,331.83598 553.390147,331.56403 552.902453,331.07711 L552.902453,331.08229 L545.877582,324.06857 C545.114912,323.32524 544.598682,322.36435 544.401529,321.32058 Z" id="Path" fill="#C01C28" fill-rule="nonzero"></path>
            </g>
        </g>
    </g>
</svg>
