
<svg width="800px" height="600px" viewBox="0 0 800 600" version="1.1" xmlns="http://www.w3.org/2000/svg" xmlns:xlink="http://www.w3.org/1999/xlink">
    <defs>
        <linearGradient x1="47.1572784%" y1="27.3958036%" x2="47.1572784%" y2="74.7134223%" id="linearGradient-01pd5zpkm--1">
            <stop stop-color="#051224" offset="0%"></stop>
            <stop stop-color="#3584E4" offset="100%"></stop>
        </linearGradient>
        <path d="M90.1410751,45.0294685 C90.1410751,103.088887 45.0712538,184.234102 45.0712538,184.234102 C45.0712538,184.234102 0,103.221992 0,45.0294685 C0,20.1603551 20.179063,0 45.0712538,0 C69.962012,0 90.1410751,20.1603551 90.1410751,45.0294685 Z" id="path-01pd5zpkm--2"></path>
        <linearGradient x1="49.9419926%" y1="17.9376029%" x2="49.9419926%" y2="116.897393%" id="linearGradient-01pd5zpkm--4">
            <stop stop-color="#E01B24" offset="0%"></stop>
            <stop stop-color="#E01B24" stop-opacity="0" offset="100%"></stop>
        </linearGradient>
        <radialGradient cx="50.0016616%" cy="50.0012462%" fx="50.0016616%" fy="50.0012462%" r="50.047063%" gradientTransform="translate(0.5, 0.5), scale(0.9991, 1), translate(-0.5, -0.5)" id="radialGradient-01pd5zpkm--5">
            <stop stop-color="#E5A50A" offset="0%"></stop>
            <stop stop-color="#E5A50A" stop-opacity="0" offset="100%"></stop>
        </radialGradient>
        <radialGradient cx="49.9965108%" cy="49.9951151%" fx="49.9965108%" fy="49.9951151%" r="50.0461184%" gradientTransform="translate(0.5, 0.5), scale(0.9991, 1), translate(-0.5, -0.5)" id="radialGradient-01pd5zpkm--6">
            <stop stop-color="#FFFFFF" offset="0%"></stop>
            <stop stop-color="#FFFFFF" stop-opacity="0" offset="100%"></stop>
        </radialGradient>
        <linearGradient x1="59.5552031%" y1="83.2880183%" x2="59.5552031%" y2="35.1943397%" id="linearGradient-01pd5zpkm--7">
            <stop stop-color="#EEF4FC" offset="0%"></stop>
            <stop stop-color="#FFFFFF" offset="100%"></stop>
        </linearGradient>
        <path d="M52.315718,0 C23.4223826,0 0,21.998059 0,49.1371087 C0.0128930546,59.9486465 6.45225756,72.3216602 17.78382,83.6441484 L37.4872726,102.962938 L67.9635886,102.962938 L86.9163789,83.5353747 C97.2795297,73.1818315 104.609947,59.8956909 104.631436,49.1371087 C104.631436,21.998059 81.2090534,0 52.315718,0 Z" id="path-01pd5zpkm--8"></path>
        <radialGradient cx="49.485877%" cy="33.0710158%" fx="49.485877%" fy="33.0710158%" r="76.1866793%" gradientTransform="translate(0.4949, 0.3307), scale(1, 0.9264), rotate(89.821), translate(-0.4949, -0.3307)" id="radialGradient-01pd5zpkm--10">
            <stop stop-color="#FFFFFF" offset="0%"></stop>
            <stop stop-color="#FFFFFF" offset="51.9%"></stop>
            <stop stop-color="#CFCFCF" offset="73.4%"></stop>
            <stop stop-color="#DCDCDC" offset="100%"></stop>
        </radialGradient>
        <radialGradient cx="75.415874%" cy="27.5027879%" fx="75.415874%" fy="27.5027879%" r="238.575303%" gradientTransform="translate(0.7542, 0.275), scale(1, 0.3134), translate(-0.7542, -0.275)" id="radialGradient-01pd5zpkm--11">
            <stop stop-color="#ED686F" offset="0%"></stop>
            <stop stop-color="#A51D2D" offset="86.5%"></stop>
            <stop stop-color="#E01B24" offset="100%"></stop>
        </radialGradient>
        <radialGradient cx="52.3304766%" cy="17.3899802%" fx="52.3304766%" fy="17.3899802%" r="174.029191%" gradientTransform="translate(0.5233, 0.1739), scale(1, 0.4771), rotate(77.7827), translate(-0.5233, -0.1739)" id="radialGradient-01pd5zpkm--12">
            <stop stop-color="#ED686F" offset="0%"></stop>
            <stop stop-color="#A51D2D" offset="91.1%"></stop>
            <stop stop-color="#E01B24" offset="100%"></stop>
        </radialGradient>
        <radialGradient cx="45.1293064%" cy="17.8383849%" fx="45.1293064%" fy="17.8383849%" r="155.129755%" gradientTransform="translate(0.4513, 0.1784), scale(1, 0.5323), rotate(102.217), translate(-0.4513, -0.1784)" id="radialGradient-01pd5zpkm--13">
            <stop stop-color="#ED686F" offset="0%"></stop>
            <stop stop-color="#A51D2D" offset="91.1%"></stop>
            <stop stop-color="#E01B24" offset="100%"></stop>
        </radialGradient>
        <linearGradient x1="33.3333333%" y1="100%" x2="33.3333333%" y2="0%" id="linearGradient-01pd5zpkm--14">
            <stop stop-color="#EEF4FC" offset="0%"></stop>
            <stop stop-color="#FFFFFF" offset="100%"></stop>
        </linearGradient>
    </defs>
    <g id="Page-1" stroke="none" stroke-width="1" fill="none" fill-rule="evenodd">
        <g id="Group" transform="translate(0, 86.5)">
            <path d="M94.5334523,427 C69.6558736,427 50.0472566,407.409276 50.0472566,382.554475 C50.0472566,357.702536 69.6573062,338.10895 94.5320197,338.10895 L145.472622,338.10895 C152.793012,338.033094 158.688003,332.082025 158.688003,324.768422 C158.688003,317.454819 152.793012,311.50375 145.472622,311.427895 C120.596189,311.427895 100.985137,291.841464 100.985137,266.988094 C100.985137,248.165942 112.384746,232.435255 128.58845,225.832975 C142.140483,220.299826 138.185181,200.156646 123.544401,200.143765 L44.4861957,200.143765 C19.6101928,200.143765 0,180.553041 0,155.699671 C0,130.845442 19.6101928,111.25343 44.4861957,111.25343 L260.086147,111.25343 C274.035,110.489437 277.587752,91.0276674 264.296446,85.6005731 C248.095606,78.9988654 236.696713,63.2700386 236.696713,44.4464555 C236.696713,19.5919407 256.305617,0 281.18205,0 L745.724538,0 C770.60097,0 790.209874,19.5919407 790.209874,44.4464555 C790.209874,69.2995391 770.60097,88.889977 745.724538,88.889977 L666.662894,88.889977 C652.022114,88.905005 648.069677,109.047183 661.62171,114.580046 C677.826847,121.181897 689.224307,136.912012 689.224307,155.73402 C689.224307,180.58739 669.612539,200.178114 644.737539,200.178114 C637.45726,200.308357 631.623869,206.242251 631.623869,213.517211 C631.623869,220.790739 637.45726,226.724633 644.737539,226.854876 L755.514664,226.854876 C780.391096,226.854876 800,246.448462 800,271.301832 C800,296.155202 780.391096,315.747357 755.514664,315.747357 C842.243377,314.424898 352.595247,315.721595 352.595247,315.721595 C337.798318,315.721595 338.19657,338.10895 352.812996,338.10895 C377.689429,338.10895 401.012964,357.703967 401.012964,382.554475 C401.012964,407.407845 381.401196,427 356.524763,427 L94.5334523,427 Z" id="Path" fill="url(#linearGradient-01pd5zpkm--1)" fill-rule="nonzero"></path>
            <path d="M509.982197,6.97586072 C496.050535,6.97586072 482.580158,15.0174322 472.010718,29.6396293 C461.442711,44.2618264 454.476164,64.4986094 452.371731,86.6828718 L452.446224,86.6828718 C451.973479,89.6797317 451.721348,92.751445 451.721348,95.8851308 L451.721348,184.626331 C451.721348,216.877747 477.710881,242.843185 509.992225,242.843185 L509.996522,242.843185 C542.279299,242.843185 568.267399,216.877747 568.267399,184.626331 L568.267399,95.8851308 C568.267399,92.751445 568.015268,89.6797317 567.542523,86.6828718 L567.599825,86.6828718 C565.496825,64.4967488 558.527413,44.2585346 547.957973,29.6361944 C537.388533,15.013711 523.915291,6.97586072 509.982197,6.97586072 Z" id="Path" fill="#000000" fill-rule="nonzero" opacity="0.154797"></path>
            <g id="Clipped" transform="translate(463.2879, 220.9911)">
                <mask id="mask-01pd5zpkm--3" fill="white">
                    <use xlink:href="#path-01pd5zpkm--2"></use>
                </mask>
                <g id="Path"></g>
                <g id="Group" mask="url(#mask-01pd5zpkm--3)" fill-rule="nonzero">
                    <g transform="translate(-41.1446, -60.2707)" id="Path">
                        <path d="M131.285677,105.300143 C131.285677,163.359561 86.2158562,244.504776 86.2158562,244.504776 C86.2158562,244.504776 41.1446024,163.492666 41.1446024,105.300143 C41.1446024,80.4310292 61.3236655,60.2706741 86.2158562,60.2706741 C111.106614,60.2706741 131.285677,80.4310292 131.285677,105.300143 Z" fill="url(#linearGradient-01pd5zpkm--4)"></path>
                        <path d="M86.2144237,172.267558 C133.829907,172.267558 172.428847,133.704403 172.428847,86.1344947 C172.428847,38.5631555 133.829907,0 86.2144237,0 C38.600373,0 0,38.5631555 0,86.1344947 C0,133.704403 38.600373,172.267558 86.2144237,172.267558 Z" fill="url(#radialGradient-01pd5zpkm--5)"></path>
                        <path d="M86.2144237,137.407004 C114.559088,137.407004 137.535944,114.45145 137.535944,86.1344947 C137.535944,57.8161086 114.559088,34.8605545 86.2144237,34.8605545 C57.8711919,34.8605545 34.894336,57.8161086 34.894336,86.1344947 C34.894336,114.45145 57.8711919,137.407004 86.2144237,137.407004 Z" fill="url(#radialGradient-01pd5zpkm--6)"></path>
                        <path d="M86.2144237,104.216699 C96.2094061,104.216699 104.313407,96.1202109 104.313407,86.1344947 C104.313407,76.1473473 96.2094061,68.0508594 86.2144237,68.0508594 C76.2180087,68.0508594 68.1140076,76.1473473 68.1140076,86.1344947 C68.1140076,96.1202109 76.2180087,104.216699 86.2144237,104.216699 Z" fill="#FFFFFF"></path>
                    </g>
                </g>
            </g>
            <path d="M508.334751,37.6691355 L508.333318,37.6691355 C476.150822,37.6691355 450.062442,63.7339013 450.062442,95.886562 L450.062442,184.6249 C450.062442,216.777561 476.150822,242.843185 508.333318,242.843185 L508.334751,242.843185 C540.517248,242.843185 566.605628,216.777561 566.605628,184.6249 L566.605628,95.886562 C566.605628,63.7339013 540.517248,37.6691355 508.334751,37.6691355 Z" id="Path" fill="#F6F5F4" fill-rule="nonzero"></path>
            <path d="M508.333318,171.204223 C525.440969,171.204223 539.309598,157.348452 539.309598,140.255659 C539.309598,123.163583 525.440969,109.307668 508.333318,109.307668 C491.225667,109.307668 477.357038,123.163583 477.357038,140.255659 C477.357038,157.348452 491.225667,171.204223 508.333318,171.204223 Z" id="Path" fill="#FFFFFF" fill-rule="nonzero"></path>
            <path d="M508.334751,162.462249 C520.610372,162.462249 530.560945,152.51947 530.560945,140.256089 C530.560945,127.992135 520.610372,118.050215 508.334751,118.050215 C496.05913,118.050215 486.108557,127.992135 486.108557,140.256089 C486.108557,152.51947 496.05913,162.462249 508.334751,162.462249 Z" id="Path" fill="#5E5C64" fill-rule="nonzero"></path>
            <path d="M508.333318,37.6691355 C503.627353,37.6691355 499.06178,38.2356177 494.683871,39.2776989 C520.338185,45.3859172 539.311031,68.3347446 539.311031,95.8874207 L539.311031,184.6249 C539.311031,212.177576 520.338185,235.125974 494.683871,241.234479 C499.154896,242.302179 503.736228,242.843185 508.333318,242.843185 C540.614662,242.843185 566.604195,216.877747 566.604195,184.6249 L566.604195,95.8874207 C566.604195,63.6342875 540.614662,37.6691355 508.333318,37.6691355 Z" id="Path" fill-opacity="0.17" fill="#C0BFBC" fill-rule="nonzero"></path>
            <path d="M508.884855,6.19665427 C494.817099,6.19665427 481.213494,14.3156984 470.54091,29.0810189 C459.868326,43.8463393 452.833016,64.2814913 450.708527,86.6835875 L567.064047,86.6835875 C564.939558,64.2810619 557.904248,43.8454806 547.230232,29.080017 C536.557648,14.3146966 522.954042,6.19665427 508.884855,6.19665427 Z" id="Path" fill="#ED333B" fill-rule="nonzero"></path>
            <path d="M458.775282,197.729274 L466.380751,217.168287 C469.122674,224.175606 469.167084,231.948636 466.505384,238.986011 C463.845117,246.023386 458.666407,251.825607 451.972046,255.270586 L426.680171,268.287654 C424.740483,269.286655 422.575882,269.768981 420.394091,269.691694 C418.212299,269.612977 416.08781,268.976078 414.22548,267.841109 C412.361718,266.70471 410.821714,265.110316 409.753023,263.208207 C408.684332,261.307529 408.122768,259.163541 408.122768,256.982341 L408.122768,246.371176 C408.122768,242.050282 409.031012,237.77805 410.787332,233.829276 C412.543653,229.880503 415.109371,226.345356 418.318309,223.449971 L449.308914,195.49655 C450.019465,194.856788 450.873272,194.397362 451.800139,194.159777 C452.727006,193.922193 453.696851,193.913605 454.628016,194.132584 C455.559181,194.352994 456.423015,194.793814 457.145026,195.420694 C457.867038,196.047574 458.427169,196.839047 458.775282,197.729274 Z" id="Path" fill-opacity="0.0937181" fill="#000000" fill-rule="nonzero"></path>
            <path d="M458.775282,194.281432 L466.380751,213.720446 C469.122674,220.726334 469.167084,228.499363 466.505384,235.536738 C463.845117,242.575544 458.666407,248.376334 451.972046,251.821313 L426.680171,264.838382 C424.740483,265.837383 422.575882,266.321139 420.394091,266.242422 C418.212299,266.163704 416.08781,265.526805 414.22548,264.391837 C412.361718,263.256869 410.821714,261.661043 409.753023,259.760365 C408.684332,257.858256 408.122768,255.714268 408.122768,253.534499 L408.122768,242.921903 C408.122768,238.601009 409.031012,234.328777 410.787332,230.380004 C412.543653,226.432662 415.109371,222.896084 418.318309,220.000698 L449.308914,192.047277 C450.019465,191.407515 450.873272,190.949521 451.800139,190.711936 C452.727006,190.474351 453.696851,190.464333 454.628016,190.683311 C455.559181,190.903721 456.423015,191.345972 457.145026,191.972853 C457.867038,192.598302 458.427169,193.391205 458.775282,194.281432 Z" id="Path" fill="#B0AFAC" fill-rule="nonzero"></path>
            <path d="M558.34118,197.729274 L550.734277,217.168287 C547.993787,224.175606 547.949378,231.948636 550.609645,238.986011 C553.271344,246.023386 558.450054,251.825607 565.144415,255.270586 L590.43629,268.287654 C592.377411,269.286655 594.542012,269.768981 596.722371,269.691694 C598.904162,269.612977 601.028651,268.976078 602.892414,267.841109 C604.756176,266.70471 606.29618,265.110316 607.364871,263.208207 C608.432129,261.307529 608.993694,259.163541 608.993694,256.982341 L608.993694,246.371176 C608.993694,242.050282 608.085449,237.776618 606.329129,233.829276 C604.572808,229.880503 602.00709,226.345356 598.79672,223.449971 L567.807547,195.49655 C567.096996,194.856788 566.241757,194.397362 565.31489,194.159777 C564.389455,193.922193 563.418178,193.913605 562.488445,194.132584 C561.55728,194.352994 560.693446,194.793814 559.971435,195.420694 C559.247991,196.047574 558.689292,196.839047 558.34118,197.729274 Z" id="Path" fill-opacity="0.0937181" fill="#000000" fill-rule="nonzero"></path>
            <path d="M512.67398,201.247246 C512.67398,198.852792 510.731427,196.910608 508.333318,196.910608 C505.936643,196.910608 503.992657,198.852792 503.992657,201.247246 L503.992657,274.237292 C503.992657,276.633177 505.936643,278.573929 508.333318,278.573929 C510.731427,278.573929 512.67398,276.633177 512.67398,274.237292 L512.67398,201.247246 Z" id="Path" fill="#DEDDDA" fill-rule="nonzero"></path>
            <path d="M519.735076,8.26033554 C530.15553,29.3148824 536.981686,56.8483801 539.177803,86.6825856 L567.747379,86.6825856 C565.893644,67.1303616 560.252217,49.0208209 551.631061,34.9380557 C543.008473,20.8552906 531.845952,11.5186388 519.735076,8.26033554 Z" id="Path" fill="#E01B24" fill-rule="nonzero"></path>
            <path d="M558.34118,194.281432 L550.734277,213.720446 C547.993787,220.726334 547.949378,228.499363 550.609645,235.536738 C553.271344,242.575544 558.450054,248.376334 565.144415,251.821313 L590.43629,264.838382 C592.377411,265.837383 594.542012,266.321139 596.722371,266.242422 C598.904162,266.163704 601.028651,265.526805 602.892414,264.391837 C604.756176,263.256869 606.29618,261.661043 607.364871,259.760365 C608.432129,257.858256 608.993694,255.714268 608.993694,253.534499 L608.993694,242.921903 C608.993694,238.601009 608.085449,234.328777 606.329129,230.380004 C604.572808,226.43123 602.00709,222.896084 598.79672,220.000698 L567.807547,192.047277 C567.096996,191.407515 566.241757,190.949521 565.31489,190.711936 C564.389455,190.474351 563.418178,190.464333 562.488445,190.683311 C561.55728,190.903721 560.693446,191.345972 559.971435,191.972853 C559.247991,192.598302 558.689292,193.391205 558.34118,194.281432 Z" id="Path" fill="#FFFFFF" fill-rule="nonzero"></path>
            <path d="M309.788873,202.459501 C301.726416,202.469519 293.837299,204.789549 287.05412,209.143361 C280.272373,213.497173 274.880211,219.703002 271.520854,227.025192 C267.06129,224.728063 262.118952,223.524395 257.102121,223.512945 C240.471513,223.537276 226.701731,236.418378 225.595793,252.996356 L225.488351,252.996356 C213.848788,252.996356 204.413937,262.422459 204.413937,274.051232 C204.413937,285.680004 213.848788,295.106108 225.488351,295.106108 L343.508508,295.106108 C350.215762,295.106108 356.649396,292.444013 361.391175,287.705199 C366.134386,282.966385 368.798951,276.540147 368.798951,269.839111 C368.793221,264.60509 367.161533,259.504174 364.127368,255.236236 C361.094635,250.969729 356.809843,247.749454 351.866073,246.020523 C351.897589,245.538198 351.921943,245.055872 351.937701,244.573546 C351.937701,221.316002 333.067999,202.462363 309.788873,202.462363 L309.788873,202.459501 Z" id="Path" fill="url(#linearGradient-01pd5zpkm--7)" fill-rule="nonzero"></path>
            <g id="Clipped" transform="translate(157.307, 246.0205)">
                <mask id="mask-01pd5zpkm--9" fill="white">
                    <use xlink:href="#path-01pd5zpkm--8"></use>
                </mask>
                <g id="Path"></g>
                <g id="Group" mask="url(#mask-01pd5zpkm--9)" fill-rule="nonzero">
                    <g transform="translate(-3.0796, -0.72)" id="Path">
                        <path d="M55.3952756,0.720025187 C26.5019402,0.720025187 3.07955761,22.7180841 3.07955761,49.8571338 C3.09245066,60.6686717 8.54621277,71.010765 13.9183189,79.7484456 L31.9700279,113.661523 L78.8190907,113.661523 L96.9424278,79.6182033 C102.244338,70.9935902 107.68664,60.6157161 107.709561,49.8571338 C107.709561,22.7180841 84.288611,0.720025187 55.3952756,0.720025187 Z" fill="url(#radialGradient-01pd5zpkm--10)"></path>
                        <path d="M53.8337834,0.720025187 C53.8337834,0.720025187 25.2069045,18.5145513 25.2069045,46.1731388 C25.2069045,67.5457487 50.4643985,113.661523 50.4643985,113.661523 L58.5196925,113.661523 C58.5196925,113.661523 60.6012045,67.5457487 60.6012045,46.1731388 C60.6012045,18.5145513 53.8337834,0.720025187 53.8337834,0.720025187 Z" fill="url(#radialGradient-01pd5zpkm--11)"></path>
                        <path d="M53.8079973,0.876029639 C40.9908684,1.0921459 28.3084004,5.69356161 18.6701258,13.6297514 C9.02898603,21.5630787 2.50796552,32.7667746 0.596928312,44.6703436 C-1.339895,56.7356421 1.4822514,69.4206646 8.39722636,79.7484456 L38.064145,113.661523 L48.1092671,113.661523 L27.2898491,89.123025 C20.5740002,81.209735 14.0587099,72.8856809 10.7423297,63.2577731 C7.42738214,53.6298654 7.36005174,43.0158377 10.7466274,33.4122609 C13.8452582,24.678874 19.5439884,16.9630942 27.1695139,11.1780484 C34.8165278,5.42305848 44.0622806,1.84640595 53.8079973,0.874598406 L53.8079973,0.876029639 Z" fill="url(#radialGradient-01pd5zpkm--12)"></path>
                        <path d="M54.0787514,0.904654309 C66.1165668,-1.36385079 79.0182168,0.678519416 89.5991169,6.53083321 C100.18145,12.3817158 108.342753,21.9852926 112.071711,32.9743034 C114.763494,40.9505677 115.170342,49.4520948 113.253574,57.6230068 C111.311021,65.7896252 107.113615,73.3307945 101.082531,79.4893923 L83.5823581,113.40247 L62.6827165,113.40247 L83.5049998,78.7222511 C87.9831874,71.2597997 92.1820255,63.4581458 93.5415265,54.9881059 C94.8995949,46.5166348 93.484224,37.7231362 89.834057,29.8728204 C83.3173342,15.8653381 69.7882222,4.90495195 54.080184,0.906085543 L54.0787514,0.904654309 Z" fill="url(#radialGradient-01pd5zpkm--13)"></path>
                    </g>
                </g>
            </g>
            <path d="M198.175119,370.045494 L198.175119,379.74067 C198.173699,380.379 198.298332,381.011605 198.541867,381.602704 C198.785403,382.193804 199.143543,382.729085 199.596233,383.181355 C200.047489,383.633625 200.5847,383.991433 201.176348,384.234743 C201.766563,384.479484 202.399756,384.604001 203.040111,384.602582 L216.211082,384.602582 C218.907163,384.602582 220.5102,382.374139 221.076062,379.74067 L221.076062,370.045494 L198.175119,370.045494 Z" id="Path" fill="#E5A50A" fill-rule="nonzero"></path>
            <path d="M198.175119,367.96448 L198.175119,377.661087 C198.173699,378.299418 198.298332,378.932023 198.541867,379.523122 C198.785403,380.11279 199.143543,380.649503 199.596233,381.101773 C200.048922,381.552611 200.5847,381.91042 201.176348,382.155161 C201.766563,382.39847 202.399756,382.522988 203.040111,382.521569 L216.211082,382.521569 C218.907163,382.521569 220.5102,380.294557 221.076062,377.661087 L221.076062,367.965912 L198.175119,367.96448 Z" id="Path" fill="#E5A50A" fill-rule="nonzero"></path>
            <path d="M212.747148,367.96448 L212.747148,382.521556 L216.20965,382.521556 C218.905731,382.521556 220.508767,380.294557 221.074629,377.661087 L221.074629,367.965912 L212.747148,367.96448 Z" id="Path" fill="#F3AF0B" fill-rule="nonzero"></path>
            <path d="M124.081612,137.452875 C120.319705,137.452875 116.593612,138.193252 113.116785,139.631785 C109.641104,141.070317 106.482592,143.17924 103.822182,145.837041 C101.161628,148.494841 99.0511786,151.650711 97.6113109,155.122884 C96.1714432,158.596487 95.4303791,162.319126 95.4303791,166.077545 C95.4303791,169.835964 96.1714432,173.558602 97.6113109,177.032206 C99.0511786,180.504379 101.161628,183.660248 103.822182,186.318049 C106.482592,188.97585 109.641104,191.085488 113.116785,192.523878 C116.593612,193.962267 120.319705,194.702215 124.081612,194.702215 L163.477056,194.702215 C168.225998,194.702215 172.781544,192.81728 176.139468,189.462469 C179.497393,186.107658 181.384077,181.556335 181.384077,176.811796 C181.384077,172.067257 179.497393,167.515935 176.139468,164.161123 C172.781544,160.806312 168.225998,158.921377 163.477056,158.921377 C159.514591,158.922809 155.663865,160.236681 152.527988,162.658328 C151.691372,155.708258 148.33488,149.306351 143.093137,144.661998 C137.851394,140.017502 131.088271,137.452875 124.081612,137.452875 Z" id="Path" fill="url(#linearGradient-01pd5zpkm--14)" fill-rule="nonzero"></path>
        </g>
    </g>
</svg>
