
<svg width="800px" height="600px" viewBox="0 0 800 600" version="1.1" xmlns="http://www.w3.org/2000/svg" xmlns:xlink="http://www.w3.org/1999/xlink">
    <defs>
        <linearGradient x1="99.1344033%" y1="76.459119%" x2="20.6148993%" y2="76.459119%" id="linearGradient-221kvs-erm-1">
            <stop stop-color="#1C71D8" offset="0%"></stop>
            <stop stop-color="#33D17A" offset="100%"></stop>
        </linearGradient>
        <linearGradient x1="75.0538885%" y1="47.0367407%" x2="96.1676417%" y2="38.2211012%" id="linearGradient-221kvs-erm-2">
            <stop stop-color="#99C1F1" offset="0%"></stop>
            <stop stop-color="#99C1F1" stop-opacity="0" offset="100%"></stop>
        </linearGradient>
        <polygon id="path-221kvs-erm-3" points="470.87712 0 619.376058 227.146676 322.37678 227.146676"></polygon>
        <filter x="-12.1%" y="-15.8%" width="124.2%" height="131.7%" filterUnits="objectBoundingBox" id="filter-221kvs-erm-4">
            <feOffset dx="0" dy="0" in="SourceAlpha" result="shadowOffsetOuter1"></feOffset>
            <feGaussianBlur stdDeviation="12" in="shadowOffsetOuter1" result="shadowBlurOuter1"></feGaussianBlur>
            <feColorMatrix values="0 0 0 0 0   0 0 0 0 0   0 0 0 0 0  0 0 0 0.25 0" type="matrix" in="shadowBlurOuter1"></feColorMatrix>
        </filter>
    </defs>
    <g id="Page-1" stroke="none" stroke-width="1" fill="none" fill-rule="evenodd">
        <g id="Group" transform="translate(53, 62)">
            <path d="M351.915278,92.9141415 L351.915278,93.6499502 C351.915278,119.108932 372.568804,139.748016 398.0456,139.748016 L421.647226,139.748016 C427.457871,139.748016 432.167537,144.454389 432.167537,150.260971 L432.167537,154.570708 C432.167537,160.375888 427.457871,165.082261 421.647226,165.082261 L240.431678,165.082261 C214.954881,165.082261 194.301355,185.721345 194.301355,211.180327 L194.301355,211.917537 C194.301355,237.376519 214.954881,258.014202 240.431678,258.014202 L374.98114,258.014202 C380.791785,258.014202 385.501451,262.721976 385.501451,268.527157 L385.501451,271.155045 C385.501451,276.961627 380.791785,281.668 374.98114,281.668 L369.300929,281.668 C343.824133,281.668 323.170607,302.307084 323.170607,327.766066 L323.170607,328.501875 C323.170607,353.960857 343.824133,374.599941 369.300929,374.599941 L566.777308,374.599941 C592.254104,374.599941 612.906228,353.960857 612.906228,328.501875 L612.906228,327.766066 C612.906228,302.307084 592.254104,281.668 566.777308,281.668 L543.301909,281.668 C537.491264,281.668 532.781598,276.961627 532.781598,271.155045 L532.781598,268.527157 C532.781598,262.721976 537.491264,258.014202 543.301909,258.014202 L647.869677,258.014202 C673.346474,258.014202 694,237.376519 694,211.917537 L694,211.180327 C694,185.721345 673.346474,165.082261 647.869677,165.082261 L619.857123,165.082261 C612.872567,165.082261 607.21059,159.424242 607.21059,152.445973 L607.21059,152.385706 C607.21059,145.406035 612.872567,139.748016 619.857123,139.748016 L629.460185,139.748016 C654.936981,139.748016 675.590508,119.108932 675.590508,93.6499502 L675.590508,92.9141415 C675.589105,67.4551596 654.936981,46.8160753 629.460185,46.8160753 L398.0456,46.8160753 C372.568804,46.8160753 351.915278,67.4551596 351.915278,92.9141415 Z" id="Path" fill="url(#linearGradient-221kvs-erm-1)" fill-rule="nonzero"></path>
            <path d="M470.408678,220.541216 C481.568539,263.355473 477.763499,309.911843 459.797203,350.347685 C443.568631,386.87323 416.070802,418.141597 382.479018,439.827632 C348.888637,461.515069 309.368396,473.67203 269.428802,475.701461 C242.590158,477.06516 215.263436,473.864042 190.31539,463.883672 C165.367344,453.903303 142.894748,436.864776 128.624095,414.110767 C114.352882,391.356758 108.835083,362.75272 115.975739,336.863465 C119.546137,323.920239 126.196331,311.795513 135.431933,302.043595 C144.667534,292.290275 156.493593,284.953211 169.42624,281.314812 C182.102226,277.747891 195.764184,277.768914 208.438768,281.342842 C221.113351,284.916771 232.764094,292.029588 241.754255,301.645557 C250.745818,311.260124 257.055761,323.348411 259.834155,336.211749 C262.611147,349.076488 261.853785,362.67984 257.698115,375.166163 C250.877655,395.651078 235.068437,412.535436 216.048848,422.772287 C197.027856,433.009138 175.013884,436.929247 153.420669,436.273326 C102.897089,434.740041 53.8336739,407.404396 25.9661399,365.26428 C-1.90139403,323.122763 -7.82886911,267.30221 10.5681409,220.255301" id="Path" stroke="url(#linearGradient-221kvs-erm-2)" stroke-width="7.58864" stroke-linecap="round" stroke-dasharray="7.59"></path>
            <polygon id="Path" fill-opacity="0.143433" fill="#000000" fill-rule="nonzero" points="470.87712 7.0916544 322.37678 234.237069 451.076327 234.237069 470.87712 279.668002 490.676511 234.237069 619.376058 234.237069"></polygon>
            <g id="Path" fill-rule="nonzero">
                <use fill="black" fill-opacity="1" filter="url(#filter-221kvs-erm-4)" xlink:href="#path-221kvs-erm-3"></use>
                <use fill="#F6F5F4" xlink:href="#path-221kvs-erm-3"></use>
            </g>
            <path d="M470.87712,3.41863741 L470.87712,272.576207 L451.077729,227.146676 C456.053874,152.429154 463.699017,77.9456897 470.87712,3.41863741 Z" id="Path" fill="#FFFFFF" fill-rule="nonzero"></path>
            <path d="M470.87712,3.41863741 L470.87712,272.576207 L490.676511,227.146676 C490.676511,227.146676 478.377803,77.9218635 470.87712,3.41863741 Z" id="Path" fill="#DEDDDA" fill-rule="nonzero"></path>
        </g>
    </g>
</svg>
