
<svg width="800px" height="600px" viewBox="0 0 800 600" version="1.1" xmlns="http://www.w3.org/2000/svg" xmlns:xlink="http://www.w3.org/1999/xlink">
    <g id="Page-1" stroke="none" stroke-width="1" fill="none" fill-rule="evenodd">
        <g id="Group" transform="translate(98.1535, -2.5422)">
            <path d="M301.104,547.605 C438.83,547.605 550.479,435.956 550.479,298.23 C550.479,160.504 438.83,48.8555 301.104,48.8555 C163.378,48.8555 51.7285,160.504 51.7285,298.23 C51.7285,435.956 163.378,547.605 301.104,547.605 Z" id="Path" fill="#2EC27E" fill-rule="nonzero"></path>
            <path d="M301.103,489.314 C406.636,489.314 492.187,403.763 492.187,298.231 C492.187,192.698 406.636,107.147 301.103,107.147 C195.571,107.147 110.02,192.698 110.02,298.231 C110.02,403.763 195.571,489.314 301.103,489.314 Z" id="Path" fill="#33D17A" fill-rule="nonzero"></path>
            <path d="M301.103,420.87 C368.835,420.87 423.743,365.962 423.743,298.231 C423.743,230.499 368.835,175.591 301.103,175.591 C233.371,175.591 178.464,230.499 178.464,298.231 C178.464,365.962 233.371,420.87 301.103,420.87 Z" id="Path" fill="#57E389" fill-rule="nonzero"></path>
            <path d="M301.104,361.17 C335.865,361.17 364.044,332.991 364.044,298.23 C364.044,263.47 335.865,235.291 301.104,235.291 C266.343,235.291 238.164,263.47 238.164,298.23 C238.164,332.991 266.343,361.17 301.104,361.17 Z" id="Path" fill="#8FF0A4" fill-rule="nonzero"></path>
            <path d="M323.715,309.934 C323.715,319.656 316.258,327.537 307.061,327.537 C297.863,327.537 290.406,319.656 290.406,309.934 C290.406,300.212 307.061,256.767 307.061,256.767 C307.061,256.767 323.715,300.212 323.715,309.934 Z" id="Path" fill="#2EC27E" fill-rule="nonzero"></path>
            <path d="M307.061,256.768 C307.061,256.768 306.503,258.26 306.363,258.627 L306.363,327.5 C306.596,327.51 306.825,327.537 307.061,327.537 C316.258,327.537 323.715,319.656 323.715,309.934 C323.715,300.212 307.061,256.768 307.061,256.768 Z" id="Path" fill="#26A269" fill-rule="nonzero"></path>
            <path d="M353.983,366.392 C345.9,374.476 333.147,374.829 325.499,367.181 C317.852,359.534 318.205,346.781 326.288,338.698 C334.372,330.615 384.341,308.339 384.341,308.339 C384.341,308.339 362.066,358.309 353.983,366.392 Z" id="Path" fill="#2EC27E" fill-rule="nonzero"></path>
            <path d="M384.34,308.34 C384.34,308.34 382.635,309.117 382.214,309.306 L324.949,366.57 C325.134,366.773 325.302,366.985 325.498,367.181 C333.146,374.829 345.898,374.475 353.982,366.392 C362.065,358.308 384.34,308.34 384.34,308.34 Z" id="Path" fill="#26A269" fill-rule="nonzero"></path>
            <polygon id="Path" fill="#63452C" fill-rule="nonzero" points="306.839 304.195 302.33 447.987 311.618 448.295"></polygon>
            <polygon id="Path" fill="#63452C" fill-rule="nonzero" points="366.079 325.867 305.568 384.066 309.444 388.208"></polygon>
            <path d="M308.936,434.256 C303.281,434.256 297.945,436.87 294.469,441.33 L294.404,441.33 L213.754,556.227 L401.816,556.227 L325.753,444.453 C322.641,439.063 316.13,434.254 308.951,434.254 L308.936,434.256 Z" id="Path" fill="#5E5C64" fill-rule="nonzero"></path>
            <path d="M308.936,434.256 C308.075,434.256 307.224,434.327 306.383,434.445 C311.432,435.369 311.856,439.68 314.613,444.455 L344.844,556.229 L401.816,556.229 L325.752,444.455 C322.64,439.065 316.13,434.256 308.951,434.256 L308.936,434.256 Z" id="Path" fill="#3D3846" fill-rule="nonzero"></path>
            <path d="M264.281,508.545 C267.514,508.545 270.135,505.924 270.135,502.691 C270.135,499.459 267.514,496.838 264.281,496.838 C261.048,496.838 258.428,499.459 258.428,502.691 C258.428,505.924 261.048,508.545 264.281,508.545 Z" id="Path" fill="#3D3846" fill-rule="nonzero"></path>
            <path d="M273.854,517.672 C275.613,517.672 277.039,516.246 277.039,514.487 C277.039,512.729 275.613,511.303 273.854,511.303 C272.096,511.303 270.67,512.729 270.67,514.487 C270.67,516.246 272.096,517.672 273.854,517.672 Z" id="Path" fill="#3D3846" fill-rule="nonzero"></path>
            <path d="M305.016,537.092 C308.744,537.092 311.766,534.07 311.766,530.342 C311.766,526.614 308.744,523.592 305.016,523.592 C301.288,523.592 298.266,526.614 298.266,530.342 C298.266,534.07 301.288,537.092 305.016,537.092 Z" id="Path" fill="#77767B" fill-rule="nonzero"></path>
            <path d="M325.961,530.686 C328.439,530.686 330.447,528.677 330.447,526.199 C330.447,523.721 328.439,521.713 325.961,521.713 C323.483,521.713 321.475,523.721 321.475,526.199 C321.475,528.677 323.483,530.686 325.961,530.686 Z" id="Path" fill="#77767B" fill-rule="nonzero"></path>
            <path d="M320.546,480.512 C323.501,480.512 325.896,478.116 325.896,475.161 C325.896,472.206 323.501,469.811 320.546,469.811 C317.591,469.811 315.195,472.206 315.195,475.161 C315.195,478.116 317.591,480.512 320.546,480.512 Z" id="Path" fill="#3D3846" fill-rule="nonzero"></path>
            <path d="M310.347,466.078 C312.457,466.078 314.168,464.367 314.168,462.257 C314.168,460.146 312.457,458.436 310.347,458.436 C308.236,458.436 306.525,460.146 306.525,462.257 C306.525,464.367 308.236,466.078 310.347,466.078 Z" id="Path" fill="#77767B" fill-rule="nonzero"></path>
            <path d="M326.933,492.742 C329.138,492.742 330.926,490.954 330.926,488.749 C330.926,486.544 329.138,484.756 326.933,484.756 C324.727,484.756 322.939,486.544 322.939,488.749 C322.939,490.954 324.727,492.742 326.933,492.742 Z" id="Path" fill="#3D3846" fill-rule="nonzero"></path>
            <path d="M405.709,144.316985 C400.926,144.325 396.525,146.363 393.437,149.705 C393.438,149.702 393.438,149.7 393.439,149.697 C393.187,149.97 392.947,150.251 392.715,150.539 C392.634,150.638 392.56,150.742 392.482,150.844 C392.317,151.058 392.155,151.276 392,151.498 C391.909,151.628 391.82,151.759 391.732,151.892 C391.567,152.145 391.409,152.402 391.258,152.664 C391.207,152.752 391.153,152.837 391.103,152.926 C390.911,153.272 390.732,153.625 390.564,153.984 C390.51,154.101 390.462,154.221 390.41,154.34 C390.293,154.606 390.183,154.875 390.08,155.148 C390.029,155.283 389.979,155.416 389.932,155.552 C389.797,155.939 389.671,156.328 389.564,156.724 C387.621,163.98 390.754,171.4 396.787,175.211 C397.092,175.404 397.416,175.572 397.736,175.746 L383.781,171.859 C382.36,171.478 380.897,171.287 379.426,171.289 C374.642,171.296 370.242,173.335 367.154,176.677 C367.156,176.673 367.157,176.669 367.158,176.666 C366.905,176.939 366.663,177.223 366.43,177.511 C366.359,177.599 366.292,177.691 366.223,177.781 C366.04,178.017 365.863,178.258 365.693,178.504 C365.613,178.619 365.534,178.735 365.457,178.853 C365.303,179.089 365.156,179.329 365.014,179.572 C364.946,179.688 364.874,179.8 364.809,179.918 C364.619,180.26 364.445,180.61 364.279,180.965 C364.229,181.073 364.183,181.185 364.135,181.295 C364.013,181.572 363.898,181.853 363.791,182.136 C363.746,182.257 363.699,182.377 363.656,182.5 C363.518,182.894 363.39,183.291 363.281,183.695 C360.889,192.625 366.19,201.803 375.119,204.195 L384.965,206.937 C382.231,207.821 379.77,209.394 377.82,211.504 L377.82,211.506 C377.811,211.516 377.802,211.525 377.793,211.535 C377.574,211.773 377.361,212.017 377.156,212.267 C377.156,212.267 377.155,212.269 377.154,212.271 C376.94,212.533 376.735,212.8 376.537,213.074 C376.348,213.337 376.166,213.605 375.992,213.879 C375.98,213.898 375.967,213.916 375.955,213.936 C375.954,213.938 375.952,213.94 375.951,213.942 C375.777,214.217 375.612,214.498 375.455,214.783 C375.298,215.069 375.15,215.358 375.01,215.652 C375.003,215.668 374.994,215.683 374.986,215.699 C374.844,215.999 374.712,216.302 374.588,216.61 C374.462,216.923 374.345,217.24 374.238,217.561 C374.131,217.882 374.033,218.206 373.945,218.533 C373.8,219.078 373.682,219.629 373.592,220.186 C373.59,220.193 373.588,220.201 373.586,220.209 C373.586,220.211 373.586,220.213 373.586,220.215 C373.585,220.221 373.585,220.227 373.584,220.233 C373.5,220.754 373.442,221.28 373.408,221.807 C373.406,221.846 373.402,221.885 373.401,221.924 C373.401,221.928 373.401,221.933 373.401,221.938 C373.374,222.424 373.369,222.912 373.385,223.399 C373.387,223.48 373.389,223.561 373.392,223.643 C373.392,223.645 373.392,223.645 373.392,223.647 C373.415,224.118 373.457,224.588 373.519,225.055 C373.528,225.125 373.538,225.196 373.549,225.266 C373.618,225.749 373.709,226.23 373.82,226.705 C373.821,226.711 373.823,226.716 373.824,226.721 C373.832,226.756 373.841,226.79 373.849,226.825 C373.971,227.322 374.115,227.814 374.281,228.299 C374.283,228.307 374.286,228.315 374.288,228.323 C374.459,228.818 374.653,229.306 374.87,229.783 C374.878,229.799 374.884,229.815 374.892,229.83 C375.109,230.304 375.348,230.768 375.608,231.219 C375.614,231.229 375.62,231.24 375.626,231.25 C375.89,231.707 376.176,232.151 376.481,232.58 C376.483,232.583 376.484,232.587 376.487,232.59 C376.787,233.009 377.106,233.414 377.443,233.803 C377.467,233.832 377.492,233.861 377.517,233.889 C377.84,234.259 378.18,234.614 378.534,234.954 C378.537,234.956 378.539,234.958 378.541,234.961 C378.584,235.001 378.627,235.041 378.67,235.082 C379.012,235.401 379.367,235.706 379.735,235.996 C379.795,236.043 379.855,236.091 379.916,236.138 C380.293,236.427 380.681,236.7 381.08,236.957 C381.131,236.989 381.181,237.022 381.233,237.054 C381.237,237.057 381.241,237.06 381.244,237.062 C381.659,237.321 382.086,237.561 382.522,237.783 C382.578,237.812 382.635,237.839 382.692,237.867 C383.159,238.098 383.637,238.307 384.123,238.494 C384.141,238.501 384.158,238.509 384.176,238.515 C384.701,238.715 385.237,238.887 385.78,239.033 L407.967,244.978 C405.534,245.896 403.349,247.368 401.584,249.277 L401.584,249.279 C401.575,249.289 401.566,249.299 401.557,249.308 C401.338,249.546 401.125,249.791 400.92,250.041 L400.918,250.045 C400.279,250.826 399.713,251.663 399.225,252.547 C399.223,252.551 399.22,252.556 399.217,252.56 C399.061,252.844 398.913,253.133 398.773,253.426 C398.766,253.441 398.757,253.457 398.75,253.473 C398.614,253.76 398.486,254.051 398.367,254.346 C398.357,254.369 398.349,254.393 398.34,254.416 C398.22,254.716 398.108,255.019 398.006,255.326 C398.004,255.331 398.002,255.335 398,255.34 C397.893,255.659 397.796,255.981 397.709,256.306 C397.563,256.851 397.445,257.402 397.355,257.959 C397.353,257.967 397.351,257.974 397.349,257.982 C397.349,257.984 397.349,257.986 397.349,257.988 C397.348,257.994 397.348,258 397.347,258.006 C397.266,258.519 397.209,259.036 397.175,259.555 C397.171,259.624 397.165,259.694 397.162,259.764 C397.136,260.246 397.132,260.73 397.148,261.213 C397.15,261.27 397.151,261.327 397.154,261.385 C397.176,261.868 397.219,262.35 397.283,262.83 C397.292,262.9 397.302,262.969 397.312,263.039 C397.382,263.522 397.474,264.003 397.586,264.478 C397.597,264.527 397.609,264.576 397.621,264.625 C397.74,265.113 397.882,265.596 398.045,266.072 C398.047,266.08 398.05,266.086 398.052,266.094 C398.223,266.59 398.418,267.078 398.636,267.557 C398.643,267.572 398.65,267.588 398.657,267.603 C398.873,268.076 399.111,268.538 399.37,268.988 C399.379,269.003 399.387,269.018 399.396,269.033 C399.658,269.486 399.941,269.927 400.245,270.354 C400.247,270.357 400.248,270.36 400.251,270.363 C400.557,270.791 400.883,271.205 401.228,271.602 C401.239,271.615 401.251,271.628 401.263,271.641 C401.592,272.018 401.938,272.381 402.3,272.727 C402.348,272.773 402.396,272.818 402.444,272.864 C402.783,273.18 403.135,273.482 403.499,273.77 C403.56,273.818 403.62,273.865 403.681,273.912 C404.055,274.199 404.44,274.47 404.837,274.725 C404.897,274.763 404.956,274.802 405.017,274.84 C405.429,275.097 405.853,275.337 406.286,275.557 C406.343,275.586 406.401,275.615 406.458,275.643 C406.913,275.868 407.379,276.073 407.853,276.256 C407.896,276.273 407.94,276.289 407.984,276.305 C408.495,276.498 409.016,276.665 409.544,276.807 L459.476,290.186 L459.476,319.133 L459.476,332.533 C459.476,333.471 459.479,334.41 459.491,335.35 L459.491,335.352 C459.517,337.232 459.575,339.114 459.696,340.989 L459.696,340.991 C459.757,341.928 459.833,342.863 459.929,343.795 C460.12,345.659 460.388,347.513 460.765,349.34 C460.953,350.253 461.169,351.161 461.415,352.061 C461.661,352.961 461.936,353.854 462.247,354.739 C462.403,355.181 462.568,355.621 462.739,356.057 C463.082,356.929 463.457,357.788 463.862,358.633 C464.268,359.478 464.702,360.31 465.167,361.123 C465.399,361.53 465.639,361.932 465.886,362.33 L465.886,362.332 C466.626,363.527 467.431,364.681 468.294,365.789 C469.158,366.899 470.081,367.962 471.06,368.971 C471.386,369.307 471.718,369.637 472.056,369.961 C473.07,370.934 474.136,371.851 475.253,372.705 L475.255,372.705 C476.446,373.617 477.689,374.454 478.978,375.217 C479.622,375.599 480.275,375.961 480.941,376.305 L480.943,376.305 C482.272,376.992 483.641,377.604 485.04,378.137 L485.042,378.137 C485.742,378.403 486.448,378.65 487.161,378.877 C490.017,379.787 492.974,380.382 495.96,380.647 C496.707,380.713 497.454,380.759 498.202,380.784 C501.196,380.883 504.201,380.65 507.14,380.069 C507.874,379.924 508.604,379.756 509.329,379.567 C510.592,379.238 511.835,378.846 513.054,378.395 C517.32,376.818 521.305,374.521 524.904,371.703 C525.418,371.301 525.925,370.889 526.423,370.465 C529.411,367.925 532.105,365.021 534.437,361.877 C540.655,353.494 544.308,343.531 547.685,333.655 L569.146,270.879 C570.974,265.532 572.774,260.154 573.837,254.604 C574.501,251.136 574.875,247.601 574.868097,244.073 L574.868097,244.071 C574.868097,241.953 574.723,239.838 574.425,237.741 C574.417,237.702 574.411,237.664 574.406,237.625 C573.267,229.785 569.756,222.295 564.478,216.418 C563.909,215.564 563.264,214.751 562.521,214.008 L525.497,179.458 C523.056,177.017 520.073,174.655 516.462,173.444 C515.967,173.263 515.463,173.099 514.942,172.966 L509.645,171.546 L509.645,171.571 L509.563,171.55 C509.458,169.68 509.267,167.82 508.905,165.983 C508.163,162.217 506.716,158.564 504.466,155.454 C502.215,152.343 499.183,149.806 495.727,148.134 C492.272,146.461 488.42,145.649 484.581,145.649 C480.742,145.649 476.89,146.461 473.434,148.134 C469.979,149.806 466.946,152.343 464.696,155.454 C463.895,156.561 463.2,157.74 462.598,158.966 L410.063,144.887 C408.642,144.507 407.176,144.316985 405.705,144.316985 L405.709,144.316985 Z M445.021,188.914 L451.111,190.545 L452.502,190.918 L452.502,190.998 L445.021,188.914 Z" id="Shape" fill="#000000" fill-rule="nonzero" opacity="0.0637329"></path>
            <path d="M389.413,198.719984 C385.733,198.725 382.156,199.944 379.238,202.186 C376.32,204.429 374.222,207.571 373.269,211.127 C372.121,215.415 372.722,219.984 374.942,223.828 C377.162,227.673 380.818,230.478 385.106,231.627 L489.637,259.637 C491.76,260.206 493.975,260.351 496.154,260.064 C498.334,259.777 500.435,259.064 502.339,257.965 C504.243,256.866 505.912,255.402 507.25,253.658 C508.588,251.914 509.57,249.923 510.139,247.8 C511.287,243.512 510.686,238.943 508.466,235.099 C506.246,231.254 502.59,228.449 498.302,227.3 L393.77,199.29 C392.349,198.909 390.884,198.718 389.413,198.719984 Z" id="Path" fill="#FFFFFF" fill-rule="nonzero"></path>
            <path d="M405.034,136.911985 C397.467,136.923 390.847,142.009 388.889,149.319 C386.497,158.249 391.796,167.427 400.725,169.819 L497.317,195.701 L537.96,231.07 C544.497,237.608 555.096,237.608 561.633,231.07 C568.17,224.533 568.389,213.139 561.851,206.602 L524.826,172.053 C522.13,169.357 518.782,166.741 514.646,165.685 L409.391,137.483 C407.97,137.102 406.505,136.91 405.034,136.911985 Z" id="Path" fill="#FFFFFF" fill-rule="nonzero"></path>
            <path d="M413.181,236.492985 C409.5,236.499 405.924,237.717 403.006,239.96 C400.087,242.203 397.99,245.345 397.037,248.9 C395.888,253.189 396.49,257.757 398.71,261.602 C400.929,265.446 404.585,268.252 408.874,269.401 L513.404,297.41 C515.528,297.979 517.742,298.125 519.922,297.838 C522.101,297.551 524.203,296.837 526.107,295.738 C528.011,294.639 529.679,293.176 531.018,291.432 C532.356,289.688 533.337,287.697 533.906,285.574 C535.055,281.286 534.453,276.717 532.234,272.872 C530.014,269.028 526.358,266.223 522.07,265.074 L417.537,237.064 C416.116,236.683 414.652,236.491 413.181,236.492985 Z" id="Path" fill="#FFFFFF" fill-rule="nonzero"></path>
            <path d="M377.145,204.098 C375.303,206.092 373.972,208.504 373.27,211.127 C370.877,220.056 376.177,229.235 385.106,231.627 L489.637,259.637 C498.567,262.03 507.746,256.73 510.139,247.8 C511.542,242.56 510.319,236.964 506.856,232.788 C502.637,237.353 496.236,246.706 490.232,245.097 L385.701,217.087 C378.629,215.192 376.18,210.195 377.145,204.098 Z" id="Path" fill="#DEDDDA" fill-rule="nonzero"></path>
            <path d="M378.751,163.881985 C371.184,163.893 364.566,168.98 362.608,176.289 C360.215,185.219 365.515,194.397 374.444,196.789 L499.062,231.494 C507.992,233.888 517.171,228.588 519.563,219.658 C521.956,210.728 516.656,201.55 507.727,199.158 L383.108,164.453 C381.687,164.072 380.222,163.88 378.751,163.881985 Z" id="Path" fill="#FFFFFF" fill-rule="nonzero"></path>
            <path d="M366.483,169.26 C364.64,171.254 363.31,173.667 362.608,176.289 C360.215,185.219 365.515,194.397 374.444,196.789 L478.975,224.799 C487.905,227.192 497.084,221.893 499.477,212.963 C500.88,207.722 499.657,207.148 496.194,202.972 C491.975,207.537 485.574,209.388 479.57,207.779 L375.039,179.769 C368.557,178.032 365.034,172.774 366.483,169.26 Z" id="Path" fill="#DEDDDA" fill-rule="nonzero"></path>
            <path d="M400.913,241.871 C399.07,243.865 397.74,246.278 397.037,248.9 C394.645,257.83 399.944,267.008 408.874,269.4 L513.405,297.41 C522.335,299.803 531.514,294.504 533.906,285.574 C535.31,280.333 534.086,274.738 530.624,270.561 C526.405,275.126 520.004,284.15 514,282.542 L409.469,254.532 C402.225,252.591 399.278,247.972 400.913,241.871 Z" id="Path" fill="#DEDDDA" fill-rule="nonzero"></path>
            <path d="M392.765,142.29 C390.922,144.284 389.592,146.696 388.889,149.319 C386.497,158.249 391.796,167.427 400.725,169.819 L505.256,197.829 L505.851,182.483 L401.32,154.473 C393.916,152.489 390.909,148.173 392.765,142.29 Z" id="Path" fill="#DEDDDA" fill-rule="nonzero"></path>
            <path d="M471.956,150.949 C483.108,150.949 492.086,159.927 492.086,171.079 L492.086,266.111 C492.086,277.263 483.108,286.241 471.956,286.241 C460.804,286.241 436.107,273.149 436.107,261.997 L436.107,261.697 C437.889,258.106 439.549,252.126 436.107,245.252 L444.457,232.943 C446.26,227.345 448.363,221.777 444.457,215.609 L448.455,199.408 C450.991,195.631 452.756,188.042 448.455,182.795 L451.827,171.079 C454.91,160.362 460.804,150.949 471.956,150.949 Z" id="Path" fill="#DEDDDA" fill-rule="nonzero"></path>
            <path d="M483.911,138.244 C480.072,138.244 476.22,139.055 472.765,140.728 C469.309,142.4 466.277,144.938 464.026,148.049 C461.776,151.159 460.33,154.811 459.588,158.578 C458.846,162.344 458.803,166.209 458.803,170.048 L458.803,325.127 C458.803,332.627 459.088,340.258 461.576,347.333 C464.063,354.408 468.626,360.742 474.582,365.299 C484.107,372.589 497.052,375.185 508.66,372.161 C518.76,369.53 527.546,362.854 533.765,354.471 C539.983,346.087 543.637,336.125 547.013,326.249 L568.475,263.472 C570.303,258.126 572.102,252.748 573.165,247.198 C574.228,241.648 574.55,235.929 573.754,230.334 C572.163,219.145 565.75,208.639 556.241,202.531 C549.007,197.884 540.172,195.78 531.62,196.668 C523.067,197.555 514.853,201.428 508.727,207.462 L509.019,243.508 L509.019,170.048 C509.019,166.209 508.976,162.344 508.234,158.578 C507.492,154.811 506.046,151.159 503.795,148.049 C501.545,144.938 498.513,142.4 495.057,140.728 C491.602,139.055 487.75,138.244 483.911,138.244 Z" id="Path" fill="#FFFFFF" fill-rule="nonzero"></path>
            <path d="M509.241,211.582 C509.241,211.582 509.01,235.558 509.432,243.273 C509.854,250.989 514.828,252.525 514.828,252.525 L514.871,252.42 L530.323,259.77 L515.799,250.162 L520.694,237.92 C523.634,230.995 521.583,225.568 516.569,221.289 L509.241,211.582 Z" id="Path" fill="#DEDDDA" fill-rule="nonzero"></path>
            <path d="M573.734,230.219 C573.579,231.417 573.393,232.611 573.166,233.797 C572.103,239.347 570.303,244.725 568.475,250.072 L547.014,312.848 C543.637,322.724 539.984,332.687 533.766,341.07 C527.547,349.454 518.761,356.128 508.66,358.76 C497.052,361.784 484.108,359.189 474.582,351.898 C468.627,347.341 464.064,341.006 461.576,333.932 C459.088,326.857 458.803,319.226 458.803,311.727 L458.803,325.127 C458.803,332.626 459.088,340.257 461.576,347.332 C464.064,354.407 468.627,360.741 474.582,365.299 C484.108,372.589 497.052,375.184 508.66,372.16 C518.761,369.529 527.547,362.854 533.766,354.471 C539.984,346.087 543.637,336.125 547.014,326.248 L568.475,263.473 C570.303,258.126 572.103,252.747 573.166,247.197 C574.229,241.647 574.55,235.928 573.754,230.334 C573.748,230.295 573.74,230.257 573.734,230.219 Z" id="Path" fill="#DEDDDA" fill-rule="nonzero"></path>
            <path d="M508.975,164.141 L509.107,215.699 L516.982,220.65 C514.259,215.281 511.418,173.077 526.253,173.414 C526.253,173.414 522.498,169.568 519.797,167.916 C518.268,166.981 516.09,166.025 514.271,165.561 L508.975,164.141 Z" id="Path" fill="#DEDDDA" fill-rule="nonzero"></path>
            <path d="M197.984,144.316985 C202.768,144.325 207.168,146.363 210.256,149.705 C210.255,149.702 210.255,149.7 210.254,149.697 C210.506,149.97 210.746,150.251 210.979,150.539 C211.059,150.638 211.133,150.742 211.211,150.844 C211.376,151.058 211.539,151.276 211.693,151.498 C211.784,151.628 211.874,151.759 211.961,151.892 C212.127,152.145 212.284,152.402 212.436,152.664 C212.486,152.752 212.541,152.837 212.59,152.926 C212.782,153.272 212.962,153.625 213.129,153.984 C213.183,154.101 213.231,154.221 213.283,154.34 C213.4,154.606 213.51,154.875 213.613,155.148 C213.664,155.283 213.714,155.416 213.762,155.552 C213.896,155.939 214.023,156.328 214.129,156.724 C216.073,163.98 212.939,171.4 206.906,175.211 C206.601,175.404 206.277,175.572 205.957,175.746 L219.912,171.859 C221.333,171.478 222.797,171.287 224.268,171.289 C229.051,171.296 233.451,173.335 236.539,176.677 C236.537,176.673 236.536,176.669 236.535,176.666 C236.788,176.939 237.03,177.223 237.264,177.511 C237.335,177.599 237.401,177.691 237.471,177.781 C237.654,178.017 237.83,178.258 238,178.504 C238.08,178.619 238.159,178.735 238.236,178.853 C238.391,179.089 238.537,179.329 238.68,179.572 C238.747,179.688 238.82,179.8 238.885,179.918 C239.074,180.26 239.249,180.61 239.414,180.965 C239.465,181.073 239.51,181.185 239.559,181.295 C239.68,181.572 239.796,181.853 239.902,182.136 C239.948,182.257 239.994,182.377 240.037,182.5 C240.175,182.894 240.304,183.291 240.412,183.695 C242.804,192.625 237.504,201.803 228.574,204.195 L218.729,206.937 C221.462,207.821 223.923,209.394 225.873,211.504 L225.873,211.506 C225.882,211.516 225.891,211.525 225.9,211.535 C226.12,211.773 226.332,212.017 226.537,212.267 C226.537,212.267 226.538,212.269 226.539,212.271 C226.753,212.533 226.959,212.8 227.156,213.074 C227.346,213.337 227.527,213.605 227.701,213.879 C227.713,213.898 227.726,213.916 227.738,213.936 C227.74,213.938 227.741,213.94 227.742,213.942 C227.916,214.217 228.081,214.498 228.238,214.783 C228.395,215.069 228.544,215.358 228.684,215.652 C228.691,215.668 228.7,215.683 228.707,215.699 C228.849,215.999 228.982,216.302 229.106,216.61 C229.232,216.923 229.348,217.24 229.455,217.561 C229.563,217.882 229.66,218.206 229.748,218.533 C229.894,219.078 230.012,219.629 230.102,220.186 C230.104,220.193 230.106,220.201 230.108,220.209 C230.108,220.211 230.108,220.213 230.108,220.215 C230.109,220.221 230.109,220.227 230.11,220.233 C230.193,220.754 230.252,221.28 230.285,221.807 C230.287,221.846 230.291,221.885 230.292,221.924 C230.293,221.928 230.292,221.933 230.292,221.938 C230.319,222.424 230.324,222.912 230.308,223.399 C230.306,223.48 230.304,223.561 230.301,223.643 C230.301,223.645 230.301,223.645 230.301,223.647 C230.279,224.118 230.236,224.588 230.174,225.055 C230.165,225.125 230.155,225.196 230.145,225.266 C230.075,225.749 229.985,226.23 229.873,226.705 C229.872,226.711 229.871,226.716 229.869,226.721 C229.861,226.756 229.852,226.79 229.844,226.825 C229.723,227.322 229.579,227.814 229.412,228.299 C229.41,228.307 229.407,228.315 229.405,228.323 C229.234,228.818 229.04,229.306 228.823,229.783 C228.815,229.799 228.809,229.815 228.802,229.83 C228.585,230.304 228.345,230.768 228.085,231.219 C228.079,231.229 228.073,231.24 228.067,231.25 C227.803,231.707 227.518,232.151 227.212,232.58 C227.21,232.583 227.209,232.587 227.206,232.59 C226.906,233.009 226.588,233.414 226.251,233.803 C226.226,233.832 226.202,233.861 226.177,233.889 C225.853,234.259 225.514,234.614 225.159,234.954 C225.157,234.956 225.154,234.958 225.152,234.961 C225.109,235.001 225.066,235.041 225.023,235.082 C224.681,235.401 224.326,235.706 223.959,235.996 C223.898,236.043 223.838,236.091 223.777,236.138 C223.401,236.427 223.012,236.7 222.613,236.957 C222.562,236.989 222.512,237.022 222.461,237.054 C222.457,237.057 222.453,237.06 222.449,237.062 C222.034,237.321 221.608,237.561 221.172,237.783 C221.115,237.812 221.058,237.839 221.002,237.867 C220.535,238.098 220.057,238.307 219.57,238.494 C219.552,238.501 219.535,238.509 219.517,238.515 C218.992,238.715 218.457,238.887 217.914,239.033 L195.726,244.978 C198.159,245.896 200.344,247.368 202.109,249.277 L202.109,249.279 C202.118,249.289 202.127,249.299 202.137,249.308 C202.356,249.546 202.568,249.791 202.773,250.041 L202.775,250.045 C203.414,250.826 203.981,251.663 204.469,252.547 C204.471,252.551 204.474,252.556 204.477,252.56 C204.633,252.844 204.781,253.133 204.92,253.426 C204.927,253.441 204.936,253.457 204.943,253.473 C205.079,253.76 205.207,254.051 205.326,254.346 C205.336,254.369 205.344,254.393 205.354,254.416 C205.474,254.716 205.585,255.019 205.688,255.326 C205.69,255.331 205.692,255.335 205.694,255.34 C205.8,255.659 205.897,255.981 205.985,256.306 C206.13,256.851 206.248,257.402 206.338,257.959 C206.34,257.967 206.342,257.974 206.344,257.982 C206.344,257.984 206.344,257.986 206.344,257.988 C206.345,257.994 206.345,258 206.346,258.006 C206.427,258.519 206.485,259.036 206.518,259.555 C206.522,259.624 206.528,259.694 206.532,259.764 C206.557,260.246 206.562,260.73 206.545,261.213 C206.543,261.27 206.542,261.327 206.539,261.385 C206.517,261.868 206.474,262.35 206.41,262.83 C206.401,262.9 206.391,262.969 206.381,263.039 C206.311,263.522 206.22,264.003 206.108,264.478 C206.096,264.527 206.084,264.576 206.072,264.625 C205.953,265.113 205.812,265.596 205.649,266.072 C205.647,266.08 205.644,266.086 205.642,266.094 C205.47,266.59 205.275,267.078 205.058,267.557 C205.051,267.572 205.043,267.588 205.036,267.603 C204.82,268.076 204.582,268.538 204.323,268.988 C204.314,269.003 204.307,269.018 204.298,269.033 C204.035,269.486 203.752,269.927 203.448,270.354 C203.446,270.357 203.445,270.36 203.442,270.363 C203.136,270.791 202.81,271.205 202.466,271.602 C202.454,271.615 202.442,271.628 202.431,271.641 C202.101,272.018 201.755,272.381 201.393,272.727 C201.346,272.773 201.297,272.818 201.249,272.864 C200.91,273.18 200.558,273.482 200.194,273.77 C200.134,273.818 200.074,273.865 200.013,273.912 C199.639,274.199 199.253,274.47 198.856,274.725 C198.796,274.763 198.737,274.802 198.677,274.84 C198.264,275.097 197.841,275.337 197.407,275.557 C197.35,275.586 197.293,275.615 197.235,275.643 C196.78,275.868 196.315,276.073 195.841,276.256 C195.797,276.273 195.754,276.289 195.71,276.305 C195.198,276.498 194.677,276.665 194.149,276.807 L144.218,290.186 L144.218,319.133 L144.218,332.533 C144.218,333.471 144.215,334.41 144.202,335.35 L144.202,335.352 C144.177,337.232 144.118,339.114 143.997,340.989 L143.997,340.991 C143.937,341.928 143.86,342.863 143.765,343.795 C143.574,345.659 143.305,347.513 142.929,349.34 C142.74,350.253 142.524,351.161 142.278,352.061 C142.032,352.961 141.757,353.854 141.446,354.739 C141.291,355.181 141.126,355.621 140.954,356.057 C140.611,356.929 140.236,357.788 139.831,358.633 C139.426,359.478 138.991,360.31 138.526,361.123 C138.294,361.53 138.054,361.932 137.808,362.33 L137.808,362.332 C137.068,363.527 136.263,364.681 135.399,365.789 C134.535,366.899 133.612,367.962 132.634,368.971 C132.308,369.307 131.976,369.637 131.638,369.961 C130.623,370.934 129.557,371.851 128.44,372.705 L128.438,372.705 C127.248,373.617 126.004,374.454 124.716,375.217 C124.072,375.599 123.418,375.961 122.753,376.305 L122.751,376.305 C121.421,376.992 120.052,377.604 118.653,378.137 L118.651,378.137 C117.952,378.403 117.245,378.65 116.532,378.877 C113.676,379.787 110.719,380.382 107.733,380.647 C106.987,380.713 106.24,380.759 105.491,380.784 C102.497,380.883 99.4919,380.65 96.5535,380.069 C95.8193,379.924 95.0889,379.756 94.364,379.567 C93.1014,379.238 91.8584,378.846 90.6394,378.395 C86.3731,376.818 82.3881,374.521 78.7897,371.703 C78.2757,371.301 77.7683,370.889 77.2703,370.465 C74.2822,367.925 71.5885,365.021 69.2566,361.877 C63.0382,353.494 59.385,343.531 56.0086,333.655 L34.5476,270.879 C32.7196,265.532 30.9192,260.154 29.8562,254.604 C29.1919,251.136 28.8181,247.601 28.8248088,244.073 L28.8248088,244.071 C28.8248088,241.953 28.9699,239.838 29.2683,237.741 C29.2763,237.702 29.2825,237.664 29.2876,237.625 C30.4265,229.785 33.9378,222.295 39.2152,216.418 C39.7844,215.564 40.4292,214.751 41.1723,214.008 L78.1966,179.458 C80.6373,177.017 83.6201,174.655 87.2318,173.444 C87.7266,173.263 88.2305,173.099 88.7512,172.966 L94.0481,171.546 L94.0481,171.571 L94.1301,171.55 C94.2356,169.68 94.4264,167.82 94.7884,165.983 C95.5304,162.217 96.9777,158.564 99.2278,155.454 C101.478,152.343 104.511,149.806 107.966,148.134 C111.422,146.461 115.274,145.649 119.113,145.649 C122.952,145.649 126.803,146.461 130.259,148.134 C133.715,149.806 136.747,152.343 138.997,155.454 C139.799,156.561 140.493,157.74 141.095,158.966 L193.631,144.887 C195.051,144.507 196.517,144.316985 197.988,144.316985 L197.984,144.316985 Z M158.672,188.914 L152.582,190.545 L151.192,190.918 L151.192,190.998 L158.672,188.914 Z" id="Shape" fill="#000000" fill-rule="nonzero" opacity="0.0637329"></path>
            <path d="M214.279,198.719984 C217.96,198.725 221.536,199.944 224.454,202.186 C227.373,204.429 229.47,207.571 230.423,211.127 C231.572,215.415 230.97,219.984 228.75,223.828 C226.531,227.673 222.875,230.478 218.586,231.627 L114.056,259.637 C111.932,260.206 109.718,260.351 107.538,260.064 C105.359,259.777 103.257,259.064 101.353,257.965 C99.4493,256.866 97.7807,255.402 96.4425,253.658 C95.1042,251.914 94.1227,249.923 93.5538,247.8 C92.405,243.512 93.0066,238.943 95.2264,235.099 C97.4462,231.254 101.102,228.449 105.39,227.3 L209.923,199.29 C211.344,198.909 212.808,198.718 214.279,198.719984 Z" id="Path" fill="#FFFFFF" fill-rule="nonzero"></path>
            <path d="M198.658,136.911985 C206.226,136.923 212.845,142.009 214.804,149.319 C217.196,158.249 211.897,167.427 202.967,169.819 L106.376,195.701 L65.7326,231.07 C59.1956,237.608 48.5966,237.608 42.0596,231.07 C35.5222,224.533 35.3037,213.139 41.8411,206.602 L78.8664,172.053 C81.562,169.357 84.9099,166.741 89.0468,165.685 L194.302,137.483 C195.723,137.102 197.187,136.91 198.658,136.911985 Z" id="Path" fill="#FFFFFF" fill-rule="nonzero"></path>
            <path d="M190.514,236.492985 C194.194,236.499 197.77,237.717 200.689,239.96 C203.607,242.203 205.705,245.345 206.657,248.9 C207.806,253.189 207.204,257.757 204.985,261.602 C202.765,265.446 199.109,268.252 194.821,269.401 L90.2899,297.41 C88.1666,297.979 85.9519,298.125 83.7724,297.838 C81.5929,297.551 79.4913,296.837 77.5875,295.738 C75.6837,294.639 74.015,293.176 72.6768,291.432 C71.3386,289.688 70.357,287.697 69.7881,285.574 C68.6394,281.286 69.241,276.717 71.4608,272.872 C73.6805,269.028 77.3366,266.223 81.6246,265.074 L186.157,237.064 C187.578,236.683 189.043,236.491 190.514,236.492985 Z" id="Path" fill="#FFFFFF" fill-rule="nonzero"></path>
            <path d="M226.547,204.098 C228.39,206.092 229.72,208.504 230.423,211.127 C232.815,220.056 227.516,229.235 218.586,231.627 L114.055,259.637 C105.125,262.03 95.9461,256.73 93.5536,247.8 C92.1502,242.56 93.3737,236.964 96.8359,232.788 C101.055,237.353 107.456,246.706 113.46,245.097 L217.991,217.087 C225.064,215.192 227.513,210.195 226.547,204.098 Z" id="Path" fill="#DEDDDA" fill-rule="nonzero"></path>
            <path d="M224.942,163.881985 C232.509,163.893 239.128,168.98 241.086,176.289 C243.478,185.219 238.179,194.397 229.249,196.789 L104.632,231.494 C95.7018,233.888 86.5226,228.588 84.1301,219.658 C81.7378,210.728 87.0372,201.55 95.9666,199.158 L220.586,164.453 C222.006,164.072 223.471,163.88 224.942,163.881985 Z" id="Path" fill="#FFFFFF" fill-rule="nonzero"></path>
            <path d="M237.21,169.26 C239.053,171.254 240.383,173.667 241.086,176.289 C243.478,185.219 238.179,194.397 229.249,196.789 L124.718,224.799 C115.788,227.192 106.609,221.893 104.217,212.963 C102.813,207.722 104.037,207.148 107.499,202.972 C111.718,207.537 118.119,209.388 124.123,207.779 L228.654,179.769 C235.137,178.032 238.659,172.774 237.21,169.26 Z" id="Path" fill="#DEDDDA" fill-rule="nonzero"></path>
            <path d="M202.781,241.871 C204.624,243.865 205.954,246.278 206.657,248.9 C209.049,257.83 203.75,267.008 194.821,269.4 L90.2897,297.41 C81.3597,299.803 72.1804,294.504 69.7879,285.574 C68.3846,280.333 69.608,274.738 73.0703,270.561 C77.2893,275.126 83.6905,284.15 89.6947,282.542 L194.226,254.532 C201.469,252.591 204.416,247.972 202.781,241.871 Z" id="Path" fill="#DEDDDA" fill-rule="nonzero"></path>
            <path d="M210.928,142.29 C212.771,144.284 214.101,146.696 214.804,149.319 C217.196,158.249 211.897,167.427 202.967,169.819 L98.4362,197.829 L97.8412,182.483 L202.372,154.473 C209.777,152.489 212.783,148.173 210.928,142.29 Z" id="Path" fill="#DEDDDA" fill-rule="nonzero"></path>
            <path d="M131.737,150.949 C120.585,150.949 111.607,159.927 111.607,171.079 L111.607,266.111 C111.607,277.263 120.585,286.241 131.737,286.241 C142.889,286.241 167.586,273.149 167.586,261.997 L167.586,261.697 C165.804,258.106 164.144,252.126 167.586,245.252 L159.237,232.943 C157.434,227.345 155.33,221.777 159.237,215.609 L155.238,199.408 C152.703,195.631 150.937,188.042 155.238,182.795 L151.867,171.079 C148.783,160.362 142.889,150.949 131.737,150.949 Z" id="Path" fill="#DEDDDA" fill-rule="nonzero"></path>
            <path d="M119.781,138.244 C123.62,138.244 127.472,139.055 130.928,140.728 C134.383,142.4 137.416,144.938 139.666,148.049 C141.916,151.159 143.363,154.811 144.105,158.578 C144.847,162.344 144.89,166.209 144.89,170.048 L144.89,325.127 C144.89,332.627 144.605,340.258 142.117,347.333 C139.629,354.408 135.066,360.742 129.111,365.299 C119.585,372.589 106.641,375.185 95.0329,372.161 C84.9322,369.53 76.146,362.854 69.9276,354.471 C63.7092,346.087 60.0556,336.125 56.6791,326.249 L35.2178,263.472 C33.3898,258.126 31.59,252.748 30.527,247.198 C29.464,241.648 29.1424,235.929 29.9381,230.334 C31.5294,219.145 37.9425,208.639 47.451,202.531 C54.6857,197.884 63.5199,195.78 72.0728,196.668 C80.6256,197.555 88.8395,201.428 94.9658,207.462 L94.6732,243.508 L94.6732,170.048 C94.6732,166.209 94.7161,162.344 95.4582,158.578 C96.2002,154.811 97.6468,151.159 99.8969,148.049 C102.147,144.938 105.18,142.4 108.635,140.728 C112.091,139.055 115.942,138.244 119.781,138.244 Z" id="Path" fill="#FFFFFF" fill-rule="nonzero"></path>
            <path d="M94.4528,211.582 C94.4528,211.582 94.6832,235.558 94.2614,243.273 C93.8397,250.989 88.865,252.525 88.865,252.525 L88.822,252.42 L73.3708,259.77 L87.8942,250.162 L82.9997,237.92 C80.0594,230.995 82.11,225.568 87.1247,221.289 L94.4528,211.582 Z" id="Path" fill="#DEDDDA" fill-rule="nonzero"></path>
            <path d="M29.958,230.219 C30.1138,231.417 30.2993,232.611 30.5264,233.797 C31.5894,239.347 33.3898,244.725 35.2178,250.072 L56.6787,312.848 C60.0552,322.724 63.7084,332.687 69.9268,341.07 C76.1452,349.454 84.9315,356.128 95.0322,358.76 C106.64,361.784 119.585,359.189 129.11,351.898 C135.066,347.341 139.628,341.006 142.116,333.932 C144.604,326.857 144.89,319.226 144.89,311.727 L144.89,325.127 C144.89,332.626 144.604,340.257 142.116,347.332 C139.628,354.407 135.066,360.741 129.11,365.299 C119.585,372.589 106.64,375.184 95.0322,372.16 C84.9315,369.529 76.1452,362.854 69.9268,354.471 C63.7084,346.087 60.0552,336.125 56.6787,326.248 L35.2178,263.473 C33.3898,258.126 31.5894,252.747 30.5264,247.197 C29.4633,241.647 29.1428,235.928 29.9385,230.334 C29.944,230.295 29.9524,230.257 29.958,230.219 Z" id="Path" fill="#DEDDDA" fill-rule="nonzero"></path>
            <path d="M94.7178,164.141 L94.585,215.699 L86.7099,220.65 C89.4337,215.281 92.2746,173.077 77.4395,173.414 C77.4395,173.414 81.1943,169.568 83.8952,167.916 C85.4242,166.981 87.6024,166.025 89.4209,165.561 L94.7178,164.141 Z" id="Path" fill="#DEDDDA" fill-rule="nonzero"></path>
        </g>
    </g>
</svg>
