
<svg width="800px" height="600px" viewBox="0 0 800 600" version="1.1" xmlns="http://www.w3.org/2000/svg" xmlns:xlink="http://www.w3.org/1999/xlink">
    <defs>
        <linearGradient x1="72.9756306%" y1="40.9317087%" x2="13.8696013%" y2="61.6100196%" id="linearGradient-voq-183nck-1">
            <stop stop-color="#2EC27E" offset="0%"></stop>
            <stop stop-color="#99C1F1" offset="100%"></stop>
        </linearGradient>
        <path d="M326.663313,0 L9.31593573,0 C4.17086589,0 0,4.17585775 0,9.32708309 L0,155.689311 C0,160.840713 4.17086589,165.016713 9.31593573,165.016713 L326.663313,165.016713 C331.808383,165.016713 335.979249,160.840713 335.979249,155.689311 L335.979249,9.32708309 C335.979249,4.17585775 331.808383,0 326.663313,0 Z" id="path-voq-183nck-2"></path>
        <polygon id="path-voq-183nck-4" points="0 0 0 145.62386 316.610978 145.62386 316.610978 0"></polygon>
    </defs>
    <g id="Page-1" stroke="none" stroke-width="1" fill="none" fill-rule="evenodd">
        <g id="Group" transform="translate(15, 96)">
            <g>
                <path d="M32.0833266,22.9376447 C32.0833266,27.1881405 33.7734763,31.2644304 36.7817694,34.2700031 C39.790223,37.2754155 43.87042,38.9639467 48.12499,38.9639467 L80.208477,38.9639467 C82.3147474,38.9639467 84.4001637,39.3785471 86.3476216,40.1838688 C88.2934754,40.9893508 90.0612667,42.1696879 91.5515372,43.6578903 C93.0418077,45.1460927 94.2224741,46.9128322 95.0293698,48.8573035 C95.8346613,50.8016144 96.2501404,52.8856747 96.2501404,54.9902487 C96.2501404,59.2407445 94.5593491,63.3170344 91.5515372,66.3226071 C88.5437253,69.3280195 84.4627262,71.0165507 80.208477,71.0165507 C75.9542279,71.0165507 71.8732288,72.7050819 68.8654169,75.7104943 C65.8560009,78.716067 64.1668137,82.7923569 64.1668137,87.0428527 C64.1668137,89.1474267 64.5822928,91.231487 65.3875843,93.1757979 C66.19448,95.1202691 67.3751464,96.8870087 68.8654169,98.3752111 C70.3540833,99.8634135 72.1234787,101.043751 74.0693325,101.849233 C76.0151862,102.654554 78.1022066,103.069155 80.208477,103.069155 L112.291804,103.069155 C114.398074,103.069155 116.48349,103.484236 118.430948,104.288756 C120.376802,105.094879 122.144593,106.274415 123.634864,107.763259 C125.125134,109.252102 126.305801,111.0182 127.112696,112.962191 C127.917988,114.906181 128.333467,116.991203 128.333467,119.095457 C128.333467,121.19971 127.917988,123.284732 127.112696,125.228722 C126.305801,127.172713 125.125134,128.938811 123.634864,130.427655 C122.144593,131.916498 120.376802,133.096034 118.430948,133.902157 C116.48349,134.706677 114.398074,135.121759 112.291804,135.121759 L16.0416633,135.121759 C11.7870934,135.121759 7.70689631,136.810931 4.69844277,139.815863 C1.69014965,142.820794 0,146.897885 0,151.148061 C0,153.252314 0.41499783,155.337336 1.22109141,157.281326 C2.02734541,159.225317 3.20897433,160.991415 4.69844277,162.480259 C6.18807163,163.969102 7.95650459,165.148638 9.9028396,165.954761 C11.8490142,166.759281 13.9350721,167.174363 16.0416633,167.174363 L111.877929,167.174363 C113.984199,167.174363 116.07122,167.589444 118.017073,168.393964 C119.962927,169.200087 121.732323,170.379623 123.220989,171.868466 C124.711259,173.35731 125.891926,175.123408 126.698822,177.067399 C127.504113,179.011389 127.919592,181.096411 127.919592,183.200665 C127.919592,185.304918 127.504113,187.38994 126.698822,189.33393 C125.891926,191.277921 124.711259,193.044019 123.220989,194.532863 C121.732323,196.021706 119.962927,197.201242 118.017073,198.007365 C116.07122,198.811885 113.984199,199.226967 111.877929,199.226967 C109.798929,199.254211 107.745596,199.690127 105.83343,200.510673 C103.922868,201.329617 102.193577,202.518769 100.741806,204.00601 C99.2900356,205.494853 98.146265,207.254541 97.3762651,209.184108 C96.6062653,211.113675 96.2228695,213.17626 96.2501404,215.253269 C96.2501404,217.357522 96.6656194,219.442544 97.4709109,221.386534 C98.2778066,223.330525 99.458473,225.096623 100.948744,226.585467 C102.43741,228.07431 104.206805,229.253846 106.152659,230.059969 C108.098513,230.864489 110.185533,231.279571 112.291804,231.279571 L144.37513,231.279571 C146.481401,231.279571 148.566817,231.694652 150.514275,232.499172 C152.460129,233.305295 154.22792,234.484831 155.71819,235.973674 C157.208461,237.462518 158.389127,239.228616 159.196023,241.172607 C160.001315,243.116597 160.416794,245.201619 160.416794,247.305873 C160.416794,249.410126 160.001315,251.495148 159.196023,253.439138 C158.389127,255.383129 157.208461,257.149227 155.71819,258.638071 C154.22792,260.126914 152.460129,261.30645 150.514275,262.112573 C148.566817,262.917093 146.481401,263.332175 144.37513,263.332175 L48.12499,263.332175 C43.87042,263.332175 39.790223,265.021347 36.7817694,268.026278 C33.7734763,271.03121 32.0833266,275.108301 32.0833266,279.358477 C32.0833266,283.608652 33.7734763,287.685743 36.7817694,290.690675 C39.790223,293.695606 43.87042,295.384779 48.12499,295.384779 L80.208477,295.384779 C82.3147474,295.384779 84.4001637,295.79986 86.3476216,296.60438 C88.2934754,297.410503 90.0612667,298.590039 91.5515372,300.078882 C93.0418077,301.567726 94.2224741,303.333824 95.0293698,305.277815 C95.8346613,307.221805 96.2501404,309.306827 96.2501404,311.411081 C96.2501404,315.661256 94.5593491,319.738347 91.5515372,322.743279 C88.5437253,325.74821 84.4627262,327.437383 80.208477,327.437383 L80.1731854,327.437383 C78.066915,327.437383 75.9814988,327.852464 74.035645,328.656984 C72.0881871,329.463107 70.3203958,330.642643 68.8301252,332.131486 C67.3414589,333.62033 66.1591883,335.386428 65.3538968,337.330419 C64.5470011,339.274409 64.1315221,341.359431 64.1315221,343.463685 C64.1315221,347.71386 65.8223134,351.790951 68.8301252,354.795883 C71.8395413,357.800814 75.9189363,359.489987 80.1731854,359.489987 L239.81661,359.489987 C241.922881,359.489987 244.009901,359.905068 245.955755,360.709588 C247.901609,361.515711 249.6694,362.695247 251.159671,364.18409 C252.649941,365.672934 253.830608,367.439032 254.637503,369.383023 C255.442795,371.327013 255.858274,373.412035 255.858274,375.516288 C255.858274,377.620542 256.273753,379.705564 257.079044,381.649554 C257.88594,383.593545 259.066606,385.359643 260.556877,386.848487 C262.047147,388.33733 263.814939,389.516866 265.760793,390.322989 C267.706646,391.127509 269.793667,391.54259 271.899937,391.54259 L753.676003,391.54259 C757.930253,391.54259 762.011252,389.853418 765.019064,386.848487 C768.02848,383.843555 769.717667,379.766464 769.717667,375.516288 C769.717667,371.266113 768.02848,367.189022 765.019064,364.18409 C762.011252,361.179159 757.930253,359.489987 753.676003,359.489987 L721.87501,359.489987 C717.620761,359.489987 713.539762,357.800814 710.53195,354.795883 C707.522534,351.790951 705.833347,347.71386 705.833347,343.463685 C705.833347,341.359431 705.417868,339.274409 704.612576,337.330419 C703.80568,335.386428 702.625014,333.62033 701.134744,332.131486 C699.644473,330.642643 697.876682,329.463107 695.930828,328.656984 C693.98337,327.852464 691.897954,327.437383 689.791683,327.437383 L625.62503,327.437383 C623.51876,327.437383 621.431739,327.022301 619.485886,326.217781 C617.540032,325.411658 615.770636,324.232122 614.28197,322.743279 C612.791699,321.254435 611.611033,319.488337 610.804137,317.544346 C609.998846,315.600356 609.583367,313.515334 609.583367,311.411081 C609.583367,307.160905 611.272554,303.083814 614.28197,300.078882 C617.289782,297.073951 621.370781,295.384779 625.62503,295.384779 L689.791683,295.384779 C691.897954,295.384779 693.98337,294.969697 695.930828,294.165177 C697.876682,293.359054 699.644473,292.179518 701.134744,290.690675 C702.625014,289.201831 703.80568,287.435733 704.612576,285.491742 C705.417868,283.547752 705.833347,281.46273 705.833347,279.358477 C705.833347,275.108301 704.142555,271.03121 701.134744,268.026278 C698.126932,265.021347 694.045932,263.332175 689.791683,263.332175 C685.537434,263.332175 681.456435,261.643002 678.448623,258.638071 C675.439207,255.633139 673.75002,251.556048 673.75002,247.305873 C673.75002,243.055697 675.439207,238.978606 678.448623,235.973674 C681.456435,232.968743 685.537434,231.279571 689.791683,231.279571 L753.958337,231.279571 C756.064607,231.279571 758.150023,230.864489 760.097481,230.059969 C762.043335,229.253846 763.811126,228.07431 765.301397,226.585467 C766.791667,225.096623 767.972334,223.330525 768.779229,221.386534 C769.584521,219.442544 770,217.357522 770,215.253269 C770,211.003093 768.309209,206.926002 765.301397,203.92107 C762.293585,200.916139 758.212586,199.226967 753.958337,199.226967 L593.541703,199.226967 C591.435433,199.226967 589.348413,198.811885 587.402559,198.007365 C585.456705,197.201242 583.68731,196.021706 582.198643,194.532863 C580.708373,193.044019 579.527706,191.277921 578.720811,189.33393 C577.915519,187.38994 577.50004,185.304918 577.50004,183.200665 C577.50004,181.096411 577.915519,179.011389 578.720811,177.067399 C579.527706,175.123408 580.708373,173.35731 582.198643,171.868466 C583.68731,170.379623 585.456705,169.200087 587.402559,168.393964 C589.348413,167.589444 591.435433,167.174363 593.541703,167.174363 L657.708357,167.174363 C661.962606,167.174363 666.043605,165.48519 669.051417,162.480259 C672.059229,159.475327 673.75002,155.398236 673.75002,151.148061 C673.75002,149.043807 673.334541,146.958785 672.529249,145.014795 C671.722354,143.070804 670.541687,141.304706 669.051417,139.815863 C667.561146,138.327019 665.793355,137.147483 663.847501,136.34136 C661.900043,135.53684 659.814627,135.121759 657.708357,135.121759 C653.454108,135.121759 649.373108,133.432586 646.365297,130.427655 C643.355881,127.422723 641.666693,123.345632 641.666693,119.095457 C641.666693,116.991203 642.082172,114.906181 642.887464,112.962191 C643.69436,111.0182 644.875026,109.252102 646.365297,107.763259 C647.853963,106.274415 649.623358,105.094879 651.569212,104.288756 C653.515066,103.484236 655.602086,103.069155 657.708357,103.069155 L721.87501,103.069155 C726.129259,103.069155 730.210258,101.380623 733.21807,98.3752111 C736.225882,95.3696384 737.916673,91.2933485 737.916673,87.0428527 C737.916673,82.7923569 736.225882,78.716067 733.21807,75.7104943 C730.210258,72.7050819 726.129259,71.0165507 721.87501,71.0165507 L625.62503,71.0165507 C623.51876,71.0165507 621.431739,70.6019503 619.485886,69.7966286 C617.540032,68.9911466 615.770636,67.8108095 614.28197,66.3226071 C612.791699,64.8344047 611.611033,63.0676652 610.804137,61.1231939 C609.998846,59.178883 609.583367,57.0948227 609.583367,54.9902487 C609.583367,50.7397529 611.272554,46.663463 614.28197,43.6578903 C617.289782,40.6524779 621.370781,38.9639467 625.62503,38.9639467 L689.791683,38.9639467 C694.045932,38.9639467 698.126932,37.2754155 701.134744,34.2700031 C704.142555,31.2644304 705.833347,27.1881405 705.833347,22.9376447 C705.833347,18.6871489 704.142555,14.610859 701.134744,11.6052863 C698.126932,8.59987391 694.045932,6.91134273 689.791683,6.91134273 L48.12499,6.91134273 C43.87042,6.91134273 39.790223,8.59987391 36.7817694,11.6052863 C33.7734763,14.610859 32.0833266,18.6871489 32.0833266,22.9376447 Z" id="Path" fill="url(#linearGradient-voq-183nck-1)" fill-rule="nonzero"></path>
                <path d="M662.243335,113.769917 L440.407985,113.769917 C436.458528,113.769917 433.258216,116.967164 433.258216,120.911237 L433.258216,250.793196 C433.258216,254.738871 436.458528,257.936119 440.407985,257.936119 L662.243335,257.936119 C666.192792,257.936119 669.393104,254.738871 669.393104,250.793196 L669.393104,120.911237 C669.393104,116.967164 666.192792,113.769917 662.243335,113.769917 Z" id="Path" fill="#000000" fill-rule="nonzero"></path>
                <path d="M662.243335,263.833798 L440.407985,263.833798 C436.458528,263.833798 433.258216,267.031045 433.258216,270.976721 L433.258216,400.857077 C433.258216,404.802753 436.458528,408 440.407985,408 L662.243335,408 C666.192792,408 669.393104,404.802753 669.393104,400.857077 L669.393104,270.976721 C669.393104,267.031045 666.192792,263.833798 662.243335,263.833798 Z" id="Path" fill-opacity="0.102362" fill="#000000" fill-rule="nonzero"></path>
                <path d="M662.243335,261.211895 L440.407985,261.211895 C436.458528,261.211895 433.258216,264.410745 433.258216,268.354818 L433.258216,398.236777 C433.258216,402.18085 436.458528,405.378097 440.407985,405.378097 L662.243335,405.378097 C666.192792,405.378097 669.393104,402.18085 669.393104,398.236777 L669.393104,268.354818 C669.393104,264.410745 666.192792,261.211895 662.243335,261.211895 Z" id="Path" fill="#DEDDDA" fill-rule="nonzero"></path>
                <path d="M662.243335,257.936119 L440.407985,257.936119 C436.458528,257.936119 433.258216,261.133366 433.258216,265.079041 L433.258216,394.959398 C433.258216,398.905074 436.458528,402.102321 440.407985,402.102321 L662.243335,402.102321 C666.192792,402.102321 669.393104,398.905074 669.393104,394.959398 L669.393104,265.079041 C669.393104,261.133366 666.192792,257.936119 662.243335,257.936119 Z" id="Path" fill="#F6F5F4" fill-rule="nonzero"></path>
                <path d="M651.420025,271.042428 L451.229691,271.042428 C448.549129,271.042428 446.377088,273.21239 446.377088,275.890385 L446.377088,338.275971 C446.377088,340.953966 448.549129,343.12553 451.229691,343.12553 L651.420025,343.12553 C654.100587,343.12553 656.274232,340.953966 656.274232,338.275971 L656.274232,275.890385 C656.274232,273.21239 654.100587,271.042428 651.420025,271.042428 Z" id="Path" fill="#C0BFBC" fill-rule="nonzero"></path>
                <path d="M651.420025,272.351777 L451.229691,272.351777 C448.549129,272.351777 446.377088,274.523341 446.377088,277.201336 L446.377088,339.586922 C446.377088,342.264917 448.549129,344.436481 451.229691,344.436481 L651.420025,344.436481 C654.100587,344.436481 656.274232,342.264917 656.274232,339.586922 L656.274232,277.201336 C656.274232,274.523341 654.100587,272.351777 651.420025,272.351777 Z" id="Path" fill="#DEDDDA" fill-rule="nonzero"></path>
                <path d="M627.989571,244.829809 L474.660145,244.829809 C473.530812,244.829809 472.613229,245.744911 472.613229,246.874765 L472.613229,261.133366 C472.613229,262.26322 473.530812,263.178322 474.660145,263.178322 L627.989571,263.178322 C629.120509,263.178322 630.036487,262.26322 630.036487,261.133366 L630.036487,246.874765 C630.036487,245.744911 629.120509,244.829809 627.989571,244.829809 Z" id="Path" fill="#000000" fill-rule="nonzero"></path>
                <path d="M576.973874,349.678684 L525.679051,349.678684 C521.731198,349.678684 518.529282,352.875932 518.529282,356.821607 L518.529282,381.854691 C518.529282,385.798764 521.731198,388.996011 525.679051,388.996011 L576.973874,388.996011 C580.921727,388.996011 584.122039,385.798764 584.122039,381.854691 L584.122039,356.821607 C584.122039,352.875932 580.921727,349.678684 576.973874,349.678684 Z" id="Path" fill="#DEDDDA" fill-rule="nonzero"></path>
                <path d="M661.689898,117.774889 L440.963027,117.774889 C438.807027,117.774889 437.06009,119.520154 437.06009,121.674089 L437.06009,250.033549 C437.06009,252.185882 438.807027,253.931146 440.963027,253.931146 L661.689898,253.931146 C663.844293,253.931146 665.592834,252.185882 665.592834,250.033549 L665.592834,121.674089 C665.592834,119.520154 663.844293,117.774889 661.689898,117.774889 Z" id="Path" fill="#D85692" fill-rule="nonzero"></path>
                <path d="M611.128179,326.741841 L501.363098,326.741841 C499.975494,326.741841 498.852577,327.865285 498.852577,329.25156 L498.852577,337.340035 C498.852577,338.724707 499.975494,339.848151 501.363098,339.848151 L611.128179,339.848151 C612.515783,339.848151 613.640303,338.724707 613.640303,337.340035 L613.640303,329.25156 C613.640303,327.865285 612.515783,326.741841 611.128179,326.741841 Z" id="Path" fill="#241F31" fill-rule="nonzero"></path>
                <path d="M630.804883,326.741841 L619.42974,326.741841 C618.042136,326.741841 616.917615,327.865285 616.917615,329.25156 L616.917615,337.340035 C616.917615,338.724707 618.042136,339.848151 619.42974,339.848151 L630.804883,339.848151 C632.192487,339.848151 633.315403,338.724707 633.315403,337.340035 L633.315403,329.25156 C633.315403,327.865285 632.192487,326.741841 630.804883,326.741841 Z" id="Path" fill="#241F31" fill-rule="nonzero"></path>
                <path d="M650.484796,326.741841 L639.108048,326.741841 C637.722048,326.741841 636.597528,327.865285 636.597528,329.25156 L636.597528,337.340035 C636.597528,338.724707 637.722048,339.848151 639.108048,339.848151 L650.484796,339.848151 C651.870795,339.848151 652.995316,338.724707 652.995316,337.340035 L652.995316,329.25156 C652.995316,327.865285 651.870795,326.741841 650.484796,326.741841 Z" id="Path" fill="#241F31" fill-rule="nonzero"></path>
                <path d="M637.364319,310.359755 L629.268092,310.359755 C627.882092,310.359755 626.757572,311.483199 626.757572,312.869474 L626.757572,320.957949 C626.757572,322.342621 627.882092,323.466065 629.268092,323.466065 L637.364319,323.466065 C638.751923,323.466065 639.876444,322.342621 639.876444,320.957949 L639.876444,312.869474 C639.876444,311.483199 638.751923,310.359755 637.364319,310.359755 Z" id="Path" fill="#241F31" fill-rule="nonzero"></path>
                <path d="M620.966531,310.359755 L609.591388,310.359755 C608.203784,310.359755 607.079263,311.483199 607.079263,312.869474 L607.079263,320.957949 C607.079263,322.342621 608.203784,323.466065 609.591388,323.466065 L620.966531,323.466065 C622.354135,323.466065 623.478656,322.342621 623.478656,320.957949 L623.478656,312.869474 C623.478656,311.483199 622.354135,310.359755 620.966531,310.359755 Z" id="Path" fill="#241F31" fill-rule="nonzero"></path>
                <path d="M601.289827,310.359755 L589.913079,310.359755 C588.527079,310.359755 587.402559,311.483199 587.402559,312.869474 L587.402559,320.957949 C587.402559,322.342621 588.527079,323.466065 589.913079,323.466065 L601.289827,323.466065 C602.675827,323.466065 603.800347,322.342621 603.800347,320.957949 L603.800347,312.869474 C603.800347,311.483199 602.675827,310.359755 601.289827,310.359755 Z" id="Path" fill="#241F31" fill-rule="nonzero"></path>
                <path d="M581.611518,310.359755 L570.236375,310.359755 C568.848771,310.359755 567.72425,311.483199 567.72425,312.869474 L567.72425,320.957949 C567.72425,322.342621 568.848771,323.466065 570.236375,323.466065 L581.611518,323.466065 C582.999122,323.466065 584.122039,322.342621 584.122039,320.957949 L584.122039,312.869474 C584.122039,311.483199 582.999122,310.359755 581.611518,310.359755 Z" id="Path" fill="#241F31" fill-rule="nonzero"></path>
                <path d="M561.931606,310.359755 L550.556462,310.359755 C549.168859,310.359755 548.045942,311.483199 548.045942,312.869474 L548.045942,320.957949 C548.045942,322.342621 549.168859,323.466065 550.556462,323.466065 L561.931606,323.466065 C563.31921,323.466065 564.44373,322.342621 564.44373,320.957949 L564.44373,312.869474 C564.44373,311.483199 563.31921,310.359755 561.931606,310.359755 Z" id="Path" fill="#241F31" fill-rule="nonzero"></path>
                <path d="M542.254902,310.359755 L530.878154,310.359755 C529.492154,310.359755 528.367634,311.483199 528.367634,312.869474 L528.367634,320.957949 C528.367634,322.342621 529.492154,323.466065 530.878154,323.466065 L542.254902,323.466065 C543.640901,323.466065 544.765422,322.342621 544.765422,320.957949 L544.765422,312.869474 C544.765422,311.483199 543.640901,310.359755 542.254902,310.359755 Z" id="Path" fill="#241F31" fill-rule="nonzero"></path>
                <path d="M522.576593,310.359755 L511.20145,310.359755 C509.813846,310.359755 508.689325,311.483199 508.689325,312.869474 L508.689325,320.957949 C508.689325,322.342621 509.813846,323.466065 511.20145,323.466065 L522.576593,323.466065 C523.964197,323.466065 525.088718,322.342621 525.088718,320.957949 L525.088718,312.869474 C525.088718,311.483199 523.964197,310.359755 522.576593,310.359755 Z" id="Path" fill="#241F31" fill-rule="nonzero"></path>
                <path d="M502.899889,310.359755 L491.523141,310.359755 C490.137142,310.359755 489.012621,311.483199 489.012621,312.869474 L489.012621,320.957949 C489.012621,322.342621 490.137142,323.466065 491.523141,323.466065 L502.899889,323.466065 C504.285889,323.466065 505.410409,322.342621 505.410409,320.957949 L505.410409,312.869474 C505.410409,311.483199 504.285889,310.359755 502.899889,310.359755 Z" id="Path" fill="#241F31" fill-rule="nonzero"></path>
                <path d="M483.221581,310.359755 L471.846437,310.359755 C470.458833,310.359755 469.334313,311.483199 469.334313,312.869474 L469.334313,320.957949 C469.334313,322.342621 470.458833,323.466065 471.846437,323.466065 L483.221581,323.466065 C484.609184,323.466065 485.732101,322.342621 485.732101,320.957949 L485.732101,312.869474 C485.732101,311.483199 484.609184,310.359755 483.221581,310.359755 Z" id="Path" fill="#241F31" fill-rule="nonzero"></path>
                <path d="M630.804883,293.977669 L619.42974,293.977669 C618.042136,293.977669 616.917615,295.101113 616.917615,296.485785 L616.917615,304.57426 C616.917615,305.960535 618.042136,307.083979 619.42974,307.083979 L630.804883,307.083979 C632.192487,307.083979 633.315403,305.960535 633.315403,304.57426 L633.315403,296.485785 C633.315403,295.101113 632.192487,293.977669 630.804883,293.977669 Z" id="Path" fill="#241F31" fill-rule="nonzero"></path>
                <path d="M611.126575,293.977669 L599.751431,293.977669 C598.363827,293.977669 597.240911,295.101113 597.240911,296.485785 L597.240911,304.57426 C597.240911,305.960535 598.363827,307.083979 599.751431,307.083979 L611.126575,307.083979 C612.514179,307.083979 613.638699,305.960535 613.638699,304.57426 L613.638699,296.485785 C613.638699,295.101113 612.514179,293.977669 611.126575,293.977669 Z" id="Path" fill="#241F31" fill-rule="nonzero"></path>
                <path d="M591.449871,293.977669 L580.073123,293.977669 C578.687123,293.977669 577.562603,295.101113 577.562603,296.485785 L577.562603,304.57426 C577.562603,305.960535 578.687123,307.083979 580.073123,307.083979 L591.449871,307.083979 C592.83587,307.083979 593.960391,305.960535 593.960391,304.57426 L593.960391,296.485785 C593.960391,295.101113 592.83587,293.977669 591.449871,293.977669 Z" id="Path" fill="#241F31" fill-rule="nonzero"></path>
                <path d="M571.771562,293.977669 L560.396419,293.977669 C559.008815,293.977669 557.884294,295.101113 557.884294,296.485785 L557.884294,304.57426 C557.884294,305.960535 559.008815,307.083979 560.396419,307.083979 L571.771562,307.083979 C573.159166,307.083979 574.283687,305.960535 574.283687,304.57426 L574.283687,296.485785 C574.283687,295.101113 573.159166,293.977669 571.771562,293.977669 Z" id="Path" fill="#241F31" fill-rule="nonzero"></path>
                <path d="M552.094858,293.977669 L540.71811,293.977669 C539.332111,293.977669 538.20759,295.101113 538.20759,296.485785 L538.20759,304.57426 C538.20759,305.960535 539.332111,307.083979 540.71811,307.083979 L552.094858,307.083979 C553.480858,307.083979 554.605378,305.960535 554.605378,304.57426 L554.605378,296.485785 C554.605378,295.101113 553.480858,293.977669 552.094858,293.977669 Z" id="Path" fill="#241F31" fill-rule="nonzero"></path>
                <path d="M532.416549,293.977669 L521.041406,293.977669 C519.653802,293.977669 518.529282,295.101113 518.529282,296.485785 L518.529282,304.57426 C518.529282,305.960535 519.653802,307.083979 521.041406,307.083979 L532.416549,307.083979 C533.804153,307.083979 534.92707,305.960535 534.92707,304.57426 L534.92707,296.485785 C534.92707,295.101113 533.804153,293.977669 532.416549,293.977669 Z" id="Path" fill="#241F31" fill-rule="nonzero"></path>
                <path d="M512.738241,293.977669 L501.363098,293.977669 C499.975494,293.977669 498.852577,295.101113 498.852577,296.485785 L498.852577,304.57426 C498.852577,305.960535 499.975494,307.083979 501.363098,307.083979 L512.738241,307.083979 C514.125845,307.083979 515.250366,305.960535 515.250366,304.57426 L515.250366,296.485785 C515.250366,295.101113 514.125845,293.977669 512.738241,293.977669 Z" id="Path" fill="#241F31" fill-rule="nonzero"></path>
                <path d="M493.059933,293.977669 L481.683185,293.977669 C480.297185,293.977669 479.172665,295.101113 479.172665,296.485785 L479.172665,304.57426 C479.172665,305.960535 480.297185,307.083979 481.683185,307.083979 L493.059933,307.083979 C494.445932,307.083979 495.570453,305.960535 495.570453,304.57426 L495.570453,296.485785 C495.570453,295.101113 494.445932,293.977669 493.059933,293.977669 Z" id="Path" fill="#241F31" fill-rule="nonzero"></path>
                <path d="M473.383228,293.977669 L452.168129,293.977669 C450.780525,293.977669 449.657608,295.101113 449.657608,296.485785 L449.657608,304.57426 C449.657608,305.960535 450.780525,307.083979 452.168129,307.083979 L473.383228,307.083979 C474.769228,307.083979 475.893749,305.960535 475.893749,304.57426 L475.893749,296.485785 C475.893749,295.101113 474.769228,293.977669 473.383228,293.977669 Z" id="Path" fill="#241F31" fill-rule="nonzero"></path>
                <path d="M650.483192,277.595583 L629.268092,277.595583 C627.882092,277.595583 626.757572,278.719027 626.757572,280.1037 L626.757572,288.192174 C626.757572,289.578449 627.882092,290.701893 629.268092,290.701893 L650.483192,290.701893 C651.870795,290.701893 652.995316,289.578449 652.995316,288.192174 L652.995316,280.1037 C652.995316,278.719027 651.870795,277.595583 650.483192,277.595583 Z" id="Path" fill="#241F31" fill-rule="nonzero"></path>
                <path d="M620.966531,277.595583 L609.591388,277.595583 C608.203784,277.595583 607.079263,278.719027 607.079263,280.1037 L607.079263,288.192174 C607.079263,289.578449 608.203784,290.701893 609.591388,290.701893 L620.966531,290.701893 C622.354135,290.701893 623.478656,289.578449 623.478656,288.192174 L623.478656,280.1037 C623.478656,278.719027 622.354135,277.595583 620.966531,277.595583 Z" id="Path" fill="#241F31" fill-rule="nonzero"></path>
                <path d="M601.289827,277.595583 L589.913079,277.595583 C588.527079,277.595583 587.402559,278.719027 587.402559,280.1037 L587.402559,288.192174 C587.402559,289.578449 588.527079,290.701893 589.913079,290.701893 L601.289827,290.701893 C602.675827,290.701893 603.800347,289.578449 603.800347,288.192174 L603.800347,280.1037 C603.800347,278.719027 602.675827,277.595583 601.289827,277.595583 Z" id="Path" fill="#241F31" fill-rule="nonzero"></path>
                <path d="M581.611518,277.595583 L570.236375,277.595583 C568.848771,277.595583 567.72425,278.719027 567.72425,280.1037 L567.72425,288.192174 C567.72425,289.578449 568.848771,290.701893 570.236375,290.701893 L581.611518,290.701893 C582.999122,290.701893 584.122039,289.578449 584.122039,288.192174 L584.122039,280.1037 C584.122039,278.719027 582.999122,277.595583 581.611518,277.595583 Z" id="Path" fill="#241F31" fill-rule="nonzero"></path>
                <path d="M561.931606,277.595583 L550.556462,277.595583 C549.168859,277.595583 548.045942,278.719027 548.045942,280.1037 L548.045942,288.192174 C548.045942,289.578449 549.168859,290.701893 550.556462,290.701893 L561.931606,290.701893 C563.31921,290.701893 564.44373,289.578449 564.44373,288.192174 L564.44373,280.1037 C564.44373,278.719027 563.31921,277.595583 561.931606,277.595583 Z" id="Path" fill="#241F31" fill-rule="nonzero"></path>
                <path d="M542.254902,277.595583 L530.878154,277.595583 C529.492154,277.595583 528.367634,278.719027 528.367634,280.1037 L528.367634,288.192174 C528.367634,289.578449 529.492154,290.701893 530.878154,290.701893 L542.254902,290.701893 C543.640901,290.701893 544.765422,289.578449 544.765422,288.192174 L544.765422,280.1037 C544.765422,278.719027 543.640901,277.595583 542.254902,277.595583 Z" id="Path" fill="#241F31" fill-rule="nonzero"></path>
                <path d="M522.576593,277.595583 L511.20145,277.595583 C509.813846,277.595583 508.689325,278.719027 508.689325,280.1037 L508.689325,288.192174 C508.689325,289.578449 509.813846,290.701893 511.20145,290.701893 L522.576593,290.701893 C523.964197,290.701893 525.088718,289.578449 525.088718,288.192174 L525.088718,280.1037 C525.088718,278.719027 523.964197,277.595583 522.576593,277.595583 Z" id="Path" fill="#241F31" fill-rule="nonzero"></path>
                <path d="M502.899889,277.595583 L491.523141,277.595583 C490.137142,277.595583 489.012621,278.719027 489.012621,280.1037 L489.012621,288.192174 C489.012621,289.578449 490.137142,290.701893 491.523141,290.701893 L502.899889,290.701893 C504.285889,290.701893 505.410409,289.578449 505.410409,288.192174 L505.410409,280.1037 C505.410409,278.719027 504.285889,277.595583 502.899889,277.595583 Z" id="Path" fill="#241F31" fill-rule="nonzero"></path>
                <path d="M483.221581,277.595583 L471.846437,277.595583 C470.458833,277.595583 469.334313,278.719027 469.334313,280.1037 L469.334313,288.192174 C469.334313,289.578449 470.458833,290.701893 471.846437,290.701893 L483.221581,290.701893 C484.609184,290.701893 485.732101,289.578449 485.732101,288.192174 L485.732101,280.1037 C485.732101,278.719027 484.609184,277.595583 483.221581,277.595583 Z" id="Path" fill="#241F31" fill-rule="nonzero"></path>
                <path d="M463.543272,277.595583 L452.168129,277.595583 C450.780525,277.595583 449.657608,278.719027 449.657608,280.1037 L449.657608,288.192174 C449.657608,289.578449 450.780525,290.701893 452.168129,290.701893 L463.543272,290.701893 C464.930876,290.701893 466.055397,289.578449 466.055397,288.192174 L466.055397,280.1037 C466.055397,278.719027 464.930876,277.595583 463.543272,277.595583 Z" id="Path" fill="#241F31" fill-rule="nonzero"></path>
                <path d="M463.543272,310.359755 L452.168129,310.359755 C450.780525,310.359755 449.657608,311.483199 449.657608,312.869474 L449.657608,320.957949 C449.657608,322.342621 450.780525,323.466065 452.168129,323.466065 L463.543272,323.466065 C464.930876,323.466065 466.055397,322.342621 466.055397,320.957949 L466.055397,312.869474 C466.055397,311.483199 464.930876,310.359755 463.543272,310.359755 Z" id="Path" fill="#241F31" fill-rule="nonzero"></path>
                <path d="M493.059933,326.741841 L481.683185,326.741841 C480.297185,326.741841 479.172665,327.865285 479.172665,329.25156 L479.172665,337.340035 C479.172665,338.724707 480.297185,339.848151 481.683185,339.848151 L493.059933,339.848151 C494.445932,339.848151 495.570453,338.724707 495.570453,337.340035 L495.570453,329.25156 C495.570453,327.865285 494.445932,326.741841 493.059933,326.741841 Z" id="Path" fill="#241F31" fill-rule="nonzero"></path>
                <path d="M473.383228,326.741841 L452.168129,326.741841 C450.780525,326.741841 449.657608,327.865285 449.657608,329.25156 L449.657608,337.340035 C449.657608,338.724707 450.780525,339.848151 452.168129,339.848151 L473.383228,339.848151 C474.769228,339.848151 475.893749,338.724707 475.893749,337.340035 L475.893749,329.25156 C475.893749,327.865285 474.769228,326.741841 473.383228,326.741841 Z" id="Path" fill="#241F31" fill-rule="nonzero"></path>
                <path d="M650.484796,293.977669 L639.108048,293.977669 C637.722048,293.977669 636.597528,295.101113 636.597528,296.485785 L636.597528,304.57426 C636.597528,305.960535 637.722048,307.083979 639.108048,307.083979 L650.484796,307.083979 C651.870795,307.083979 652.995316,305.960535 652.995316,304.57426 L652.995316,296.485785 C652.995316,295.101113 651.870795,293.977669 650.484796,293.977669 Z" id="Path" fill="#241F31" fill-rule="nonzero"></path>
                <path d="M650.484796,293.977669 L645.667484,293.977669 C644.27988,293.977669 643.156964,295.101113 643.156964,296.485785 L643.156964,320.957949 C643.156964,322.342621 644.27988,323.466065 645.667484,323.466065 L650.484796,323.466065 C651.870795,323.466065 652.995316,322.342621 652.995316,320.957949 L652.995316,296.485785 C652.995316,295.101113 651.870795,293.977669 650.484796,293.977669 Z" id="Path" fill="#241F31" fill-rule="nonzero"></path>
                <line x1="504.611534" y1="212.674637" x2="504.611534" y2="163.054" id="Path" stroke="#8C385F" stroke-width="1.28463"></line>
                <polygon id="Path" fill="#8C385F" fill-rule="nonzero" points="515.97224 202.485114 504.603514 213.842954 493.234787 202.485114"></polygon>
                <polygon id="Path" fill="#8C385F" fill-rule="nonzero" points="516.193615 173.988746 504.603514 162.409743 493.013412 173.988746"></polygon>
                <line x1="498.223744" y1="214.009628" x2="596.342578" y2="214.009628" id="Path" stroke="#8C385F" stroke-width="1.09491"></line>
                <line x1="498.223744" y1="162.578019" x2="596.342578" y2="162.578019" id="Path" stroke="#8C385F" stroke-width="1.09491"></line>
                <polygon id="Path" fill="#8C385F" fill-rule="nonzero" points="564.219147 182.944244 596.342578 182.944244 596.342578 215.038516"></polygon>
                <polygon id="Path" fill="#8C385F" fill-rule="nonzero" points="617.758198 161.549131 596.342578 161.549131 596.342578 182.944244"></polygon>
                <polygon id="Path" fill="#8C385F" fill-rule="nonzero" points="596.342578 182.944244 612.405095 182.944244 612.405095 198.99138"></polygon>
                <g transform="translate(61.0696, 69.6102)">
                    <path d="M75.14879,0 C67.9209393,0 61.9828922,5.94539102 61.9828922,13.1814296 L61.9828922,159.543127 C61.9828922,166.778988 67.9209393,172.724344 75.14879,172.724344 L392.497051,172.724344 C399.724018,172.724344 405.661181,166.778103 405.661181,159.543127 L405.661181,13.1814296 C405.661181,5.94618762 399.724018,0 392.497051,0 L75.14879,0 Z" id="Path" fill-opacity="0.200199" fill="#000000" fill-rule="nonzero"></path>
                    <path d="M392.496167,3.85381544 L75.14879,3.85381544 C70.0037202,3.85381544 65.8328543,8.02967319 65.8328543,13.1808985 L65.8328543,159.543127 C65.8328543,164.694529 70.0037202,168.870528 75.14879,168.870528 L392.496167,168.870528 C397.641237,168.870528 401.812103,164.694529 401.812103,159.543127 L401.812103,13.1808985 C401.812103,8.02967319 397.641237,3.85381544 392.496167,3.85381544 Z" id="Path" fill="#3D3846" fill-rule="nonzero"></path>
                    <path d="M380.643942,33.7824364 C385.46192,33.7824364 389.367576,29.8717077 389.367576,25.0475345 C389.367576,20.2234497 385.46192,16.312721 380.643942,16.312721 C375.82508,16.312721 371.919424,20.2234497 371.919424,25.0475345 C371.919424,29.8717077 375.82508,33.7824364 380.643942,33.7824364 Z" id="Path" fill="#241F31" fill-rule="nonzero"></path>
                    <path d="M376.900064,21.2955964 L377.866311,21.2955964 C378.110304,21.3098469 378.340153,21.4149107 378.510771,21.5901646 L380.647478,23.7297668 L382.812474,21.5901646 C383.060003,21.373133 383.230621,21.3048902 383.45605,21.2955964 L384.391356,21.2955964 L384.391356,22.2382499 C384.391356,22.5049368 384.357763,22.7529476 384.15974,22.939 L382.022149,25.0785137 L384.128798,27.1870482 C384.302069,27.3687635 384.39666,27.6117291 384.391356,27.8630148 L384.391356,28.7994725 L383.45605,28.7994725 C383.205868,28.8043407 382.962759,28.7095443 382.781533,28.5358836 L380.644826,26.3963699 L378.507235,28.5358836 C378.326892,28.7087477 378.085551,28.8034556 377.83537,28.7994725 L376.900064,28.7994725 L376.900064,27.8630148 C376.900064,27.615004 376.986699,27.3669047 377.163505,27.1901461 L379.300212,25.0816116 L377.163505,22.9420979 C377.06803,22.8531433 376.994655,22.7432998 376.94957,22.6211531 C376.9036,22.4990065 376.886803,22.3680086 376.900064,22.2382499 L376.900064,21.2955964 Z" id="Path" fill="#F6F5F4" fill-rule="nonzero"></path>
                    <g id="Clipped" transform="translate(65.8329, 3.8538)">
                        <mask id="mask-voq-183nck-3" fill="white">
                            <use xlink:href="#path-voq-183nck-2"></use>
                        </mask>
                        <g id="Path"></g>
                        <path d="M103.914498,-33.0997605 L-22.5852653,-33.0997605 C-27.7312192,-33.0997605 -31.9020851,-28.9234956 -31.9020851,-23.7718277 L-31.9020851,175.545223 C-31.9020851,180.696626 -27.7312192,184.872625 -22.5852653,184.872625 L103.914498,184.872625 C109.059568,184.872625 113.230434,180.696626 113.230434,175.545223 L113.230434,-23.7718277 C113.230434,-28.9234956 109.059568,-33.0997605 103.914498,-33.0997605 Z" id="Path" fill="#241F31" fill-rule="nonzero" mask="url(#mask-voq-183nck-3)"></path>
                    </g>
                    <g id="Clipped" transform="translate(75.5165, 13.5502)">
                        <mask id="mask-voq-183nck-5" fill="white">
                            <use xlink:href="#path-voq-183nck-4"></use>
                        </mask>
                        <g id="Path"></g>
                        <g id="Group" mask="url(#mask-voq-183nck-5)" fill-rule="nonzero">
                            <g transform="translate(125.667, 26.3136)" id="Path">
                                <path d="M100.888454,0 L5.31038394,0 C2.37804774,0 0,2.38017802 0,5.31638885 C0,8.25259969 2.37804774,10.6328662 5.31038394,10.6328662 L100.888454,10.6328662 C103.820791,10.6328662 106.198838,8.25259969 106.198838,5.31638885 C106.198838,2.38017802 103.820791,0 100.888454,0 Z" fill="#9A9996"></path>
                                <path d="M181.240831,21.2657324 L4.60669397,21.2657324 C2.0624481,21.2657324 0,23.3306305 0,25.8777423 L0,37.9195436 C0,40.4666554 2.0624481,42.5315534 4.60669397,42.5315534 L181.240831,42.5315534 C183.785077,42.5315534 185.847525,40.4666554 185.847525,37.9195436 L185.847525,25.8777423 C185.847525,23.3306305 183.785077,21.2657324 181.240831,21.2657324 Z" fill="#9A9996"></path>
                                <path d="M147.806718,34.5567931 L6.18115607,34.5567931 C2.76790613,34.5567931 0,37.3276634 0,40.7457339 L0,46.9755673 C0,50.3939034 2.76790613,53.1643311 6.18115607,53.1643311 L147.806718,53.1643311 C151.219968,53.1643311 153.987874,50.3939034 153.987874,46.9755673 L153.987874,40.7457339 C153.987874,37.3276634 151.219968,34.5567931 147.806718,34.5567931 Z" fill="#9A9996"></path>
                                <path d="M42.4795354,63.7972858 L10.6207679,63.7972858 C7.68754765,63.7972858 5.31038394,66.1773754 5.31038394,69.1142058 C5.31038394,72.0501511 7.68754765,74.4302406 10.6207679,74.4302406 L42.4795354,74.4302406 C45.4127556,74.4302406 47.7899193,72.0501511 47.7899193,69.1142058 C47.7899193,66.1773754 45.4127556,63.7972858 42.4795354,63.7972858 Z" fill="#F87F14"></path>
                                <path d="M116.818722,63.7972858 L58.4098031,63.7972858 C55.4774669,63.7972858 53.1003032,66.1773754 53.1003032,69.1142058 C53.1003032,72.0501511 55.4774669,74.4302406 58.4098031,74.4302406 L116.818722,74.4302406 C119.751942,74.4302406 122.129106,72.0501511 122.129106,69.1142058 C122.129106,66.1773754 119.751942,63.7972858 116.818722,63.7972858 Z" fill="#9A9996"></path>
                                <path d="M63.719303,79.7471605 L31.8596515,79.7471605 C28.9273153,79.7471605 26.5501516,82.12725 26.5501516,85.0631953 C26.5501516,87.9991406 28.9273153,90.3801152 31.8596515,90.3801152 L63.719303,90.3801152 C66.6516392,90.3801152 69.0288029,87.9991406 69.0288029,85.0631953 C69.0288029,82.12725 66.6516392,79.7471605 63.719303,79.7471605 Z" fill="#5E5C64"></path>
                                <path d="M74.3391869,95.69615 L31.8596515,95.69615 C28.9273153,95.69615 26.5501516,98.0762396 26.5501516,101.012185 C26.5501516,103.949015 28.9273153,106.329105 31.8596515,106.329105 L74.3391869,106.329105 C77.2715231,106.329105 79.6486868,103.949015 79.6486868,101.012185 C79.6486868,98.0762396 77.2715231,95.69615 74.3391869,95.69615 Z" fill="#9A9996"></path>
                                <path d="M106.198838,95.69615 L90.2685706,95.69615 C87.3362344,95.69615 84.9590707,98.0762396 84.9590707,101.012185 C84.9590707,103.949015 87.3362344,106.329105 90.2685706,106.329105 L106.198838,106.329105 C109.131175,106.329105 111.508338,103.949015 111.508338,101.012185 C111.508338,98.0762396 109.131175,95.69615 106.198838,95.69615 Z" fill="#F87F14"></path>
                                <path d="M111.509222,111.64514 L53.0994192,111.64514 C50.167083,111.64514 47.7899193,114.025229 47.7899193,116.96206 C47.7899193,119.898005 50.167083,122.278094 53.0994192,122.278094 L111.509222,122.278094 C114.441559,122.278094 116.818722,119.898005 116.818722,116.96206 C116.818722,114.025229 114.441559,111.64514 111.509222,111.64514 Z" fill="#9A9996"></path>
                                <path d="M148.678374,111.64514 L127.438606,111.64514 C124.50627,111.64514 122.129106,114.025229 122.129106,116.96206 C122.129106,119.898005 124.50627,122.278094 127.438606,122.278094 L148.678374,122.278094 C151.61071,122.278094 153.988758,119.898005 153.988758,116.96206 C153.988758,114.025229 151.61071,111.64514 148.678374,111.64514 Z" fill="#9A9996"></path>
                            </g>
                        </g>
                    </g>
                    <g transform="translate(0, 85.5338)" id="Path">
                        <path d="M8.8200654,2.48100208 C7.66171866,2.47857507 6.51314701,2.70533601 5.44179847,3.14828856 C4.37044993,3.5912509 3.39782967,4.24167538 2.57770064,5.06223662 C1.75854911,5.88279786 1.10850642,6.85732871 0.666672901,7.92988026 C0.223861871,9.00240245 -0.0019424288,10.1519143 0,11.3122891 L0,157.840313 C0,162.733519 3.93350394,166.673541 8.8200654,166.673541 L156.407124,166.673541 C157.566449,166.675485 158.71502,166.448441 159.786369,166.006095 C160.857717,165.56277 161.831315,164.911974 162.650467,164.090894 C163.469618,163.270793 164.119661,162.296066 164.561494,161.223476 C165.004305,160.150885 165.23011,159.000982 165.227205,157.840313 L165.227205,11.3122891 C165.227205,6.41907364 161.293686,2.48100208 156.407124,2.48100208 L8.8200654,2.48100208 Z" fill-opacity="0.2" fill="#000000" fill-rule="nonzero"></path>
                        <path d="M156.410057,0 L8.82202041,0 C3.95109908,0 0.00196760237,3.95326005 0.00196760237,8.82986802 L0.00196760237,155.361415 C0.00196760237,160.237984 3.95109908,164.191694 8.82202041,164.191694 L156.410057,164.191694 C161.280978,164.191694 165.229132,160.237984 165.229132,155.361415 L165.229132,8.82986802 C165.229132,3.95326005 161.280978,0 156.410057,0 Z" fill="#3D3846" fill-rule="nonzero"></path>
                        <path d="M145.188267,28.3300757 C149.750296,28.3300757 153.448208,24.6278763 153.448208,20.0608517 C153.448208,15.4939249 149.750296,11.7917254 145.188267,11.7917254 C140.627216,11.7917254 136.928327,15.4939249 136.928327,20.0608517 C136.928327,24.6278763 140.627216,28.3300757 145.188267,28.3300757 Z" fill="#241F31" fill-rule="nonzero"></path>
                        <path d="M141.643824,16.5119074 L142.561704,16.5119074 C142.791418,16.5245319 143.008425,16.6229832 143.168736,16.7878842 L145.192178,18.8133778 L147.243966,16.7878842 C147.478568,16.5823696 147.636925,16.5177793 147.850999,16.5119074 L148.739622,16.5119074 L148.739622,17.3984584 C148.739622,17.6509478 148.707296,17.8886598 148.516682,18.0648152 L146.49324,20.0903088 L148.487356,22.0863452 C148.651578,22.257216 148.742486,22.4861201 148.739622,22.7233428 L148.739622,23.6128297 L147.850999,23.6128297 C147.614442,23.6162549 147.385705,23.5267093 147.214641,23.3632762 L145.192178,21.3378805 L143.168736,23.3632762 C142.997673,23.526905 142.768936,23.6165485 142.532379,23.6128297 L141.646757,23.6128297 L141.646757,22.7233428 C141.646757,22.4885667 141.728867,22.2536929 141.896021,22.0863452 L143.919462,20.0903088 L141.896021,18.0648152 C141.806091,17.9804563 141.736687,17.8764268 141.693677,17.7608492 C141.650667,17.6452717 141.634049,17.5212779 141.646757,17.3984584 L141.643824,16.5119074 Z" fill="#F6F5F4" fill-rule="nonzero"></path>
                        <polyline stroke="#F6F5F4" stroke-width="5.87733" stroke-linecap="round" points="24.9088662 136.206472 40.7376498 121.107996 24.9088662 106.0105"></polyline>
                    </g>
                </g>
                <path d="M352.204504,0.179975371 C344.26388,0.179975371 337.871278,8.4859269 337.871278,18.8026985 L337.871278,103.511481 C337.871278,113.827611 344.26388,120.978547 352.204504,120.964123 L401.89516,120.964123 L432.671091,151.712186 L463.448626,120.964123 L511.291283,120.964123 C519.233511,120.964123 525.627718,113.827611 525.627718,103.511481 L525.627718,18.8026985 C525.627718,8.4859269 519.233511,0.179975371 511.291283,0.179975371 L352.204504,0.179975371 Z" id="Path" fill="#E01B24" fill-rule="nonzero"></path>
                <path d="M352.204504,0 C344.26388,0 337.871278,5.60632096 337.871278,15.9230926 L337.871278,100.631234 C337.871278,110.947685 344.26388,118.084197 352.204504,118.084197 L401.89516,118.084197 L432.671091,148.83226 L463.448626,118.084197 L511.291283,118.084197 C519.233511,118.084197 525.627718,110.947685 525.627718,100.631234 L525.627718,15.9230926 C525.627718,5.60632096 519.233511,0 511.291283,0 L352.204504,0 Z" id="Path" fill="#ED333B" fill-rule="nonzero"></path>
            </g>
            <g id="API" transform="translate(378.7784, 36.1135)" fill="#FFFFFF" fill-rule="nonzero">
                <path d="M11.566505,28.3950325 L20.7181685,28.3950325 L16.4515145,11.2590325 C16.3690671,10.9703394 16.2660078,10.8259928 16.1423367,10.8259928 C16.0186656,10.8259928 15.9156063,10.9703394 15.8331589,11.2590325 L11.566505,28.3950325 Z M22.2640576,35.0143538 L10.0206159,35.0143538 L7.85637114,43.7370108 C7.65025259,44.6443321 7.24832142,45.3145126 6.65057764,45.7475523 C6.05283385,46.1805921 5.19744188,46.3971119 4.08440173,46.3971119 C2.43545336,46.3971119 1.27088357,45.9640722 0.590692362,45.0979928 C-0.0894988427,44.2319134 -0.182252189,42.9121733 0.312432324,41.1387726 L9.58776693,5.13461372 C10.0412277,3.40245487 10.8038664,2.11364621 11.8756828,1.26818773 C12.9474992,0.422729242 14.3697172,0 16.1423367,0 C17.9149562,0 19.3371742,0.422729242 20.4089906,1.26818773 C21.4808071,2.11364621 22.2434457,3.40245487 22.6969065,5.13461372 L31.9722411,41.1387726 C32.4669256,42.9121733 32.3638664,44.2319134 31.6630633,45.0979928 C30.9622602,45.9640722 29.7873845,46.3971119 28.1384361,46.3971119 C27.025396,46.3971119 26.18031,46.1805921 25.603178,45.7475523 C25.0260461,45.3145126 24.6344209,44.6443321 24.4283023,43.7370108 L22.2640576,35.0143538 Z" id="Shape"></path>
                <path d="M47.4311321,27.4670903 L47.4311321,42.3141661 C47.4311321,43.7163899 47.0910365,44.7474368 46.4108453,45.4073069 C45.7306541,46.0671769 44.6897555,46.3971119 43.2881493,46.3971119 C41.9277669,46.3971119 40.9177861,46.0671769 40.2582067,45.4073069 C39.5986274,44.7474368 39.2688377,43.7163899 39.2688377,42.3141661 L39.2688377,6.43373285 C39.2688377,4.45412274 39.7429103,2.9900361 40.6910557,2.04147292 C41.639201,1.09290975 43.1026426,0.618628159 45.0813807,0.618628159 L54.4185509,0.618628159 C56.4385126,0.618628159 58.365721,0.9073213 60.2001761,1.48470758 C62.0346312,2.06209386 63.6526618,2.91786282 65.0542679,4.05201444 C66.455874,5.18616606 67.5586082,6.58838989 68.3624706,8.25868592 C69.1663329,9.92898195 69.5682641,11.8570397 69.5682641,14.0428592 C69.5682641,16.1874368 69.156027,18.0948736 68.3315528,19.7651697 C67.5070786,21.4354657 66.4043444,22.8376895 65.0233501,23.9718412 C63.6423558,25.1059928 62.0346312,25.9720722 60.2001761,26.5700794 C58.365721,27.1680866 56.4385126,27.4670903 54.4185509,27.4670903 L47.4311321,27.4670903 Z M47.4311321,20.167278 L54.4185509,20.167278 C55.3666962,20.167278 56.2633119,20.0435523 57.1083979,19.7961011 C57.9534839,19.5486498 58.6955107,19.1671625 59.3344782,18.651639 C59.9734457,18.1361155 60.4681302,17.4968664 60.8185318,16.7338917 C61.1689333,15.970917 61.344134,15.0739061 61.344134,14.0428592 C61.344134,11.9807653 60.6639428,10.4445054 59.3035604,9.43407942 C57.943178,8.42365343 56.3148415,7.91844043 54.4185509,7.91844043 L50.3374036,7.91844043 C49.3480346,7.91844043 48.6163138,8.1658917 48.1422411,8.66079422 C47.6681685,9.15569675 47.4311321,9.8774296 47.4311321,10.8259928 L47.4311321,20.167278 Z" id="Shape"></path>
                <path d="M94.4261608,38.2312202 L99.6821838,38.2312202 C100.918895,38.2312202 101.86704,38.5508448 102.52662,39.1900939 C103.186199,39.829343 103.515989,40.7675957 103.515989,42.004852 C103.515989,43.2421083 103.186199,44.180361 102.52662,44.8196101 C101.86704,45.4588592 100.918895,45.7784838 99.6821838,45.7784838 L81.0078434,45.7784838 C79.7711321,45.7784838 78.8229868,45.4588592 78.1634075,44.8196101 C77.5038281,44.180361 77.1740384,43.2421083 77.1740384,42.004852 C77.1740384,40.7675957 77.5038281,39.829343 78.1634075,39.1900939 C78.8229868,38.5508448 79.7711321,38.2312202 81.0078434,38.2312202 L86.2638664,38.2312202 L86.2638664,8.1658917 L81.0078434,8.1658917 C79.7711321,8.1658917 78.8229868,7.83595668 78.1634075,7.17608664 C77.5038281,6.51621661 77.1740384,5.56765343 77.1740384,4.33039711 C77.1740384,3.13438267 77.5038281,2.2167509 78.1634075,1.57750181 C78.8229868,0.938252708 79.7711321,0.618628159 81.0078434,0.618628159 L99.6821838,0.618628159 C100.918895,0.618628159 101.86704,0.938252708 102.52662,1.57750181 C103.186199,2.2167509 103.515989,3.13438267 103.515989,4.33039711 C103.515989,5.56765343 103.186199,6.51621661 102.52662,7.17608664 C101.86704,7.83595668 100.918895,8.1658917 99.6821838,8.1658917 L94.4261608,8.1658917 L94.4261608,38.2312202 Z" id="Path"></path>
            </g>
            <g transform="translate(286.3374, 220.1799)" fill-rule="nonzero" id="Path">
                <path d="M9.70923701,24.3833675 L89.1437197,24.3833675 C91.2033631,24.3833675 93.0602056,26.761448 92.8615587,29.6847858 L85.3727306,139.849432 C85.208381,142.268322 84.0005226,144.236718 82.2959938,144.236718 L16.55708,144.236718 C14.8525512,144.236718 13.6446929,142.268322 13.4802367,139.849432 L5.99141928,29.6847858 C5.79270848,26.761448 7.64954034,24.3833675 9.70923701,24.3833675 Z" fill="#DEDDDA"></path>
                <path d="M9.70865118,24.3830495 C7.64895452,24.3830495 5.79166465,26.760918 5.99037545,29.6842558 L6.62500168,39.0111862 L92.2262082,39.0111862 L92.8608131,29.6842558 C93.05946,26.760918 91.2021915,24.3830495 89.1425481,24.3830495 L9.70865118,24.3830495 Z" fill="#C0BFBC" opacity="0.23"></path>
                <path d="M13.4799172,139.849432 C13.6443734,142.269382 14.8516991,144.236718 16.5562279,144.236718 L82.2955678,144.236718 C84.0000966,144.236718 85.2075289,142.269382 85.3718785,139.849432 L85.9263856,131.545495 C85.7620359,133.965445 84.0000966,135.850102 82.2955678,135.850102 L16.5562279,135.850102 C14.8516991,135.850102 13.0344795,133.910326 12.8700233,131.490376 L13.4799172,139.849432 Z" fill="#C0BFBC"></path>
                <path d="M75.1995599,54.6170547 C69.0441691,54.6170547 63.1410012,57.0506786 58.7884508,61.3821029 C54.4359003,65.7136332 51.9906795,71.5881864 51.9906795,77.7138505 C51.9906795,83.8395145 54.4359003,89.7142797 58.7884508,94.04581 C63.1410012,98.3773403 69.0441691,100.810646 75.1995599,100.810646 C79.9171307,100.801106 84.5199869,99.3610081 88.3944002,96.6824213 L90.8420707,60.6886595 C86.5719614,56.7929958 80.9923803,54.6272306 75.1995599,54.6170547 Z" fill="#C0BFBC"></path>
                <path d="M75.1370368,42.1895568 C62.41831,42.1895568 50.6464845,48.9530149 44.2872276,59.9145511 L52.9781623,64.9084672 C57.552686,57.0232249 65.9878828,52.177389 75.1370368,52.177389 C81.014535,52.177389 86.5907077,54.1859581 91.0443391,57.7065984 L91.8184761,46.3214916 C86.7620872,43.6537166 81.0523471,42.1895568 75.1370368,42.1895568 Z" fill="#C0BFBC"></path>
                <path d="M58.0946246,24.3830495 C60.154268,24.3830495 62.0116431,26.760918 61.8128896,29.6842558 L60.3114813,139.850492 C60.1470251,142.269382 58.9396993,144.236718 57.2351705,144.236718 L82.2952482,144.236718 C83.9997771,144.236718 85.2071028,142.269382 85.371559,139.850492 L92.8608131,29.6842558 C93.05946,26.760918 91.2021915,24.3830495 89.1425481,24.3830495 L58.0946246,24.3830495 Z" fill="#77767B" opacity="0.13"></path>
                <path d="M14.7013026,0 L81.1551322,0 C83.2147757,0 84.5213716,1.68035689 84.8729713,3.70001346 L87.3692118,18.0361662 C87.7445639,20.1922854 85.5990709,21.9861012 83.4002149,21.9861012 L12.45622,21.9861012 C10.2573107,21.9861012 8.11165798,20.1922854 8.48708463,18.0361662 L10.9834636,3.70001346 C11.3350633,1.68035689 12.6416592,0 14.7013026,0 Z" fill="#FFFFFF"></path>
                <path d="M59.1990587,0 C61.2585956,0 62.5656176,1.68065369 62.9173238,3.70032085 L65.4129252,18.0358482 C65.7882773,20.1919674 63.6435299,21.9861012 61.4446739,21.9861012 L83.4002149,21.9861012 C85.5990709,21.9861012 87.7439248,20.1919674 87.3684662,18.0358482 L84.8728648,3.70032085 C84.5212651,1.68065369 83.2142431,0 81.1545997,0 L59.1990587,0 Z" fill="#FAF9F8"></path>
                <path d="M3.7178124,10.4337284 L94.1358812,10.4337284 C96.1955246,10.4337284 97.8537202,12.0840219 97.8537202,14.1337185 L97.8537202,33.4900326 L0,33.4900326 L0,14.1337185 C0,12.0840219 1.65817964,10.4337284 3.7178124,10.4337284 Z" fill="#F6F5F4"></path>
                <path d="M68.632283,10.4339404 C70.6919264,10.4339404 72.3505481,12.0833859 72.3505481,14.1330825 L72.3505481,33.3332606 L97.8541463,33.3332606 L97.8541463,14.1330825 C97.8541463,12.0833859 96.1955246,10.4339404 94.1358812,10.4339404 L68.632283,10.4339404 Z" fill="#F0EEEC"></path>
            </g>
        </g>
    </g>
</svg>
