
<svg width="332px" height="177px" viewBox="0 0 332 177" version="1.1" xmlns="http://www.w3.org/2000/svg" xmlns:xlink="http://www.w3.org/1999/xlink">
    <defs>
        <linearGradient x1="24.095909%" y1="42.2050673%" x2="69.6083623%" y2="66.8077304%" id="linearGradient-hp6-08_qal-1">
            <stop stop-color="#F6B6D0" stop-opacity="0.573529" offset="0%"></stop>
            <stop stop-color="#E84184" stop-opacity="0.683601" offset="100%"></stop>
        </linearGradient>
        <linearGradient x1="50%" y1="100%" x2="50%" y2="0%" id="linearGradient-hp6-08_qal-2">
            <stop stop-color="#3D3846" offset="0%"></stop>
            <stop stop-color="#3D3846" offset="90.6515%"></stop>
            <stop stop-color="#575166" offset="100%"></stop>
        </linearGradient>
        <linearGradient x1="50.0000043%" y1="100%" x2="50.0000043%" y2="0%" id="linearGradient-hp6-08_qal-3">
            <stop stop-color="#3D3846" offset="0%"></stop>
            <stop stop-color="#3D3846" offset="90.6515%"></stop>
            <stop stop-color="#575166" offset="100%"></stop>
        </linearGradient>
        <linearGradient x1="50.0001693%" y1="1.03752348%" x2="50.0001693%" y2="98.9624765%" id="linearGradient-hp6-08_qal-4">
            <stop stop-color="#5A5267" offset="0%"></stop>
            <stop stop-color="#3D3846" offset="11.8097%"></stop>
            <stop stop-color="#3D3846" offset="88.1856%"></stop>
            <stop stop-color="#292530" offset="100%"></stop>
        </linearGradient>
    </defs>
    <g id="Page-1" stroke="none" stroke-width="1" fill="none" fill-rule="evenodd">
        <g id="Group">
            <path d="M15.9456,176.834 L317.64,176.834 C320.507,176.834 323.309,175.976 325.684,174.37 C328.059,172.764 329.899,170.483 330.967,167.822 C332.035,165.161 332.282,162.241 331.676,159.439 C331.069,156.637 329.638,154.08 327.566,152.098 L178.634,9.62532 C175.276,6.41323 171.308,3.90827 166.963,2.25905 C162.619,0.609832 157.988,-0.150049 153.345,0.0244877 C148.701,0.199024 144.14,1.30443 139.932,3.27511 C135.724,5.24579 131.954,8.04162 128.847,11.4967 L4.08913,150.226 C2.02838,152.518 0.675879,155.357 0.195177,158.401 C-0.285526,161.446 0.126218,164.564 1.38058,167.379 C2.63494,170.194 4.67818,172.585 7.26309,174.263 C9.848,175.941 12.8638,176.834 15.9456,176.834 Z" id="Path" fill="url(#linearGradient-hp6-08_qal-1)" fill-rule="nonzero"></path>
            <path d="M224.013,69.3711 C219.922,69.3711 216.628,72.665 216.628,76.7565 L216.628,145.194 L260.94,145.194 L260.94,76.7565 C260.94,72.665 257.646,69.3711 253.555,69.3711 L224.013,69.3711 Z" id="Path" fill="url(#linearGradient-hp6-08_qal-2)" fill-rule="nonzero"></path>
            <path d="M253.554,69.3711 C249.463,69.3711 246.169,72.665 246.169,76.7565 L246.169,145.194 L260.94,145.194 L260.94,76.7565 C260.94,72.665 257.646,69.3711 253.554,69.3711 Z" id="Path" fill="#5E5C64" fill-rule="nonzero"></path>
            <path d="M216.628,80.4492 L216.628,95.22 L235.091,95.22 C239.183,95.22 242.477,91.9261 242.477,87.8346 C242.477,83.7431 239.183,80.4492 235.091,80.4492 L216.628,80.4492 Z" id="Path" fill-opacity="0.244764" fill="#000000" fill-rule="nonzero"></path>
            <path d="M231.399,76.7568 L91.0768,76.7568 C86.9979,76.7568 83.6914,80.0634 83.6914,84.1422 C83.6914,88.221 86.9979,91.5276 91.0768,91.5276 L231.399,91.5276 C235.478,91.5276 238.784,88.221 238.784,84.1422 C238.784,80.0634 235.478,76.7568 231.399,76.7568 Z" id="Path" fill="#E66100" fill-rule="nonzero"></path>
            <path d="M46.7639,69.3711 C42.6724,69.3711 39.3785,72.665 39.3785,76.7565 L38.875,145.194 L97.9579,145.194 L98.4615949,76.7565 C98.4909,72.6651 95.1676,69.3711 91.0761,69.3711 L46.7639,69.3711 Z" id="Path" fill="url(#linearGradient-hp6-08_qal-3)" fill-rule="nonzero"></path>
            <polygon id="Path" fill="#F6F5F4" fill-rule="nonzero" points="83.6914 91.5276 98.4621 76.7568 113.233 76.7568 98.4621 91.5276"></polygon>
            <path d="M76.3063,69.3711 C72.2148,69.3711 68.9209,72.665 68.9209,76.7565 L68.9209,78.5436 L68.9209,143.225 L98.4624,143.225 L98.4624,76.7565 C98.4624,72.665 95.1685,69.3711 91.077,69.3711 L76.3063,69.3711 Z" id="Path" fill="#5E5C64" fill-rule="nonzero"></path>
            <polygon id="Path" fill="#F6F5F4" fill-rule="nonzero" points="113.232 91.5276 128.003 76.7568 142.774 76.7568 128.003 91.5276"></polygon>
            <polygon id="Path" fill="#F6F5F4" fill-rule="nonzero" points="142.774 91.5276 157.545 76.7568 172.316 76.7568 157.545 91.5276"></polygon>
            <polygon id="Path" fill="#F6F5F4" fill-rule="nonzero" points="172.315 91.5276 187.086 76.7568 201.857 76.7568 187.086 91.5276"></polygon>
            <polygon id="Path" fill="#F6F5F4" fill-rule="nonzero" points="201.857 91.5276 216.628 76.7568 231.399 76.7568 216.628 91.5276"></polygon>
            <path d="M76.3058,10.2881 L54.1497,10.2881 C52.1103,10.2881 50.457,11.9414 50.457,13.9808 L50.457,36.1369 C50.457,38.1763 52.1103,39.8296 54.1497,39.8296 L76.3058,39.8296 C78.3452,39.8296 79.9985,38.1763 79.9985,36.1369 L79.9985,13.9808 C79.9985,11.9414 78.3452,10.2881 76.3058,10.2881 Z" id="Path" fill="url(#linearGradient-hp6-08_qal-4)" fill-rule="nonzero"></path>
            <path d="M79.9982,10.2881 L57.8421,10.2881 C55.8027,10.2881 54.1494,11.9414 54.1494,13.9808 L54.1494,36.1369 C54.1494,38.1763 55.8027,39.8296 57.8421,39.8296 L79.9982,39.8296 C82.0376,39.8296 83.6909,38.1763 83.6909,36.1369 L83.6909,13.9808 C83.6909,11.9414 82.0376,10.2881 79.9982,10.2881 Z" id="Path" fill="#5E5C64" fill-rule="nonzero"></path>
            <polygon id="Path" fill="#E66100" fill-rule="nonzero" points="79.9989 13.981 57.8428 13.981 57.8428 36.1371 79.9989 36.1371"></polygon>
            <path d="M61.5352,32.4441 L76.3059,17.6733 L61.5352,32.4441 Z" id="Path" fill="#E66100" fill-rule="nonzero"></path>
            <line x1="61.5352" y1="32.4441" x2="76.3059" y2="17.6733" id="Path" stroke="#C64600" stroke-width="3.69268" stroke-linecap="round"></line>
            <path d="M61.5352,17.6733 L76.3059,32.4441 L61.5352,17.6733 Z" id="Path" fill="#E66100" fill-rule="nonzero"></path>
            <line x1="61.5352" y1="17.6733" x2="76.3059" y2="32.4441" id="Path" stroke="#C64600" stroke-width="3.69268" stroke-linecap="round"></line>
            <polygon id="Path" fill="#9A9996" fill-rule="nonzero" points="68.9202 39.8296 65.2275 39.8296 65.2275 69.3711 68.9202 69.3711"></polygon>
            <path d="M92.9231,80.4854 L74.4596,80.4854 C73.4399,80.4854 72.6133,81.312 72.6133,82.3317 C72.6133,83.3514 73.4399,84.178 74.4596,84.178 L92.9231,84.178 C93.9428,84.178 94.7694,83.3514 94.7694,82.3317 C94.7694,81.312 93.9428,80.4854 92.9231,80.4854 Z" id="Path" fill="#3D3846" fill-rule="nonzero"></path>
            <path d="M92.923,87.835 L74.4596,87.835 C73.4399,87.835 72.6133,88.6616 72.6133,89.6813 L72.6133,104.452 C72.6133,105.472 73.4399,106.298 74.4596,106.298 L92.923,106.298 C93.9427,106.298 94.7694,105.472 94.7694,104.452 L94.7694,89.6813 C94.7694,88.6616 93.9427,87.835 92.923,87.835 Z" id="Path" fill="#77767B" fill-rule="nonzero"></path>
            <path d="M31.9938,143.225 C27.9023,143.225 24.6084,146.518 24.6084,150.61 C24.6084,154.701 27.9023,157.995 31.9938,157.995 L268.326,157.995 C272.417,157.995 275.711,154.701 275.711,150.61 C275.711,146.518 272.417,143.225 268.326,143.225 L216.628,143.225 C215.649,143.225 214.709,143.614 214.017,144.306 C213.324,144.999 212.935,145.938 212.935,146.917 C212.935,147.897 212.546,148.836 211.854,149.528 C211.161,150.221 210.222,150.61 209.243,150.61 L105.847,150.61 C105.363,150.61 104.882,150.514 104.434,150.329 C103.986,150.143 103.579,149.871 103.236,149.528 C102.893,149.186 102.621,148.778 102.436,148.33 C102.25,147.882 102.155,147.402 102.155,146.917 L102.155,146.864 C102.155,146.386 102.061,145.913 101.878,145.471 C101.695,145.03 101.427,144.628 101.089,144.291 C100.751,143.953 100.35,143.685 99.9084,143.502 C99.4668,143.319 98.9936,143.225 98.5157,143.225 L31.9938,143.225 Z" id="Path" fill="#241F31" fill-rule="nonzero"></path>
        </g>
    </g>
</svg>
